  0
SECTION
  2
HEADER
  9
$ACADVER
  1
AC1009
  9
$FILLMODE
 70
 0
  9
$SPLFRAME
 70
 1
  9
$EXTMIN
 10
0
 20
0
 30
0.0
  9
$EXTMAX
 10
1058.33
 20
1058.33
 30
0.0
  0
ENDSEC
  0
SECTION
  2
TABLES
  0
TABLE
  2
LAYER
 70
1
  0
LAYER
  2
0
 70
     0
 62
     7
  6
CONTINUOUS
  0
ENDTAB
  0
ENDSEC
  0
SECTION
  2
ENTITIES
  0
LINE
  8
0
 62
     0
 10
208.596
 20
263.077
 30
0.0
 11
208.752
 21
263.07
 31
0.0
  0
LINE
  8
0
 62
     0
 10
208.752
 20
263.07
 30
0.0
 11
208.908
 21
263.052
 31
0.0
  0
LINE
  8
0
 62
     0
 10
208.908
 20
263.052
 30
0.0
 11
209.062
 21
263.022
 31
0.0
  0
LINE
  8
0
 62
     0
 10
209.062
 20
263.022
 30
0.0
 11
209.215
 21
262.979
 31
0.0
  0
LINE
  8
0
 62
     0
 10
209.215
 20
262.979
 30
0.0
 11
209.361
 21
262.924
 31
0.0
  0
LINE
  8
0
 62
     0
 10
209.361
 20
262.924
 30
0.0
 11
209.503
 21
262.859
 31
0.0
  0
LINE
  8
0
 62
     0
 10
209.503
 20
262.859
 30
0.0
 11
209.641
 21
262.782
 31
0.0
  0
LINE
  8
0
 62
     0
 10
209.641
 20
262.782
 30
0.0
 11
209.772
 21
262.695
 31
0.0
  0
LINE
  8
0
 62
     0
 10
209.772
 20
262.695
 30
0.0
 11
209.895
 21
262.598
 31
0.0
  0
LINE
  8
0
 62
     0
 10
209.895
 20
262.598
 30
0.0
 11
210.01
 21
262.491
 31
0.0
  0
LINE
  8
0
 62
     0
 10
210.01
 20
262.491
 30
0.0
 11
210.116
 21
262.376
 31
0.0
  0
LINE
  8
0
 62
     0
 10
210.116
 20
262.376
 30
0.0
 11
210.214
 21
262.253
 31
0.0
  0
LINE
  8
0
 62
     0
 10
210.214
 20
262.253
 30
0.0
 11
210.301
 21
262.122
 31
0.0
  0
LINE
  8
0
 62
     0
 10
210.301
 20
262.122
 30
0.0
 11
210.378
 21
261.984
 31
0.0
  0
LINE
  8
0
 62
     0
 10
210.378
 20
261.984
 30
0.0
 11
210.443
 21
261.842
 31
0.0
  0
LINE
  8
0
 62
     0
 10
210.443
 20
261.842
 30
0.0
 11
210.498
 21
261.696
 31
0.0
  0
LINE
  8
0
 62
     0
 10
210.498
 20
261.696
 30
0.0
 11
210.541
 21
261.543
 31
0.0
  0
LINE
  8
0
 62
     0
 10
210.541
 20
261.543
 30
0.0
 11
210.571
 21
261.39
 31
0.0
  0
LINE
  8
0
 62
     0
 10
210.571
 20
261.39
 30
0.0
 11
210.589
 21
261.233
 31
0.0
  0
LINE
  8
0
 62
     0
 10
210.589
 20
261.233
 30
0.0
 11
210.596
 21
261.076
 31
0.0
  0
LINE
  8
0
 62
     0
 10
210.596
 20
261.076
 30
0.0
 11
210.596
 21
2.18833
 31
0.0
  0
LINE
  8
0
 62
     0
 10
210.596
 20
2.18833
 30
0.0
 11
210.589
 21
2.03123
 31
0.0
  0
LINE
  8
0
 62
     0
 10
210.589
 20
2.03123
 30
0.0
 11
210.571
 21
1.87551
 31
0.0
  0
LINE
  8
0
 62
     0
 10
210.571
 20
1.87551
 30
0.0
 11
210.541
 21
1.72117
 31
0.0
  0
LINE
  8
0
 62
     0
 10
210.541
 20
1.72117
 30
0.0
 11
210.498
 21
1.57097
 31
0.0
  0
LINE
  8
0
 62
     0
 10
210.498
 20
1.57097
 30
0.0
 11
210.443
 21
1.42351
 31
0.0
  0
LINE
  8
0
 62
     0
 10
210.443
 20
1.42351
 30
0.0
 11
210.378
 21
1.2802
 31
0.0
  0
LINE
  8
0
 62
     0
 10
210.378
 20
1.2802
 30
0.0
 11
210.301
 21
1.14377
 31
0.0
  0
LINE
  8
0
 62
     0
 10
210.301
 20
1.14377
 30
0.0
 11
210.214
 21
1.01286
 31
0.0
  0
LINE
  8
0
 62
     0
 10
210.214
 20
1.01286
 30
0.0
 11
210.116
 21
0.890214
 31
0.0
  0
LINE
  8
0
 62
     0
 10
210.116
 20
0.890214
 30
0.0
 11
210.01
 21
0.774457
 31
0.0
  0
LINE
  8
0
 62
     0
 10
210.01
 20
0.774457
 30
0.0
 11
209.895
 21
0.668348
 31
0.0
  0
LINE
  8
0
 62
     0
 10
209.895
 20
0.668348
 30
0.0
 11
209.772
 21
0.570509
 31
0.0
  0
LINE
  8
0
 62
     0
 10
209.772
 20
0.570509
 30
0.0
 11
209.641
 21
0.48369
 31
0.0
  0
LINE
  8
0
 62
     0
 10
209.641
 20
0.48369
 30
0.0
 11
209.503
 21
0.40652
 31
0.0
  0
LINE
  8
0
 62
     0
 10
209.503
 20
0.40652
 30
0.0
 11
209.361
 21
0.340376
 31
0.0
  0
LINE
  8
0
 62
     0
 10
209.361
 20
0.340376
 30
0.0
 11
209.215
 21
0.286632
 31
0.0
  0
LINE
  8
0
 62
     0
 10
209.215
 20
0.286632
 30
0.0
 11
209.062
 21
0.243913
 31
0.0
  0
LINE
  8
0
 62
     0
 10
209.062
 20
0.243913
 30
0.0
 11
208.908
 21
0.213596
 31
0.0
  0
LINE
  8
0
 62
     0
 10
208.908
 20
0.213596
 30
0.0
 11
208.752
 21
0.194303
 31
0.0
  0
LINE
  8
0
 62
     0
 10
208.752
 20
0.194303
 30
0.0
 11
208.596
 21
0.188791
 31
0.0
  0
LINE
  8
0
 62
     0
 10
208.596
 20
0.188791
 30
0.0
 11
2.096
 21
0.188791
 31
0.0
  0
LINE
  8
0
 62
     0
 10
2.096
 20
0.188791
 30
0.0
 11
1.9389
 21
0.194303
 31
0.0
  0
LINE
  8
0
 62
     0
 10
1.9389
 20
0.194303
 30
0.0
 11
1.7818
 21
0.213596
 31
0.0
  0
LINE
  8
0
 62
     0
 10
1.7818
 20
0.213596
 30
0.0
 11
1.62884
 21
0.243913
 31
0.0
  0
LINE
  8
0
 62
     0
 10
1.62884
 20
0.243913
 30
0.0
 11
1.47588
 21
0.286632
 31
0.0
  0
LINE
  8
0
 62
     0
 10
1.47588
 20
0.286632
 30
0.0
 11
1.32981
 21
0.340376
 31
0.0
  0
LINE
  8
0
 62
     0
 10
1.32981
 20
0.340376
 30
0.0
 11
1.18787
 21
0.40652
 31
0.0
  0
LINE
  8
0
 62
     0
 10
1.18787
 20
0.40652
 30
0.0
 11
1.05006
 21
0.48369
 31
0.0
  0
LINE
  8
0
 62
     0
 10
1.05006
 20
0.48369
 30
0.0
 11
0.919152
 21
0.570509
 31
0.0
  0
LINE
  8
0
 62
     0
 10
0.919152
 20
0.570509
 30
0.0
 11
0.796505
 21
0.668348
 31
0.0
  0
LINE
  8
0
 62
     0
 10
0.796505
 20
0.668348
 30
0.0
 11
0.680752
 21
0.774457
 31
0.0
  0
LINE
  8
0
 62
     0
 10
0.680752
 20
0.774457
 30
0.0
 11
0.574643
 21
0.890214
 31
0.0
  0
LINE
  8
0
 62
     0
 10
0.574643
 20
0.890214
 30
0.0
 11
0.4768
 21
1.01286
 31
0.0
  0
LINE
  8
0
 62
     0
 10
0.4768
 20
1.01286
 30
0.0
 11
0.389985
 21
1.14377
 31
0.0
  0
LINE
  8
0
 62
     0
 10
0.389985
 20
1.14377
 30
0.0
 11
0.312815
 21
1.2802
 31
0.0
  0
LINE
  8
0
 62
     0
 10
0.312815
 20
1.2802
 30
0.0
 11
0.248047
 21
1.42351
 31
0.0
  0
LINE
  8
0
 62
     0
 10
0.248047
 20
1.42351
 30
0.0
 11
0.192925
 21
1.57097
 31
0.0
  0
LINE
  8
0
 62
     0
 10
0.192925
 20
1.57097
 30
0.0
 11
0.150206
 21
1.72117
 31
0.0
  0
LINE
  8
0
 62
     0
 10
0.150206
 20
1.72117
 30
0.0
 11
0.119889
 21
1.87551
 31
0.0
  0
LINE
  8
0
 62
     0
 10
0.119889
 20
1.87551
 30
0.0
 11
0.101975
 21
2.03123
 31
0.0
  0
LINE
  8
0
 62
     0
 10
0.101975
 20
2.03123
 30
0.0
 11
0.0950846
 21
2.18833
 31
0.0
  0
LINE
  8
0
 62
     0
 10
0.0950846
 20
2.18833
 30
0.0
 11
0.0950846
 21
261.076
 31
0.0
  0
LINE
  8
0
 62
     0
 10
0.0950846
 20
261.076
 30
0.0
 11
0.101975
 21
261.233
 31
0.0
  0
LINE
  8
0
 62
     0
 10
0.101975
 20
261.233
 30
0.0
 11
0.119889
 21
261.39
 31
0.0
  0
LINE
  8
0
 62
     0
 10
0.119889
 20
261.39
 30
0.0
 11
0.150206
 21
261.543
 31
0.0
  0
LINE
  8
0
 62
     0
 10
0.150206
 20
261.543
 30
0.0
 11
0.192925
 21
261.696
 31
0.0
  0
LINE
  8
0
 62
     0
 10
0.192925
 20
261.696
 30
0.0
 11
0.248047
 21
261.842
 31
0.0
  0
LINE
  8
0
 62
     0
 10
0.248047
 20
261.842
 30
0.0
 11
0.312815
 21
261.984
 31
0.0
  0
LINE
  8
0
 62
     0
 10
0.312815
 20
261.984
 30
0.0
 11
0.389985
 21
262.122
 31
0.0
  0
LINE
  8
0
 62
     0
 10
0.389985
 20
262.122
 30
0.0
 11
0.4768
 21
262.253
 31
0.0
  0
LINE
  8
0
 62
     0
 10
0.4768
 20
262.253
 30
0.0
 11
0.574643
 21
262.376
 31
0.0
  0
LINE
  8
0
 62
     0
 10
0.574643
 20
262.376
 30
0.0
 11
0.680752
 21
262.491
 31
0.0
  0
LINE
  8
0
 62
     0
 10
0.680752
 20
262.491
 30
0.0
 11
0.796505
 21
262.598
 31
0.0
  0
LINE
  8
0
 62
     0
 10
0.796505
 20
262.598
 30
0.0
 11
0.919152
 21
262.695
 31
0.0
  0
LINE
  8
0
 62
     0
 10
0.919152
 20
262.695
 30
0.0
 11
1.05006
 21
262.782
 31
0.0
  0
LINE
  8
0
 62
     0
 10
1.05006
 20
262.782
 30
0.0
 11
1.18787
 21
262.859
 31
0.0
  0
LINE
  8
0
 62
     0
 10
1.18787
 20
262.859
 30
0.0
 11
1.32981
 21
262.924
 31
0.0
  0
LINE
  8
0
 62
     0
 10
1.32981
 20
262.924
 30
0.0
 11
1.47588
 21
262.979
 31
0.0
  0
LINE
  8
0
 62
     0
 10
1.47588
 20
262.979
 30
0.0
 11
1.62884
 21
263.022
 31
0.0
  0
LINE
  8
0
 62
     0
 10
1.62884
 20
263.022
 30
0.0
 11
1.7818
 21
263.052
 31
0.0
  0
LINE
  8
0
 62
     0
 10
1.7818
 20
263.052
 30
0.0
 11
1.9389
 21
263.07
 31
0.0
  0
LINE
  8
0
 62
     0
 10
1.9389
 20
263.07
 30
0.0
 11
2.096
 21
263.077
 31
0.0
  0
LINE
  8
0
 62
     0
 10
2.096
 20
263.077
 30
0.0
 11
208.596
 21
263.077
 31
0.0
  0
LINE
  8
0
 62
     0
 10
205.978
 20
6.09092
 30
0.0
 11
205.42
 21
5.80704
 31
0.0
  0
LINE
  8
0
 62
     0
 10
205.42
 20
5.80704
 30
0.0
 11
204.978
 21
5.36469
 31
0.0
  0
LINE
  8
0
 62
     0
 10
204.978
 20
5.36469
 30
0.0
 11
204.694
 21
4.8066
 31
0.0
  0
LINE
  8
0
 62
     0
 10
204.694
 20
4.8066
 30
0.0
 11
204.596
 21
4.18924
 31
0.0
  0
LINE
  8
0
 62
     0
 10
204.596
 20
4.18924
 30
0.0
 11
204.694
 21
3.5705
 31
0.0
  0
LINE
  8
0
 62
     0
 10
204.694
 20
3.5705
 30
0.0
 11
204.978
 21
3.01239
 31
0.0
  0
LINE
  8
0
 62
     0
 10
204.978
 20
3.01239
 30
0.0
 11
205.42
 21
2.57142
 31
0.0
  0
LINE
  8
0
 62
     0
 10
205.42
 20
2.57142
 30
0.0
 11
205.978
 21
2.28617
 31
0.0
  0
LINE
  8
0
 62
     0
 10
205.978
 20
2.28617
 30
0.0
 11
206.597
 21
2.18833
 31
0.0
  0
LINE
  8
0
 62
     0
 10
206.597
 20
2.18833
 30
0.0
 11
207.214
 21
2.28617
 31
0.0
  0
LINE
  8
0
 62
     0
 10
207.214
 20
2.28617
 30
0.0
 11
207.771
 21
2.57142
 31
0.0
  0
LINE
  8
0
 62
     0
 10
207.771
 20
2.57142
 30
0.0
 11
208.215
 21
3.01239
 31
0.0
  0
LINE
  8
0
 62
     0
 10
208.215
 20
3.01239
 30
0.0
 11
208.499
 21
3.5705
 31
0.0
  0
LINE
  8
0
 62
     0
 10
208.499
 20
3.5705
 30
0.0
 11
208.596
 21
4.18924
 31
0.0
  0
LINE
  8
0
 62
     0
 10
208.596
 20
4.18924
 30
0.0
 11
208.499
 21
4.8066
 31
0.0
  0
LINE
  8
0
 62
     0
 10
208.499
 20
4.8066
 30
0.0
 11
208.215
 21
5.36469
 31
0.0
  0
LINE
  8
0
 62
     0
 10
208.215
 20
5.36469
 30
0.0
 11
207.771
 21
5.80704
 31
0.0
  0
LINE
  8
0
 62
     0
 10
207.771
 20
5.80704
 30
0.0
 11
207.214
 21
6.09092
 31
0.0
  0
LINE
  8
0
 62
     0
 10
207.214
 20
6.09092
 30
0.0
 11
206.597
 21
6.19016
 31
0.0
  0
LINE
  8
0
 62
     0
 10
206.597
 20
6.19016
 30
0.0
 11
205.978
 21
6.09092
 31
0.0
  0
LINE
  8
0
 62
     0
 10
3.47679
 20
6.09092
 30
0.0
 11
2.92006
 21
5.80704
 31
0.0
  0
LINE
  8
0
 62
     0
 10
2.92006
 20
5.80704
 30
0.0
 11
2.47633
 21
5.36469
 31
0.0
  0
LINE
  8
0
 62
     0
 10
2.47633
 20
5.36469
 30
0.0
 11
2.19246
 21
4.8066
 31
0.0
  0
LINE
  8
0
 62
     0
 10
2.19246
 20
4.8066
 30
0.0
 11
2.09462
 21
4.18924
 31
0.0
  0
LINE
  8
0
 62
     0
 10
2.09462
 20
4.18924
 30
0.0
 11
2.19246
 21
3.5705
 31
0.0
  0
LINE
  8
0
 62
     0
 10
2.19246
 20
3.5705
 30
0.0
 11
2.47633
 21
3.01239
 31
0.0
  0
LINE
  8
0
 62
     0
 10
2.47633
 20
3.01239
 30
0.0
 11
2.92006
 21
2.57142
 31
0.0
  0
LINE
  8
0
 62
     0
 10
2.92006
 20
2.57142
 30
0.0
 11
3.47679
 21
2.28617
 31
0.0
  0
LINE
  8
0
 62
     0
 10
3.47679
 20
2.28617
 30
0.0
 11
4.09554
 21
2.18833
 31
0.0
  0
LINE
  8
0
 62
     0
 10
4.09554
 20
2.18833
 30
0.0
 11
4.7129
 21
2.28617
 31
0.0
  0
LINE
  8
0
 62
     0
 10
4.7129
 20
2.28617
 30
0.0
 11
5.27099
 21
2.57142
 31
0.0
  0
LINE
  8
0
 62
     0
 10
5.27099
 20
2.57142
 30
0.0
 11
5.71334
 21
3.01239
 31
0.0
  0
LINE
  8
0
 62
     0
 10
5.71334
 20
3.01239
 30
0.0
 11
5.99722
 21
3.5705
 31
0.0
  0
LINE
  8
0
 62
     0
 10
5.99722
 20
3.5705
 30
0.0
 11
6.09505
 21
4.18924
 31
0.0
  0
LINE
  8
0
 62
     0
 10
6.09505
 20
4.18924
 30
0.0
 11
5.99722
 21
4.8066
 31
0.0
  0
LINE
  8
0
 62
     0
 10
5.99722
 20
4.8066
 30
0.0
 11
5.71334
 21
5.36469
 31
0.0
  0
LINE
  8
0
 62
     0
 10
5.71334
 20
5.36469
 30
0.0
 11
5.27099
 21
5.80704
 31
0.0
  0
LINE
  8
0
 62
     0
 10
5.27099
 20
5.80704
 30
0.0
 11
4.7129
 21
6.09092
 31
0.0
  0
LINE
  8
0
 62
     0
 10
4.7129
 20
6.09092
 30
0.0
 11
4.09554
 21
6.19016
 31
0.0
  0
LINE
  8
0
 62
     0
 10
4.09554
 20
6.19016
 30
0.0
 11
3.47679
 21
6.09092
 31
0.0
  0
LINE
  8
0
 62
     0
 10
205.978
 20
133.535
 30
0.0
 11
205.42
 21
133.251
 31
0.0
  0
LINE
  8
0
 62
     0
 10
205.42
 20
133.251
 30
0.0
 11
204.978
 21
132.808
 31
0.0
  0
LINE
  8
0
 62
     0
 10
204.978
 20
132.808
 30
0.0
 11
204.694
 21
132.25
 31
0.0
  0
LINE
  8
0
 62
     0
 10
204.694
 20
132.25
 30
0.0
 11
204.596
 21
131.633
 31
0.0
  0
LINE
  8
0
 62
     0
 10
204.596
 20
131.633
 30
0.0
 11
204.694
 21
131.014
 31
0.0
  0
LINE
  8
0
 62
     0
 10
204.694
 20
131.014
 30
0.0
 11
204.978
 21
130.458
 31
0.0
  0
LINE
  8
0
 62
     0
 10
204.978
 20
130.458
 30
0.0
 11
205.42
 21
130.015
 31
0.0
  0
LINE
  8
0
 62
     0
 10
205.42
 20
130.015
 30
0.0
 11
205.978
 21
129.731
 31
0.0
  0
LINE
  8
0
 62
     0
 10
205.978
 20
129.731
 30
0.0
 11
206.597
 21
129.632
 31
0.0
  0
LINE
  8
0
 62
     0
 10
206.597
 20
129.632
 30
0.0
 11
207.214
 21
129.731
 31
0.0
  0
LINE
  8
0
 62
     0
 10
207.214
 20
129.731
 30
0.0
 11
207.771
 21
130.015
 31
0.0
  0
LINE
  8
0
 62
     0
 10
207.771
 20
130.015
 30
0.0
 11
208.215
 21
130.458
 31
0.0
  0
LINE
  8
0
 62
     0
 10
208.215
 20
130.458
 30
0.0
 11
208.499
 21
131.014
 31
0.0
  0
LINE
  8
0
 62
     0
 10
208.499
 20
131.014
 30
0.0
 11
208.596
 21
131.633
 31
0.0
  0
LINE
  8
0
 62
     0
 10
208.596
 20
131.633
 30
0.0
 11
208.499
 21
132.25
 31
0.0
  0
LINE
  8
0
 62
     0
 10
208.499
 20
132.25
 30
0.0
 11
208.215
 21
132.808
 31
0.0
  0
LINE
  8
0
 62
     0
 10
208.215
 20
132.808
 30
0.0
 11
207.771
 21
133.251
 31
0.0
  0
LINE
  8
0
 62
     0
 10
207.771
 20
133.251
 30
0.0
 11
207.214
 21
133.535
 31
0.0
  0
LINE
  8
0
 62
     0
 10
207.214
 20
133.535
 30
0.0
 11
206.597
 21
133.633
 31
0.0
  0
LINE
  8
0
 62
     0
 10
206.597
 20
133.633
 30
0.0
 11
205.978
 21
133.535
 31
0.0
  0
LINE
  8
0
 62
     0
 10
3.47679
 20
133.535
 30
0.0
 11
2.92006
 21
133.251
 31
0.0
  0
LINE
  8
0
 62
     0
 10
2.92006
 20
133.251
 30
0.0
 11
2.47633
 21
132.808
 31
0.0
  0
LINE
  8
0
 62
     0
 10
2.47633
 20
132.808
 30
0.0
 11
2.19246
 21
132.25
 31
0.0
  0
LINE
  8
0
 62
     0
 10
2.19246
 20
132.25
 30
0.0
 11
2.09462
 21
131.633
 31
0.0
  0
LINE
  8
0
 62
     0
 10
2.09462
 20
131.633
 30
0.0
 11
2.19246
 21
131.014
 31
0.0
  0
LINE
  8
0
 62
     0
 10
2.19246
 20
131.014
 30
0.0
 11
2.47633
 21
130.458
 31
0.0
  0
LINE
  8
0
 62
     0
 10
2.47633
 20
130.458
 30
0.0
 11
2.92006
 21
130.015
 31
0.0
  0
LINE
  8
0
 62
     0
 10
2.92006
 20
130.015
 30
0.0
 11
3.47679
 21
129.731
 31
0.0
  0
LINE
  8
0
 62
     0
 10
3.47679
 20
129.731
 30
0.0
 11
4.09554
 21
129.632
 31
0.0
  0
LINE
  8
0
 62
     0
 10
4.09554
 20
129.632
 30
0.0
 11
4.7129
 21
129.731
 31
0.0
  0
LINE
  8
0
 62
     0
 10
4.7129
 20
129.731
 30
0.0
 11
5.27099
 21
130.015
 31
0.0
  0
LINE
  8
0
 62
     0
 10
5.27099
 20
130.015
 30
0.0
 11
5.71334
 21
130.458
 31
0.0
  0
LINE
  8
0
 62
     0
 10
5.71334
 20
130.458
 30
0.0
 11
5.99722
 21
131.014
 31
0.0
  0
LINE
  8
0
 62
     0
 10
5.99722
 20
131.014
 30
0.0
 11
6.09505
 21
131.633
 31
0.0
  0
LINE
  8
0
 62
     0
 10
6.09505
 20
131.633
 30
0.0
 11
5.99722
 21
132.25
 31
0.0
  0
LINE
  8
0
 62
     0
 10
5.99722
 20
132.25
 30
0.0
 11
5.71334
 21
132.808
 31
0.0
  0
LINE
  8
0
 62
     0
 10
5.71334
 20
132.808
 30
0.0
 11
5.27099
 21
133.251
 31
0.0
  0
LINE
  8
0
 62
     0
 10
5.27099
 20
133.251
 30
0.0
 11
4.7129
 21
133.535
 31
0.0
  0
LINE
  8
0
 62
     0
 10
4.7129
 20
133.535
 30
0.0
 11
4.09554
 21
133.633
 31
0.0
  0
LINE
  8
0
 62
     0
 10
4.09554
 20
133.633
 30
0.0
 11
3.47679
 21
133.535
 31
0.0
  0
LINE
  8
0
 62
     0
 10
205.978
 20
260.98
 30
0.0
 11
205.42
 21
260.696
 31
0.0
  0
LINE
  8
0
 62
     0
 10
205.42
 20
260.696
 30
0.0
 11
204.978
 21
260.252
 31
0.0
  0
LINE
  8
0
 62
     0
 10
204.978
 20
260.252
 30
0.0
 11
204.694
 21
259.696
 31
0.0
  0
LINE
  8
0
 62
     0
 10
204.694
 20
259.696
 30
0.0
 11
204.596
 21
259.077
 31
0.0
  0
LINE
  8
0
 62
     0
 10
204.596
 20
259.077
 30
0.0
 11
204.694
 21
258.459
 31
0.0
  0
LINE
  8
0
 62
     0
 10
204.694
 20
258.459
 30
0.0
 11
204.978
 21
257.901
 31
0.0
  0
LINE
  8
0
 62
     0
 10
204.978
 20
257.901
 30
0.0
 11
205.42
 21
257.459
 31
0.0
  0
LINE
  8
0
 62
     0
 10
205.42
 20
257.459
 30
0.0
 11
205.978
 21
257.175
 31
0.0
  0
LINE
  8
0
 62
     0
 10
205.978
 20
257.175
 30
0.0
 11
206.597
 21
257.077
 31
0.0
  0
LINE
  8
0
 62
     0
 10
206.597
 20
257.077
 30
0.0
 11
207.214
 21
257.175
 31
0.0
  0
LINE
  8
0
 62
     0
 10
207.214
 20
257.175
 30
0.0
 11
207.771
 21
257.459
 31
0.0
  0
LINE
  8
0
 62
     0
 10
207.771
 20
257.459
 30
0.0
 11
208.215
 21
257.901
 31
0.0
  0
LINE
  8
0
 62
     0
 10
208.215
 20
257.901
 30
0.0
 11
208.499
 21
258.459
 31
0.0
  0
LINE
  8
0
 62
     0
 10
208.499
 20
258.459
 30
0.0
 11
208.596
 21
259.077
 31
0.0
  0
LINE
  8
0
 62
     0
 10
208.596
 20
259.077
 30
0.0
 11
208.499
 21
259.696
 31
0.0
  0
LINE
  8
0
 62
     0
 10
208.499
 20
259.696
 30
0.0
 11
208.215
 21
260.252
 31
0.0
  0
LINE
  8
0
 62
     0
 10
208.215
 20
260.252
 30
0.0
 11
207.771
 21
260.696
 31
0.0
  0
LINE
  8
0
 62
     0
 10
207.771
 20
260.696
 30
0.0
 11
207.214
 21
260.98
 31
0.0
  0
LINE
  8
0
 62
     0
 10
207.214
 20
260.98
 30
0.0
 11
206.597
 21
261.076
 31
0.0
  0
LINE
  8
0
 62
     0
 10
206.597
 20
261.076
 30
0.0
 11
205.978
 21
260.98
 31
0.0
  0
LINE
  8
0
 62
     0
 10
3.47679
 20
260.98
 30
0.0
 11
2.92006
 21
260.696
 31
0.0
  0
LINE
  8
0
 62
     0
 10
2.92006
 20
260.696
 30
0.0
 11
2.47633
 21
260.252
 31
0.0
  0
LINE
  8
0
 62
     0
 10
2.47633
 20
260.252
 30
0.0
 11
2.19246
 21
259.696
 31
0.0
  0
LINE
  8
0
 62
     0
 10
2.19246
 20
259.696
 30
0.0
 11
2.09462
 21
259.077
 31
0.0
  0
LINE
  8
0
 62
     0
 10
2.09462
 20
259.077
 30
0.0
 11
2.19246
 21
258.459
 31
0.0
  0
LINE
  8
0
 62
     0
 10
2.19246
 20
258.459
 30
0.0
 11
2.47633
 21
257.901
 31
0.0
  0
LINE
  8
0
 62
     0
 10
2.47633
 20
257.901
 30
0.0
 11
2.92006
 21
257.459
 31
0.0
  0
LINE
  8
0
 62
     0
 10
2.92006
 20
257.459
 30
0.0
 11
3.47679
 21
257.175
 31
0.0
  0
LINE
  8
0
 62
     0
 10
3.47679
 20
257.175
 30
0.0
 11
4.09554
 21
257.077
 31
0.0
  0
LINE
  8
0
 62
     0
 10
4.09554
 20
257.077
 30
0.0
 11
4.7129
 21
257.175
 31
0.0
  0
LINE
  8
0
 62
     0
 10
4.7129
 20
257.175
 30
0.0
 11
5.27099
 21
257.459
 31
0.0
  0
LINE
  8
0
 62
     0
 10
5.27099
 20
257.459
 30
0.0
 11
5.71334
 21
257.901
 31
0.0
  0
LINE
  8
0
 62
     0
 10
5.71334
 20
257.901
 30
0.0
 11
5.99722
 21
258.459
 31
0.0
  0
LINE
  8
0
 62
     0
 10
5.99722
 20
258.459
 30
0.0
 11
6.09505
 21
259.077
 31
0.0
  0
LINE
  8
0
 62
     0
 10
6.09505
 20
259.077
 30
0.0
 11
5.99722
 21
259.696
 31
0.0
  0
LINE
  8
0
 62
     0
 10
5.99722
 20
259.696
 30
0.0
 11
5.71334
 21
260.252
 31
0.0
  0
LINE
  8
0
 62
     0
 10
5.71334
 20
260.252
 30
0.0
 11
5.27099
 21
260.696
 31
0.0
  0
LINE
  8
0
 62
     0
 10
5.27099
 20
260.696
 30
0.0
 11
4.7129
 21
260.98
 31
0.0
  0
LINE
  8
0
 62
     0
 10
4.7129
 20
260.98
 30
0.0
 11
4.09554
 21
261.076
 31
0.0
  0
LINE
  8
0
 62
     0
 10
4.09554
 20
261.076
 30
0.0
 11
3.47679
 21
260.98
 31
0.0
  0
ENDSEC
  0
EOF
