  0
SECTION
  2
HEADER
  9
$ACADVER
  1
AC1009
  9
$FILLMODE
 70
 0
  9
$SPLFRAME
 70
 1
  9
$EXTMIN
 10
0
 20
0
 30
0.0
  9
$EXTMAX
 10
1058.33
 20
1058.33
 30
0.0
  0
ENDSEC
  0
SECTION
  2
TABLES
  0
TABLE
  2
LAYER
 70
1
  0
LAYER
  2
0
 70
     0
 62
     7
  6
CONTINUOUS
  0
ENDTAB
  0
ENDSEC
  0
SECTION
  2
ENTITIES
  0
LINE
  8
0
 62
     0
 10
208.596
 20
263.077
 30
0.0
 11
208.752
 21
263.07
 31
0.0
  0
LINE
  8
0
 62
     0
 10
208.752
 20
263.07
 30
0.0
 11
208.908
 21
263.052
 31
0.0
  0
LINE
  8
0
 62
     0
 10
208.908
 20
263.052
 30
0.0
 11
209.062
 21
263.022
 31
0.0
  0
LINE
  8
0
 62
     0
 10
209.062
 20
263.022
 30
0.0
 11
209.215
 21
262.979
 31
0.0
  0
LINE
  8
0
 62
     0
 10
209.215
 20
262.979
 30
0.0
 11
209.361
 21
262.924
 31
0.0
  0
LINE
  8
0
 62
     0
 10
209.361
 20
262.924
 30
0.0
 11
209.503
 21
262.859
 31
0.0
  0
LINE
  8
0
 62
     0
 10
209.503
 20
262.859
 30
0.0
 11
209.641
 21
262.782
 31
0.0
  0
LINE
  8
0
 62
     0
 10
209.641
 20
262.782
 30
0.0
 11
209.772
 21
262.695
 31
0.0
  0
LINE
  8
0
 62
     0
 10
209.772
 20
262.695
 30
0.0
 11
209.895
 21
262.598
 31
0.0
  0
LINE
  8
0
 62
     0
 10
209.895
 20
262.598
 30
0.0
 11
210.01
 21
262.491
 31
0.0
  0
LINE
  8
0
 62
     0
 10
210.01
 20
262.491
 30
0.0
 11
210.116
 21
262.376
 31
0.0
  0
LINE
  8
0
 62
     0
 10
210.116
 20
262.376
 30
0.0
 11
210.214
 21
262.253
 31
0.0
  0
LINE
  8
0
 62
     0
 10
210.214
 20
262.253
 30
0.0
 11
210.301
 21
262.122
 31
0.0
  0
LINE
  8
0
 62
     0
 10
210.301
 20
262.122
 30
0.0
 11
210.378
 21
261.984
 31
0.0
  0
LINE
  8
0
 62
     0
 10
210.378
 20
261.984
 30
0.0
 11
210.443
 21
261.842
 31
0.0
  0
LINE
  8
0
 62
     0
 10
210.443
 20
261.842
 30
0.0
 11
210.498
 21
261.696
 31
0.0
  0
LINE
  8
0
 62
     0
 10
210.498
 20
261.696
 30
0.0
 11
210.541
 21
261.543
 31
0.0
  0
LINE
  8
0
 62
     0
 10
210.541
 20
261.543
 30
0.0
 11
210.571
 21
261.39
 31
0.0
  0
LINE
  8
0
 62
     0
 10
210.571
 20
261.39
 30
0.0
 11
210.589
 21
261.233
 31
0.0
  0
LINE
  8
0
 62
     0
 10
210.589
 20
261.233
 30
0.0
 11
210.596
 21
261.076
 31
0.0
  0
LINE
  8
0
 62
     0
 10
210.596
 20
261.076
 30
0.0
 11
210.596
 21
2.18833
 31
0.0
  0
LINE
  8
0
 62
     0
 10
210.596
 20
2.18833
 30
0.0
 11
210.589
 21
2.03123
 31
0.0
  0
LINE
  8
0
 62
     0
 10
210.589
 20
2.03123
 30
0.0
 11
210.571
 21
1.87551
 31
0.0
  0
LINE
  8
0
 62
     0
 10
210.571
 20
1.87551
 30
0.0
 11
210.541
 21
1.72117
 31
0.0
  0
LINE
  8
0
 62
     0
 10
210.541
 20
1.72117
 30
0.0
 11
210.498
 21
1.57097
 31
0.0
  0
LINE
  8
0
 62
     0
 10
210.498
 20
1.57097
 30
0.0
 11
210.443
 21
1.42351
 31
0.0
  0
LINE
  8
0
 62
     0
 10
210.443
 20
1.42351
 30
0.0
 11
210.378
 21
1.2802
 31
0.0
  0
LINE
  8
0
 62
     0
 10
210.378
 20
1.2802
 30
0.0
 11
210.301
 21
1.14377
 31
0.0
  0
LINE
  8
0
 62
     0
 10
210.301
 20
1.14377
 30
0.0
 11
210.214
 21
1.01286
 31
0.0
  0
LINE
  8
0
 62
     0
 10
210.214
 20
1.01286
 30
0.0
 11
210.116
 21
0.890214
 31
0.0
  0
LINE
  8
0
 62
     0
 10
210.116
 20
0.890214
 30
0.0
 11
210.01
 21
0.774457
 31
0.0
  0
LINE
  8
0
 62
     0
 10
210.01
 20
0.774457
 30
0.0
 11
209.895
 21
0.668348
 31
0.0
  0
LINE
  8
0
 62
     0
 10
209.895
 20
0.668348
 30
0.0
 11
209.772
 21
0.570509
 31
0.0
  0
LINE
  8
0
 62
     0
 10
209.772
 20
0.570509
 30
0.0
 11
209.641
 21
0.48369
 31
0.0
  0
LINE
  8
0
 62
     0
 10
209.641
 20
0.48369
 30
0.0
 11
209.503
 21
0.40652
 31
0.0
  0
LINE
  8
0
 62
     0
 10
209.503
 20
0.40652
 30
0.0
 11
209.361
 21
0.340376
 31
0.0
  0
LINE
  8
0
 62
     0
 10
209.361
 20
0.340376
 30
0.0
 11
209.215
 21
0.286632
 31
0.0
  0
LINE
  8
0
 62
     0
 10
209.215
 20
0.286632
 30
0.0
 11
209.062
 21
0.243913
 31
0.0
  0
LINE
  8
0
 62
     0
 10
209.062
 20
0.243913
 30
0.0
 11
208.908
 21
0.213596
 31
0.0
  0
LINE
  8
0
 62
     0
 10
208.908
 20
0.213596
 30
0.0
 11
208.752
 21
0.194303
 31
0.0
  0
LINE
  8
0
 62
     0
 10
208.752
 20
0.194303
 30
0.0
 11
208.596
 21
0.188791
 31
0.0
  0
LINE
  8
0
 62
     0
 10
208.596
 20
0.188791
 30
0.0
 11
2.096
 21
0.188791
 31
0.0
  0
LINE
  8
0
 62
     0
 10
2.096
 20
0.188791
 30
0.0
 11
1.9389
 21
0.194303
 31
0.0
  0
LINE
  8
0
 62
     0
 10
1.9389
 20
0.194303
 30
0.0
 11
1.7818
 21
0.213596
 31
0.0
  0
LINE
  8
0
 62
     0
 10
1.7818
 20
0.213596
 30
0.0
 11
1.62884
 21
0.243913
 31
0.0
  0
LINE
  8
0
 62
     0
 10
1.62884
 20
0.243913
 30
0.0
 11
1.47588
 21
0.286632
 31
0.0
  0
LINE
  8
0
 62
     0
 10
1.47588
 20
0.286632
 30
0.0
 11
1.32981
 21
0.340376
 31
0.0
  0
LINE
  8
0
 62
     0
 10
1.32981
 20
0.340376
 30
0.0
 11
1.18787
 21
0.40652
 31
0.0
  0
LINE
  8
0
 62
     0
 10
1.18787
 20
0.40652
 30
0.0
 11
1.05006
 21
0.48369
 31
0.0
  0
LINE
  8
0
 62
     0
 10
1.05006
 20
0.48369
 30
0.0
 11
0.919152
 21
0.570509
 31
0.0
  0
LINE
  8
0
 62
     0
 10
0.919152
 20
0.570509
 30
0.0
 11
0.796505
 21
0.668348
 31
0.0
  0
LINE
  8
0
 62
     0
 10
0.796505
 20
0.668348
 30
0.0
 11
0.680752
 21
0.774457
 31
0.0
  0
LINE
  8
0
 62
     0
 10
0.680752
 20
0.774457
 30
0.0
 11
0.574643
 21
0.890214
 31
0.0
  0
LINE
  8
0
 62
     0
 10
0.574643
 20
0.890214
 30
0.0
 11
0.4768
 21
1.01286
 31
0.0
  0
LINE
  8
0
 62
     0
 10
0.4768
 20
1.01286
 30
0.0
 11
0.389985
 21
1.14377
 31
0.0
  0
LINE
  8
0
 62
     0
 10
0.389985
 20
1.14377
 30
0.0
 11
0.312815
 21
1.2802
 31
0.0
  0
LINE
  8
0
 62
     0
 10
0.312815
 20
1.2802
 30
0.0
 11
0.248047
 21
1.42351
 31
0.0
  0
LINE
  8
0
 62
     0
 10
0.248047
 20
1.42351
 30
0.0
 11
0.192925
 21
1.57097
 31
0.0
  0
LINE
  8
0
 62
     0
 10
0.192925
 20
1.57097
 30
0.0
 11
0.150206
 21
1.72117
 31
0.0
  0
LINE
  8
0
 62
     0
 10
0.150206
 20
1.72117
 30
0.0
 11
0.119889
 21
1.87551
 31
0.0
  0
LINE
  8
0
 62
     0
 10
0.119889
 20
1.87551
 30
0.0
 11
0.101975
 21
2.03123
 31
0.0
  0
LINE
  8
0
 62
     0
 10
0.101975
 20
2.03123
 30
0.0
 11
0.0950846
 21
2.18833
 31
0.0
  0
LINE
  8
0
 62
     0
 10
0.0950846
 20
2.18833
 30
0.0
 11
0.0950846
 21
261.076
 31
0.0
  0
LINE
  8
0
 62
     0
 10
0.0950846
 20
261.076
 30
0.0
 11
0.101975
 21
261.233
 31
0.0
  0
LINE
  8
0
 62
     0
 10
0.101975
 20
261.233
 30
0.0
 11
0.119889
 21
261.39
 31
0.0
  0
LINE
  8
0
 62
     0
 10
0.119889
 20
261.39
 30
0.0
 11
0.150206
 21
261.543
 31
0.0
  0
LINE
  8
0
 62
     0
 10
0.150206
 20
261.543
 30
0.0
 11
0.192925
 21
261.696
 31
0.0
  0
LINE
  8
0
 62
     0
 10
0.192925
 20
261.696
 30
0.0
 11
0.248047
 21
261.842
 31
0.0
  0
LINE
  8
0
 62
     0
 10
0.248047
 20
261.842
 30
0.0
 11
0.312815
 21
261.984
 31
0.0
  0
LINE
  8
0
 62
     0
 10
0.312815
 20
261.984
 30
0.0
 11
0.389985
 21
262.122
 31
0.0
  0
LINE
  8
0
 62
     0
 10
0.389985
 20
262.122
 30
0.0
 11
0.4768
 21
262.253
 31
0.0
  0
LINE
  8
0
 62
     0
 10
0.4768
 20
262.253
 30
0.0
 11
0.574643
 21
262.376
 31
0.0
  0
LINE
  8
0
 62
     0
 10
0.574643
 20
262.376
 30
0.0
 11
0.680752
 21
262.491
 31
0.0
  0
LINE
  8
0
 62
     0
 10
0.680752
 20
262.491
 30
0.0
 11
0.796505
 21
262.598
 31
0.0
  0
LINE
  8
0
 62
     0
 10
0.796505
 20
262.598
 30
0.0
 11
0.919152
 21
262.695
 31
0.0
  0
LINE
  8
0
 62
     0
 10
0.919152
 20
262.695
 30
0.0
 11
1.05006
 21
262.782
 31
0.0
  0
LINE
  8
0
 62
     0
 10
1.05006
 20
262.782
 30
0.0
 11
1.18787
 21
262.859
 31
0.0
  0
LINE
  8
0
 62
     0
 10
1.18787
 20
262.859
 30
0.0
 11
1.32981
 21
262.924
 31
0.0
  0
LINE
  8
0
 62
     0
 10
1.32981
 20
262.924
 30
0.0
 11
1.47588
 21
262.979
 31
0.0
  0
LINE
  8
0
 62
     0
 10
1.47588
 20
262.979
 30
0.0
 11
1.62884
 21
263.022
 31
0.0
  0
LINE
  8
0
 62
     0
 10
1.62884
 20
263.022
 30
0.0
 11
1.7818
 21
263.052
 31
0.0
  0
LINE
  8
0
 62
     0
 10
1.7818
 20
263.052
 30
0.0
 11
1.9389
 21
263.07
 31
0.0
  0
LINE
  8
0
 62
     0
 10
1.9389
 20
263.07
 30
0.0
 11
2.096
 21
263.077
 31
0.0
  0
LINE
  8
0
 62
     0
 10
2.096
 20
263.077
 30
0.0
 11
208.596
 21
263.077
 31
0.0
  0
LINE
  8
0
 62
     0
 10
205.978
 20
6.09092
 30
0.0
 11
205.42
 21
5.80704
 31
0.0
  0
LINE
  8
0
 62
     0
 10
205.42
 20
5.80704
 30
0.0
 11
204.978
 21
5.36469
 31
0.0
  0
LINE
  8
0
 62
     0
 10
204.978
 20
5.36469
 30
0.0
 11
204.694
 21
4.8066
 31
0.0
  0
LINE
  8
0
 62
     0
 10
204.694
 20
4.8066
 30
0.0
 11
204.596
 21
4.18924
 31
0.0
  0
LINE
  8
0
 62
     0
 10
204.596
 20
4.18924
 30
0.0
 11
204.694
 21
3.5705
 31
0.0
  0
LINE
  8
0
 62
     0
 10
204.694
 20
3.5705
 30
0.0
 11
204.978
 21
3.01239
 31
0.0
  0
LINE
  8
0
 62
     0
 10
204.978
 20
3.01239
 30
0.0
 11
205.42
 21
2.57142
 31
0.0
  0
LINE
  8
0
 62
     0
 10
205.42
 20
2.57142
 30
0.0
 11
205.978
 21
2.28617
 31
0.0
  0
LINE
  8
0
 62
     0
 10
205.978
 20
2.28617
 30
0.0
 11
206.597
 21
2.18833
 31
0.0
  0
LINE
  8
0
 62
     0
 10
206.597
 20
2.18833
 30
0.0
 11
207.214
 21
2.28617
 31
0.0
  0
LINE
  8
0
 62
     0
 10
207.214
 20
2.28617
 30
0.0
 11
207.771
 21
2.57142
 31
0.0
  0
LINE
  8
0
 62
     0
 10
207.771
 20
2.57142
 30
0.0
 11
208.215
 21
3.01239
 31
0.0
  0
LINE
  8
0
 62
     0
 10
208.215
 20
3.01239
 30
0.0
 11
208.499
 21
3.5705
 31
0.0
  0
LINE
  8
0
 62
     0
 10
208.499
 20
3.5705
 30
0.0
 11
208.596
 21
4.18924
 31
0.0
  0
LINE
  8
0
 62
     0
 10
208.596
 20
4.18924
 30
0.0
 11
208.499
 21
4.8066
 31
0.0
  0
LINE
  8
0
 62
     0
 10
208.499
 20
4.8066
 30
0.0
 11
208.215
 21
5.36469
 31
0.0
  0
LINE
  8
0
 62
     0
 10
208.215
 20
5.36469
 30
0.0
 11
207.771
 21
5.80704
 31
0.0
  0
LINE
  8
0
 62
     0
 10
207.771
 20
5.80704
 30
0.0
 11
207.214
 21
6.09092
 31
0.0
  0
LINE
  8
0
 62
     0
 10
207.214
 20
6.09092
 30
0.0
 11
206.597
 21
6.19016
 31
0.0
  0
LINE
  8
0
 62
     0
 10
206.597
 20
6.19016
 30
0.0
 11
205.978
 21
6.09092
 31
0.0
  0
LINE
  8
0
 62
     0
 10
3.47679
 20
6.09092
 30
0.0
 11
2.92006
 21
5.80704
 31
0.0
  0
LINE
  8
0
 62
     0
 10
2.92006
 20
5.80704
 30
0.0
 11
2.47633
 21
5.36469
 31
0.0
  0
LINE
  8
0
 62
     0
 10
2.47633
 20
5.36469
 30
0.0
 11
2.19246
 21
4.8066
 31
0.0
  0
LINE
  8
0
 62
     0
 10
2.19246
 20
4.8066
 30
0.0
 11
2.09462
 21
4.18924
 31
0.0
  0
LINE
  8
0
 62
     0
 10
2.09462
 20
4.18924
 30
0.0
 11
2.19246
 21
3.5705
 31
0.0
  0
LINE
  8
0
 62
     0
 10
2.19246
 20
3.5705
 30
0.0
 11
2.47633
 21
3.01239
 31
0.0
  0
LINE
  8
0
 62
     0
 10
2.47633
 20
3.01239
 30
0.0
 11
2.92006
 21
2.57142
 31
0.0
  0
LINE
  8
0
 62
     0
 10
2.92006
 20
2.57142
 30
0.0
 11
3.47679
 21
2.28617
 31
0.0
  0
LINE
  8
0
 62
     0
 10
3.47679
 20
2.28617
 30
0.0
 11
4.09554
 21
2.18833
 31
0.0
  0
LINE
  8
0
 62
     0
 10
4.09554
 20
2.18833
 30
0.0
 11
4.7129
 21
2.28617
 31
0.0
  0
LINE
  8
0
 62
     0
 10
4.7129
 20
2.28617
 30
0.0
 11
5.27099
 21
2.57142
 31
0.0
  0
LINE
  8
0
 62
     0
 10
5.27099
 20
2.57142
 30
0.0
 11
5.71334
 21
3.01239
 31
0.0
  0
LINE
  8
0
 62
     0
 10
5.71334
 20
3.01239
 30
0.0
 11
5.99722
 21
3.5705
 31
0.0
  0
LINE
  8
0
 62
     0
 10
5.99722
 20
3.5705
 30
0.0
 11
6.09505
 21
4.18924
 31
0.0
  0
LINE
  8
0
 62
     0
 10
6.09505
 20
4.18924
 30
0.0
 11
5.99722
 21
4.8066
 31
0.0
  0
LINE
  8
0
 62
     0
 10
5.99722
 20
4.8066
 30
0.0
 11
5.71334
 21
5.36469
 31
0.0
  0
LINE
  8
0
 62
     0
 10
5.71334
 20
5.36469
 30
0.0
 11
5.27099
 21
5.80704
 31
0.0
  0
LINE
  8
0
 62
     0
 10
5.27099
 20
5.80704
 30
0.0
 11
4.7129
 21
6.09092
 31
0.0
  0
LINE
  8
0
 62
     0
 10
4.7129
 20
6.09092
 30
0.0
 11
4.09554
 21
6.19016
 31
0.0
  0
LINE
  8
0
 62
     0
 10
4.09554
 20
6.19016
 30
0.0
 11
3.47679
 21
6.09092
 31
0.0
  0
LINE
  8
0
 62
     0
 10
107.87
 20
26.7147
 30
0.0
 11
107.87
 21
25.7142
 31
0.0
  0
LINE
  8
0
 62
     0
 10
107.87
 20
25.7142
 30
0.0
 11
107.071
 21
25.7142
 31
0.0
  0
LINE
  8
0
 62
     0
 10
107.071
 20
25.7142
 30
0.0
 11
107.071
 21
22.615
 31
0.0
  0
LINE
  8
0
 62
     0
 10
107.071
 20
22.615
 30
0.0
 11
107.87
 21
22.615
 31
0.0
  0
LINE
  8
0
 62
     0
 10
107.87
 20
22.615
 30
0.0
 11
107.87
 21
22.0141
 31
0.0
  0
LINE
  8
0
 62
     0
 10
107.87
 20
22.0141
 30
0.0
 11
106.346
 21
22.0141
 31
0.0
  0
LINE
  8
0
 62
     0
 10
106.346
 20
22.0141
 30
0.0
 11
106.346
 21
25.2443
 31
0.0
  0
LINE
  8
0
 62
     0
 10
106.346
 20
25.2443
 30
0.0
 11
99.5948
 21
25.2443
 31
0.0
  0
LINE
  8
0
 62
     0
 10
99.5948
 20
25.2443
 30
0.0
 11
99.5948
 21
22.0141
 31
0.0
  0
LINE
  8
0
 62
     0
 10
99.5948
 20
22.0141
 30
0.0
 11
98.7707
 21
22.0141
 31
0.0
  0
LINE
  8
0
 62
     0
 10
98.7707
 20
22.0141
 30
0.0
 11
98.7707
 21
19.2154
 31
0.0
  0
LINE
  8
0
 62
     0
 10
98.7707
 20
19.2154
 30
0.0
 11
99.5948
 21
19.2154
 31
0.0
  0
LINE
  8
0
 62
     0
 10
99.5948
 20
19.2154
 30
0.0
 11
99.5948
 21
12.9453
 31
0.0
  0
LINE
  8
0
 62
     0
 10
99.5948
 20
12.9453
 30
0.0
 11
101.32
 21
12.9453
 31
0.0
  0
LINE
  8
0
 62
     0
 10
101.32
 20
12.9453
 30
0.0
 11
101.32
 21
11.745
 31
0.0
  0
LINE
  8
0
 62
     0
 10
101.32
 20
11.745
 30
0.0
 11
104.621
 21
11.745
 31
0.0
  0
LINE
  8
0
 62
     0
 10
104.621
 20
11.745
 30
0.0
 11
104.621
 21
12.9453
 31
0.0
  0
LINE
  8
0
 62
     0
 10
104.621
 20
12.9453
 30
0.0
 11
106.346
 21
12.9453
 31
0.0
  0
LINE
  8
0
 62
     0
 10
106.346
 20
12.9453
 30
0.0
 11
106.346
 21
17.4143
 31
0.0
  0
LINE
  8
0
 62
     0
 10
106.346
 20
17.4143
 30
0.0
 11
107.87
 21
17.4143
 31
0.0
  0
LINE
  8
0
 62
     0
 10
107.87
 20
17.4143
 30
0.0
 11
107.87
 21
16.8148
 31
0.0
  0
LINE
  8
0
 62
     0
 10
107.87
 20
16.8148
 30
0.0
 11
107.071
 21
16.8148
 31
0.0
  0
LINE
  8
0
 62
     0
 10
107.071
 20
16.8148
 30
0.0
 11
107.071
 21
13.7142
 31
0.0
  0
LINE
  8
0
 62
     0
 10
107.071
 20
13.7142
 30
0.0
 11
107.87
 21
13.7142
 31
0.0
  0
LINE
  8
0
 62
     0
 10
107.87
 20
13.7142
 30
0.0
 11
107.87
 21
12.7152
 31
0.0
  0
LINE
  8
0
 62
     0
 10
107.87
 20
12.7152
 30
0.0
 11
121.871
 21
12.7152
 31
0.0
  0
LINE
  8
0
 62
     0
 10
121.871
 20
12.7152
 30
0.0
 11
121.871
 21
13.7142
 31
0.0
  0
LINE
  8
0
 62
     0
 10
121.871
 20
13.7142
 30
0.0
 11
122.67
 21
13.7142
 31
0.0
  0
LINE
  8
0
 62
     0
 10
122.67
 20
13.7142
 30
0.0
 11
122.67
 21
16.8148
 31
0.0
  0
LINE
  8
0
 62
     0
 10
122.67
 20
16.8148
 30
0.0
 11
121.871
 21
16.8148
 31
0.0
  0
LINE
  8
0
 62
     0
 10
121.871
 20
16.8148
 30
0.0
 11
121.871
 21
17.4143
 31
0.0
  0
LINE
  8
0
 62
     0
 10
121.871
 20
17.4143
 30
0.0
 11
123.395
 21
17.4143
 31
0.0
  0
LINE
  8
0
 62
     0
 10
123.395
 20
17.4143
 30
0.0
 11
123.395
 21
12.9453
 31
0.0
  0
LINE
  8
0
 62
     0
 10
123.395
 20
12.9453
 30
0.0
 11
125.12
 21
12.9453
 31
0.0
  0
LINE
  8
0
 62
     0
 10
125.12
 20
12.9453
 30
0.0
 11
125.12
 21
11.745
 31
0.0
  0
LINE
  8
0
 62
     0
 10
125.12
 20
11.745
 30
0.0
 11
128.421
 21
11.745
 31
0.0
  0
LINE
  8
0
 62
     0
 10
128.421
 20
11.745
 30
0.0
 11
128.421
 21
12.9453
 31
0.0
  0
LINE
  8
0
 62
     0
 10
128.421
 20
12.9453
 30
0.0
 11
130.146
 21
12.9453
 31
0.0
  0
LINE
  8
0
 62
     0
 10
130.146
 20
12.9453
 30
0.0
 11
130.146
 21
19.2154
 31
0.0
  0
LINE
  8
0
 62
     0
 10
130.146
 20
19.2154
 30
0.0
 11
130.97
 21
19.2154
 31
0.0
  0
LINE
  8
0
 62
     0
 10
130.97
 20
19.2154
 30
0.0
 11
130.97
 21
22.0141
 31
0.0
  0
LINE
  8
0
 62
     0
 10
130.97
 20
22.0141
 30
0.0
 11
130.146
 21
22.0141
 31
0.0
  0
LINE
  8
0
 62
     0
 10
130.146
 20
22.0141
 30
0.0
 11
130.146
 21
25.2443
 31
0.0
  0
LINE
  8
0
 62
     0
 10
130.146
 20
25.2443
 30
0.0
 11
123.395
 21
25.2443
 31
0.0
  0
LINE
  8
0
 62
     0
 10
123.395
 20
25.2443
 30
0.0
 11
123.395
 21
22.0141
 31
0.0
  0
LINE
  8
0
 62
     0
 10
123.395
 20
22.0141
 30
0.0
 11
121.871
 21
22.0141
 31
0.0
  0
LINE
  8
0
 62
     0
 10
121.871
 20
22.0141
 30
0.0
 11
121.871
 21
22.615
 31
0.0
  0
LINE
  8
0
 62
     0
 10
121.871
 20
22.615
 30
0.0
 11
122.67
 21
22.615
 31
0.0
  0
LINE
  8
0
 62
     0
 10
122.67
 20
22.615
 30
0.0
 11
122.67
 21
25.7142
 31
0.0
  0
LINE
  8
0
 62
     0
 10
122.67
 20
25.7142
 30
0.0
 11
121.871
 21
25.7142
 31
0.0
  0
LINE
  8
0
 62
     0
 10
121.871
 20
25.7142
 30
0.0
 11
121.871
 21
26.7147
 31
0.0
  0
LINE
  8
0
 62
     0
 10
121.871
 20
26.7147
 30
0.0
 11
107.87
 21
26.7147
 31
0.0
  0
LINE
  8
0
 62
     0
 10
12.6201
 20
26.7147
 30
0.0
 11
12.6201
 21
25.7142
 31
0.0
  0
LINE
  8
0
 62
     0
 10
12.6201
 20
25.7142
 30
0.0
 11
11.8194
 21
25.7142
 31
0.0
  0
LINE
  8
0
 62
     0
 10
11.8194
 20
25.7142
 30
0.0
 11
11.8194
 21
22.615
 31
0.0
  0
LINE
  8
0
 62
     0
 10
11.8194
 20
22.615
 30
0.0
 11
12.6201
 21
22.615
 31
0.0
  0
LINE
  8
0
 62
     0
 10
12.6201
 20
22.615
 30
0.0
 11
12.6201
 21
16.8148
 31
0.0
  0
LINE
  8
0
 62
     0
 10
12.6201
 20
16.8148
 30
0.0
 11
11.8194
 21
16.8148
 31
0.0
  0
LINE
  8
0
 62
     0
 10
11.8194
 20
16.8148
 30
0.0
 11
11.8194
 21
13.7142
 31
0.0
  0
LINE
  8
0
 62
     0
 10
11.8194
 20
13.7142
 30
0.0
 11
12.6201
 21
13.7142
 31
0.0
  0
LINE
  8
0
 62
     0
 10
12.6201
 20
13.7142
 30
0.0
 11
12.6201
 21
12.7152
 31
0.0
  0
LINE
  8
0
 62
     0
 10
12.6201
 20
12.7152
 30
0.0
 11
26.6209
 21
12.7152
 31
0.0
  0
LINE
  8
0
 62
     0
 10
26.6209
 20
12.7152
 30
0.0
 11
26.6209
 21
13.7142
 31
0.0
  0
LINE
  8
0
 62
     0
 10
26.6209
 20
13.7142
 30
0.0
 11
27.4188
 21
13.7142
 31
0.0
  0
LINE
  8
0
 62
     0
 10
27.4188
 20
13.7142
 30
0.0
 11
27.4188
 21
16.8148
 31
0.0
  0
LINE
  8
0
 62
     0
 10
27.4188
 20
16.8148
 30
0.0
 11
26.6209
 21
16.8148
 31
0.0
  0
LINE
  8
0
 62
     0
 10
26.6209
 20
16.8148
 30
0.0
 11
26.6209
 21
22.615
 31
0.0
  0
LINE
  8
0
 62
     0
 10
26.6209
 20
22.615
 30
0.0
 11
27.4188
 21
22.615
 31
0.0
  0
LINE
  8
0
 62
     0
 10
27.4188
 20
22.615
 30
0.0
 11
27.4188
 21
25.7142
 31
0.0
  0
LINE
  8
0
 62
     0
 10
27.4188
 20
25.7142
 30
0.0
 11
26.6209
 21
25.7142
 31
0.0
  0
LINE
  8
0
 62
     0
 10
26.6209
 20
25.7142
 30
0.0
 11
26.6209
 21
26.7147
 31
0.0
  0
LINE
  8
0
 62
     0
 10
26.6209
 20
26.7147
 30
0.0
 11
12.6201
 21
26.7147
 31
0.0
  0
LINE
  8
0
 62
     0
 10
60.2449
 20
26.7147
 30
0.0
 11
60.2449
 21
25.7142
 31
0.0
  0
LINE
  8
0
 62
     0
 10
60.2449
 20
25.7142
 30
0.0
 11
59.4445
 21
25.7142
 31
0.0
  0
LINE
  8
0
 62
     0
 10
59.4445
 20
25.7142
 30
0.0
 11
59.4445
 21
22.615
 31
0.0
  0
LINE
  8
0
 62
     0
 10
59.4445
 20
22.615
 30
0.0
 11
60.2449
 21
22.615
 31
0.0
  0
LINE
  8
0
 62
     0
 10
60.2449
 20
22.615
 30
0.0
 11
60.2449
 21
16.8148
 31
0.0
  0
LINE
  8
0
 62
     0
 10
60.2449
 20
16.8148
 30
0.0
 11
59.4445
 21
16.8148
 31
0.0
  0
LINE
  8
0
 62
     0
 10
59.4445
 20
16.8148
 30
0.0
 11
59.4445
 21
13.7142
 31
0.0
  0
LINE
  8
0
 62
     0
 10
59.4445
 20
13.7142
 30
0.0
 11
60.2449
 21
13.7142
 31
0.0
  0
LINE
  8
0
 62
     0
 10
60.2449
 20
13.7142
 30
0.0
 11
60.2449
 21
12.7152
 31
0.0
  0
LINE
  8
0
 62
     0
 10
60.2449
 20
12.7152
 30
0.0
 11
74.246
 21
12.7152
 31
0.0
  0
LINE
  8
0
 62
     0
 10
74.246
 20
12.7152
 30
0.0
 11
74.246
 21
13.7142
 31
0.0
  0
LINE
  8
0
 62
     0
 10
74.246
 20
13.7142
 30
0.0
 11
75.0454
 21
13.7142
 31
0.0
  0
LINE
  8
0
 62
     0
 10
75.0454
 20
13.7142
 30
0.0
 11
75.0454
 21
16.8148
 31
0.0
  0
LINE
  8
0
 62
     0
 10
75.0454
 20
16.8148
 30
0.0
 11
74.246
 21
16.8148
 31
0.0
  0
LINE
  8
0
 62
     0
 10
74.246
 20
16.8148
 30
0.0
 11
74.246
 21
22.615
 31
0.0
  0
LINE
  8
0
 62
     0
 10
74.246
 20
22.615
 30
0.0
 11
75.0454
 21
22.615
 31
0.0
  0
LINE
  8
0
 62
     0
 10
75.0454
 20
22.615
 30
0.0
 11
75.0454
 21
25.7142
 31
0.0
  0
LINE
  8
0
 62
     0
 10
75.0454
 20
25.7142
 30
0.0
 11
74.246
 21
25.7142
 31
0.0
  0
LINE
  8
0
 62
     0
 10
74.246
 20
25.7142
 30
0.0
 11
74.246
 21
26.7147
 31
0.0
  0
LINE
  8
0
 62
     0
 10
74.246
 20
26.7147
 30
0.0
 11
60.2449
 21
26.7147
 31
0.0
  0
LINE
  8
0
 62
     0
 10
165.02
 20
26.7147
 30
0.0
 11
165.02
 21
25.7142
 31
0.0
  0
LINE
  8
0
 62
     0
 10
165.02
 20
25.7142
 30
0.0
 11
164.221
 21
25.7142
 31
0.0
  0
LINE
  8
0
 62
     0
 10
164.221
 20
25.7142
 30
0.0
 11
164.221
 21
22.615
 31
0.0
  0
LINE
  8
0
 62
     0
 10
164.221
 20
22.615
 30
0.0
 11
165.02
 21
22.615
 31
0.0
  0
LINE
  8
0
 62
     0
 10
165.02
 20
22.615
 30
0.0
 11
165.02
 21
16.8148
 31
0.0
  0
LINE
  8
0
 62
     0
 10
165.02
 20
16.8148
 30
0.0
 11
164.221
 21
16.8148
 31
0.0
  0
LINE
  8
0
 62
     0
 10
164.221
 20
16.8148
 30
0.0
 11
164.221
 21
13.7142
 31
0.0
  0
LINE
  8
0
 62
     0
 10
164.221
 20
13.7142
 30
0.0
 11
165.02
 21
13.7142
 31
0.0
  0
LINE
  8
0
 62
     0
 10
165.02
 20
13.7142
 30
0.0
 11
165.02
 21
12.7152
 31
0.0
  0
LINE
  8
0
 62
     0
 10
165.02
 20
12.7152
 30
0.0
 11
179.021
 21
12.7152
 31
0.0
  0
LINE
  8
0
 62
     0
 10
179.021
 20
12.7152
 30
0.0
 11
179.021
 21
13.7142
 31
0.0
  0
LINE
  8
0
 62
     0
 10
179.021
 20
13.7142
 30
0.0
 11
179.82
 21
13.7142
 31
0.0
  0
LINE
  8
0
 62
     0
 10
179.82
 20
13.7142
 30
0.0
 11
179.82
 21
16.8148
 31
0.0
  0
LINE
  8
0
 62
     0
 10
179.82
 20
16.8148
 30
0.0
 11
179.021
 21
16.8148
 31
0.0
  0
LINE
  8
0
 62
     0
 10
179.021
 20
16.8148
 30
0.0
 11
179.021
 21
22.615
 31
0.0
  0
LINE
  8
0
 62
     0
 10
179.021
 20
22.615
 30
0.0
 11
179.82
 21
22.615
 31
0.0
  0
LINE
  8
0
 62
     0
 10
179.82
 20
22.615
 30
0.0
 11
179.82
 21
25.7142
 31
0.0
  0
LINE
  8
0
 62
     0
 10
179.82
 20
25.7142
 30
0.0
 11
179.021
 21
25.7142
 31
0.0
  0
LINE
  8
0
 62
     0
 10
179.021
 20
25.7142
 30
0.0
 11
179.021
 21
26.7147
 31
0.0
  0
LINE
  8
0
 62
     0
 10
179.021
 20
26.7147
 30
0.0
 11
165.02
 21
26.7147
 31
0.0
  0
LINE
  8
0
 62
     0
 10
60.2449
 20
45.7648
 30
0.0
 11
60.2449
 21
44.7643
 31
0.0
  0
LINE
  8
0
 62
     0
 10
60.2449
 20
44.7643
 30
0.0
 11
59.4445
 21
44.7643
 31
0.0
  0
LINE
  8
0
 62
     0
 10
59.4445
 20
44.7643
 30
0.0
 11
59.4445
 21
41.6648
 31
0.0
  0
LINE
  8
0
 62
     0
 10
59.4445
 20
41.6648
 30
0.0
 11
60.2449
 21
41.6648
 31
0.0
  0
LINE
  8
0
 62
     0
 10
60.2449
 20
41.6648
 30
0.0
 11
60.2449
 21
35.8648
 31
0.0
  0
LINE
  8
0
 62
     0
 10
60.2449
 20
35.8648
 30
0.0
 11
59.4445
 21
35.8648
 31
0.0
  0
LINE
  8
0
 62
     0
 10
59.4445
 20
35.8648
 30
0.0
 11
59.4445
 21
32.7642
 31
0.0
  0
LINE
  8
0
 62
     0
 10
59.4445
 20
32.7642
 30
0.0
 11
60.2449
 21
32.7642
 31
0.0
  0
LINE
  8
0
 62
     0
 10
60.2449
 20
32.7642
 30
0.0
 11
60.2449
 21
31.7652
 31
0.0
  0
LINE
  8
0
 62
     0
 10
60.2449
 20
31.7652
 30
0.0
 11
74.246
 21
31.7652
 31
0.0
  0
LINE
  8
0
 62
     0
 10
74.246
 20
31.7652
 30
0.0
 11
74.246
 21
32.7642
 31
0.0
  0
LINE
  8
0
 62
     0
 10
74.246
 20
32.7642
 30
0.0
 11
75.0454
 21
32.7642
 31
0.0
  0
LINE
  8
0
 62
     0
 10
75.0454
 20
32.7642
 30
0.0
 11
75.0454
 21
35.8648
 31
0.0
  0
LINE
  8
0
 62
     0
 10
75.0454
 20
35.8648
 30
0.0
 11
74.246
 21
35.8648
 31
0.0
  0
LINE
  8
0
 62
     0
 10
74.246
 20
35.8648
 30
0.0
 11
74.246
 21
41.6648
 31
0.0
  0
LINE
  8
0
 62
     0
 10
74.246
 20
41.6648
 30
0.0
 11
75.0454
 21
41.6648
 31
0.0
  0
LINE
  8
0
 62
     0
 10
75.0454
 20
41.6648
 30
0.0
 11
75.0454
 21
44.7643
 31
0.0
  0
LINE
  8
0
 62
     0
 10
75.0454
 20
44.7643
 30
0.0
 11
74.246
 21
44.7643
 31
0.0
  0
LINE
  8
0
 62
     0
 10
74.246
 20
44.7643
 30
0.0
 11
74.246
 21
45.7648
 31
0.0
  0
LINE
  8
0
 62
     0
 10
74.246
 20
45.7648
 30
0.0
 11
60.2449
 21
45.7648
 31
0.0
  0
LINE
  8
0
 62
     0
 10
79.2949
 20
45.7648
 30
0.0
 11
79.2949
 21
44.7643
 31
0.0
  0
LINE
  8
0
 62
     0
 10
79.2949
 20
44.7643
 30
0.0
 11
78.4959
 21
44.7643
 31
0.0
  0
LINE
  8
0
 62
     0
 10
78.4959
 20
44.7643
 30
0.0
 11
78.4959
 21
41.6648
 31
0.0
  0
LINE
  8
0
 62
     0
 10
78.4959
 20
41.6648
 30
0.0
 11
79.2949
 21
41.6648
 31
0.0
  0
LINE
  8
0
 62
     0
 10
79.2949
 20
41.6648
 30
0.0
 11
79.2949
 21
35.8648
 31
0.0
  0
LINE
  8
0
 62
     0
 10
79.2949
 20
35.8648
 30
0.0
 11
78.4959
 21
35.8648
 31
0.0
  0
LINE
  8
0
 62
     0
 10
78.4959
 20
35.8648
 30
0.0
 11
78.4959
 21
32.7642
 31
0.0
  0
LINE
  8
0
 62
     0
 10
78.4959
 20
32.7642
 30
0.0
 11
79.2949
 21
32.7642
 31
0.0
  0
LINE
  8
0
 62
     0
 10
79.2949
 20
32.7642
 30
0.0
 11
79.2949
 21
31.7652
 31
0.0
  0
LINE
  8
0
 62
     0
 10
79.2949
 20
31.7652
 30
0.0
 11
93.296
 21
31.7652
 31
0.0
  0
LINE
  8
0
 62
     0
 10
93.296
 20
31.7652
 30
0.0
 11
93.296
 21
32.7642
 31
0.0
  0
LINE
  8
0
 62
     0
 10
93.296
 20
32.7642
 30
0.0
 11
94.0954
 21
32.7642
 31
0.0
  0
LINE
  8
0
 62
     0
 10
94.0954
 20
32.7642
 30
0.0
 11
94.0954
 21
35.8648
 31
0.0
  0
LINE
  8
0
 62
     0
 10
94.0954
 20
35.8648
 30
0.0
 11
93.296
 21
35.8648
 31
0.0
  0
LINE
  8
0
 62
     0
 10
93.296
 20
35.8648
 30
0.0
 11
93.296
 21
41.6648
 31
0.0
  0
LINE
  8
0
 62
     0
 10
93.296
 20
41.6648
 30
0.0
 11
94.0954
 21
41.6648
 31
0.0
  0
LINE
  8
0
 62
     0
 10
94.0954
 20
41.6648
 30
0.0
 11
94.0954
 21
44.7643
 31
0.0
  0
LINE
  8
0
 62
     0
 10
94.0954
 20
44.7643
 30
0.0
 11
93.296
 21
44.7643
 31
0.0
  0
LINE
  8
0
 62
     0
 10
93.296
 20
44.7643
 30
0.0
 11
93.296
 21
45.7648
 31
0.0
  0
LINE
  8
0
 62
     0
 10
93.296
 20
45.7648
 30
0.0
 11
79.2949
 21
45.7648
 31
0.0
  0
LINE
  8
0
 62
     0
 10
98.3449
 20
45.7648
 30
0.0
 11
98.3449
 21
44.7643
 31
0.0
  0
LINE
  8
0
 62
     0
 10
98.3449
 20
44.7643
 30
0.0
 11
97.5459
 21
44.7643
 31
0.0
  0
LINE
  8
0
 62
     0
 10
97.5459
 20
44.7643
 30
0.0
 11
97.5459
 21
41.6648
 31
0.0
  0
LINE
  8
0
 62
     0
 10
97.5459
 20
41.6648
 30
0.0
 11
98.3449
 21
41.6648
 31
0.0
  0
LINE
  8
0
 62
     0
 10
98.3449
 20
41.6648
 30
0.0
 11
98.3449
 21
35.8648
 31
0.0
  0
LINE
  8
0
 62
     0
 10
98.3449
 20
35.8648
 30
0.0
 11
97.5459
 21
35.8648
 31
0.0
  0
LINE
  8
0
 62
     0
 10
97.5459
 20
35.8648
 30
0.0
 11
97.5459
 21
32.7642
 31
0.0
  0
LINE
  8
0
 62
     0
 10
97.5459
 20
32.7642
 30
0.0
 11
98.3449
 21
32.7642
 31
0.0
  0
LINE
  8
0
 62
     0
 10
98.3449
 20
32.7642
 30
0.0
 11
98.3449
 21
31.7652
 31
0.0
  0
LINE
  8
0
 62
     0
 10
98.3449
 20
31.7652
 30
0.0
 11
112.346
 21
31.7652
 31
0.0
  0
LINE
  8
0
 62
     0
 10
112.346
 20
31.7652
 30
0.0
 11
112.346
 21
32.7642
 31
0.0
  0
LINE
  8
0
 62
     0
 10
112.346
 20
32.7642
 30
0.0
 11
113.145
 21
32.7642
 31
0.0
  0
LINE
  8
0
 62
     0
 10
113.145
 20
32.7642
 30
0.0
 11
113.145
 21
35.8648
 31
0.0
  0
LINE
  8
0
 62
     0
 10
113.145
 20
35.8648
 30
0.0
 11
112.346
 21
35.8648
 31
0.0
  0
LINE
  8
0
 62
     0
 10
112.346
 20
35.8648
 30
0.0
 11
112.346
 21
41.6648
 31
0.0
  0
LINE
  8
0
 62
     0
 10
112.346
 20
41.6648
 30
0.0
 11
113.145
 21
41.6648
 31
0.0
  0
LINE
  8
0
 62
     0
 10
113.145
 20
41.6648
 30
0.0
 11
113.145
 21
44.7643
 31
0.0
  0
LINE
  8
0
 62
     0
 10
113.145
 20
44.7643
 30
0.0
 11
112.346
 21
44.7643
 31
0.0
  0
LINE
  8
0
 62
     0
 10
112.346
 20
44.7643
 30
0.0
 11
112.346
 21
45.7648
 31
0.0
  0
LINE
  8
0
 62
     0
 10
112.346
 20
45.7648
 30
0.0
 11
98.3449
 21
45.7648
 31
0.0
  0
LINE
  8
0
 62
     0
 10
117.395
 20
45.7648
 30
0.0
 11
117.395
 21
44.7643
 31
0.0
  0
LINE
  8
0
 62
     0
 10
117.395
 20
44.7643
 30
0.0
 11
116.596
 21
44.7643
 31
0.0
  0
LINE
  8
0
 62
     0
 10
116.596
 20
44.7643
 30
0.0
 11
116.596
 21
41.6648
 31
0.0
  0
LINE
  8
0
 62
     0
 10
116.596
 20
41.6648
 30
0.0
 11
117.395
 21
41.6648
 31
0.0
  0
LINE
  8
0
 62
     0
 10
117.395
 20
41.6648
 30
0.0
 11
117.395
 21
35.8648
 31
0.0
  0
LINE
  8
0
 62
     0
 10
117.395
 20
35.8648
 30
0.0
 11
116.596
 21
35.8648
 31
0.0
  0
LINE
  8
0
 62
     0
 10
116.596
 20
35.8648
 30
0.0
 11
116.596
 21
32.7642
 31
0.0
  0
LINE
  8
0
 62
     0
 10
116.596
 20
32.7642
 30
0.0
 11
117.395
 21
32.7642
 31
0.0
  0
LINE
  8
0
 62
     0
 10
117.395
 20
32.7642
 30
0.0
 11
117.395
 21
31.7652
 31
0.0
  0
LINE
  8
0
 62
     0
 10
117.395
 20
31.7652
 30
0.0
 11
131.396
 21
31.7652
 31
0.0
  0
LINE
  8
0
 62
     0
 10
131.396
 20
31.7652
 30
0.0
 11
131.396
 21
32.7642
 31
0.0
  0
LINE
  8
0
 62
     0
 10
131.396
 20
32.7642
 30
0.0
 11
132.195
 21
32.7642
 31
0.0
  0
LINE
  8
0
 62
     0
 10
132.195
 20
32.7642
 30
0.0
 11
132.195
 21
35.8648
 31
0.0
  0
LINE
  8
0
 62
     0
 10
132.195
 20
35.8648
 30
0.0
 11
131.396
 21
35.8648
 31
0.0
  0
LINE
  8
0
 62
     0
 10
131.396
 20
35.8648
 30
0.0
 11
131.396
 21
41.6648
 31
0.0
  0
LINE
  8
0
 62
     0
 10
131.396
 20
41.6648
 30
0.0
 11
132.195
 21
41.6648
 31
0.0
  0
LINE
  8
0
 62
     0
 10
132.195
 20
41.6648
 30
0.0
 11
132.195
 21
44.7643
 31
0.0
  0
LINE
  8
0
 62
     0
 10
132.195
 20
44.7643
 30
0.0
 11
131.396
 21
44.7643
 31
0.0
  0
LINE
  8
0
 62
     0
 10
131.396
 20
44.7643
 30
0.0
 11
131.396
 21
45.7648
 31
0.0
  0
LINE
  8
0
 62
     0
 10
131.396
 20
45.7648
 30
0.0
 11
117.395
 21
45.7648
 31
0.0
  0
LINE
  8
0
 62
     0
 10
145.97
 20
45.7648
 30
0.0
 11
145.97
 21
44.7643
 31
0.0
  0
LINE
  8
0
 62
     0
 10
145.97
 20
44.7643
 30
0.0
 11
145.171
 21
44.7643
 31
0.0
  0
LINE
  8
0
 62
     0
 10
145.171
 20
44.7643
 30
0.0
 11
145.171
 21
41.6648
 31
0.0
  0
LINE
  8
0
 62
     0
 10
145.171
 20
41.6648
 30
0.0
 11
145.97
 21
41.6648
 31
0.0
  0
LINE
  8
0
 62
     0
 10
145.97
 20
41.6648
 30
0.0
 11
145.97
 21
35.8648
 31
0.0
  0
LINE
  8
0
 62
     0
 10
145.97
 20
35.8648
 30
0.0
 11
145.171
 21
35.8648
 31
0.0
  0
LINE
  8
0
 62
     0
 10
145.171
 20
35.8648
 30
0.0
 11
145.171
 21
32.7642
 31
0.0
  0
LINE
  8
0
 62
     0
 10
145.171
 20
32.7642
 30
0.0
 11
145.97
 21
32.7642
 31
0.0
  0
LINE
  8
0
 62
     0
 10
145.97
 20
32.7642
 30
0.0
 11
145.97
 21
31.7652
 31
0.0
  0
LINE
  8
0
 62
     0
 10
145.97
 20
31.7652
 30
0.0
 11
159.971
 21
31.7652
 31
0.0
  0
LINE
  8
0
 62
     0
 10
159.971
 20
31.7652
 30
0.0
 11
159.971
 21
32.7642
 31
0.0
  0
LINE
  8
0
 62
     0
 10
159.971
 20
32.7642
 30
0.0
 11
160.77
 21
32.7642
 31
0.0
  0
LINE
  8
0
 62
     0
 10
160.77
 20
32.7642
 30
0.0
 11
160.77
 21
35.8648
 31
0.0
  0
LINE
  8
0
 62
     0
 10
160.77
 20
35.8648
 30
0.0
 11
159.971
 21
35.8648
 31
0.0
  0
LINE
  8
0
 62
     0
 10
159.971
 20
35.8648
 30
0.0
 11
159.971
 21
41.6648
 31
0.0
  0
LINE
  8
0
 62
     0
 10
159.971
 20
41.6648
 30
0.0
 11
160.77
 21
41.6648
 31
0.0
  0
LINE
  8
0
 62
     0
 10
160.77
 20
41.6648
 30
0.0
 11
160.77
 21
44.7643
 31
0.0
  0
LINE
  8
0
 62
     0
 10
160.77
 20
44.7643
 30
0.0
 11
159.971
 21
44.7643
 31
0.0
  0
LINE
  8
0
 62
     0
 10
159.971
 20
44.7643
 30
0.0
 11
159.971
 21
45.7648
 31
0.0
  0
LINE
  8
0
 62
     0
 10
159.971
 20
45.7648
 30
0.0
 11
145.97
 21
45.7648
 31
0.0
  0
LINE
  8
0
 62
     0
 10
165.02
 20
45.7648
 30
0.0
 11
165.02
 21
44.7643
 31
0.0
  0
LINE
  8
0
 62
     0
 10
165.02
 20
44.7643
 30
0.0
 11
164.221
 21
44.7643
 31
0.0
  0
LINE
  8
0
 62
     0
 10
164.221
 20
44.7643
 30
0.0
 11
164.221
 21
41.6648
 31
0.0
  0
LINE
  8
0
 62
     0
 10
164.221
 20
41.6648
 30
0.0
 11
165.02
 21
41.6648
 31
0.0
  0
LINE
  8
0
 62
     0
 10
165.02
 20
41.6648
 30
0.0
 11
165.02
 21
35.8648
 31
0.0
  0
LINE
  8
0
 62
     0
 10
165.02
 20
35.8648
 30
0.0
 11
164.221
 21
35.8648
 31
0.0
  0
LINE
  8
0
 62
     0
 10
164.221
 20
35.8648
 30
0.0
 11
164.221
 21
32.7642
 31
0.0
  0
LINE
  8
0
 62
     0
 10
164.221
 20
32.7642
 30
0.0
 11
165.02
 21
32.7642
 31
0.0
  0
LINE
  8
0
 62
     0
 10
165.02
 20
32.7642
 30
0.0
 11
165.02
 21
31.7652
 31
0.0
  0
LINE
  8
0
 62
     0
 10
165.02
 20
31.7652
 30
0.0
 11
179.021
 21
31.7652
 31
0.0
  0
LINE
  8
0
 62
     0
 10
179.021
 20
31.7652
 30
0.0
 11
179.021
 21
32.7642
 31
0.0
  0
LINE
  8
0
 62
     0
 10
179.021
 20
32.7642
 30
0.0
 11
179.82
 21
32.7642
 31
0.0
  0
LINE
  8
0
 62
     0
 10
179.82
 20
32.7642
 30
0.0
 11
179.82
 21
35.8648
 31
0.0
  0
LINE
  8
0
 62
     0
 10
179.82
 20
35.8648
 30
0.0
 11
179.021
 21
35.8648
 31
0.0
  0
LINE
  8
0
 62
     0
 10
179.021
 20
35.8648
 30
0.0
 11
179.021
 21
41.6648
 31
0.0
  0
LINE
  8
0
 62
     0
 10
179.021
 20
41.6648
 30
0.0
 11
179.82
 21
41.6648
 31
0.0
  0
LINE
  8
0
 62
     0
 10
179.82
 20
41.6648
 30
0.0
 11
179.82
 21
44.7643
 31
0.0
  0
LINE
  8
0
 62
     0
 10
179.82
 20
44.7643
 30
0.0
 11
179.021
 21
44.7643
 31
0.0
  0
LINE
  8
0
 62
     0
 10
179.021
 20
44.7643
 30
0.0
 11
179.021
 21
45.7648
 31
0.0
  0
LINE
  8
0
 62
     0
 10
179.021
 20
45.7648
 30
0.0
 11
165.02
 21
45.7648
 31
0.0
  0
LINE
  8
0
 62
     0
 10
184.07
 20
45.7648
 30
0.0
 11
184.07
 21
44.7643
 31
0.0
  0
LINE
  8
0
 62
     0
 10
184.07
 20
44.7643
 30
0.0
 11
183.271
 21
44.7643
 31
0.0
  0
LINE
  8
0
 62
     0
 10
183.271
 20
44.7643
 30
0.0
 11
183.271
 21
41.6648
 31
0.0
  0
LINE
  8
0
 62
     0
 10
183.271
 20
41.6648
 30
0.0
 11
184.07
 21
41.6648
 31
0.0
  0
LINE
  8
0
 62
     0
 10
184.07
 20
41.6648
 30
0.0
 11
184.07
 21
35.8648
 31
0.0
  0
LINE
  8
0
 62
     0
 10
184.07
 20
35.8648
 30
0.0
 11
183.271
 21
35.8648
 31
0.0
  0
LINE
  8
0
 62
     0
 10
183.271
 20
35.8648
 30
0.0
 11
183.271
 21
32.7642
 31
0.0
  0
LINE
  8
0
 62
     0
 10
183.271
 20
32.7642
 30
0.0
 11
184.07
 21
32.7642
 31
0.0
  0
LINE
  8
0
 62
     0
 10
184.07
 20
32.7642
 30
0.0
 11
184.07
 21
31.7652
 31
0.0
  0
LINE
  8
0
 62
     0
 10
184.07
 20
31.7652
 30
0.0
 11
198.071
 21
31.7652
 31
0.0
  0
LINE
  8
0
 62
     0
 10
198.071
 20
31.7652
 30
0.0
 11
198.071
 21
32.7642
 31
0.0
  0
LINE
  8
0
 62
     0
 10
198.071
 20
32.7642
 30
0.0
 11
198.87
 21
32.7642
 31
0.0
  0
LINE
  8
0
 62
     0
 10
198.87
 20
32.7642
 30
0.0
 11
198.87
 21
35.8648
 31
0.0
  0
LINE
  8
0
 62
     0
 10
198.87
 20
35.8648
 30
0.0
 11
198.071
 21
35.8648
 31
0.0
  0
LINE
  8
0
 62
     0
 10
198.071
 20
35.8648
 30
0.0
 11
198.071
 21
41.6648
 31
0.0
  0
LINE
  8
0
 62
     0
 10
198.071
 20
41.6648
 30
0.0
 11
198.87
 21
41.6648
 31
0.0
  0
LINE
  8
0
 62
     0
 10
198.87
 20
41.6648
 30
0.0
 11
198.87
 21
44.7643
 31
0.0
  0
LINE
  8
0
 62
     0
 10
198.87
 20
44.7643
 30
0.0
 11
198.071
 21
44.7643
 31
0.0
  0
LINE
  8
0
 62
     0
 10
198.071
 20
44.7643
 30
0.0
 11
198.071
 21
45.7648
 31
0.0
  0
LINE
  8
0
 62
     0
 10
198.071
 20
45.7648
 30
0.0
 11
184.07
 21
45.7648
 31
0.0
  0
LINE
  8
0
 62
     0
 10
12.6201
 20
55.2898
 30
0.0
 11
12.6201
 21
54.2893
 31
0.0
  0
LINE
  8
0
 62
     0
 10
12.6201
 20
54.2893
 30
0.0
 11
11.8194
 21
54.2893
 31
0.0
  0
LINE
  8
0
 62
     0
 10
11.8194
 20
54.2893
 30
0.0
 11
11.8194
 21
51.1898
 31
0.0
  0
LINE
  8
0
 62
     0
 10
11.8194
 20
51.1898
 30
0.0
 11
12.6201
 21
51.1898
 31
0.0
  0
LINE
  8
0
 62
     0
 10
12.6201
 20
51.1898
 30
0.0
 11
12.6201
 21
45.3898
 31
0.0
  0
LINE
  8
0
 62
     0
 10
12.6201
 20
45.3898
 30
0.0
 11
11.8194
 21
45.3898
 31
0.0
  0
LINE
  8
0
 62
     0
 10
11.8194
 20
45.3898
 30
0.0
 11
11.8194
 21
42.2892
 31
0.0
  0
LINE
  8
0
 62
     0
 10
11.8194
 20
42.2892
 30
0.0
 11
12.6201
 21
42.2892
 31
0.0
  0
LINE
  8
0
 62
     0
 10
12.6201
 20
42.2892
 30
0.0
 11
12.6201
 21
41.2902
 31
0.0
  0
LINE
  8
0
 62
     0
 10
12.6201
 20
41.2902
 30
0.0
 11
26.6209
 21
41.2902
 31
0.0
  0
LINE
  8
0
 62
     0
 10
26.6209
 20
41.2902
 30
0.0
 11
26.6209
 21
42.2892
 31
0.0
  0
LINE
  8
0
 62
     0
 10
26.6209
 20
42.2892
 30
0.0
 11
27.4188
 21
42.2892
 31
0.0
  0
LINE
  8
0
 62
     0
 10
27.4188
 20
42.2892
 30
0.0
 11
27.4188
 21
45.3898
 31
0.0
  0
LINE
  8
0
 62
     0
 10
27.4188
 20
45.3898
 30
0.0
 11
26.6209
 21
45.3898
 31
0.0
  0
LINE
  8
0
 62
     0
 10
26.6209
 20
45.3898
 30
0.0
 11
26.6209
 21
51.1898
 31
0.0
  0
LINE
  8
0
 62
     0
 10
26.6209
 20
51.1898
 30
0.0
 11
27.4188
 21
51.1898
 31
0.0
  0
LINE
  8
0
 62
     0
 10
27.4188
 20
51.1898
 30
0.0
 11
27.4188
 21
54.2893
 31
0.0
  0
LINE
  8
0
 62
     0
 10
27.4188
 20
54.2893
 30
0.0
 11
26.6209
 21
54.2893
 31
0.0
  0
LINE
  8
0
 62
     0
 10
26.6209
 20
54.2893
 30
0.0
 11
26.6209
 21
55.2898
 31
0.0
  0
LINE
  8
0
 62
     0
 10
26.6209
 20
55.2898
 30
0.0
 11
12.6201
 21
55.2898
 31
0.0
  0
LINE
  8
0
 62
     0
 10
36.4324
 20
55.2898
 30
0.0
 11
36.4324
 21
54.2893
 31
0.0
  0
LINE
  8
0
 62
     0
 10
36.4324
 20
54.2893
 30
0.0
 11
35.632
 21
54.2893
 31
0.0
  0
LINE
  8
0
 62
     0
 10
35.632
 20
54.2893
 30
0.0
 11
35.632
 21
51.1898
 31
0.0
  0
LINE
  8
0
 62
     0
 10
35.632
 20
51.1898
 30
0.0
 11
36.4324
 21
51.1898
 31
0.0
  0
LINE
  8
0
 62
     0
 10
36.4324
 20
51.1898
 30
0.0
 11
36.4324
 21
45.3898
 31
0.0
  0
LINE
  8
0
 62
     0
 10
36.4324
 20
45.3898
 30
0.0
 11
35.632
 21
45.3898
 31
0.0
  0
LINE
  8
0
 62
     0
 10
35.632
 20
45.3898
 30
0.0
 11
35.632
 21
42.2892
 31
0.0
  0
LINE
  8
0
 62
     0
 10
35.632
 20
42.2892
 30
0.0
 11
36.4324
 21
42.2892
 31
0.0
  0
LINE
  8
0
 62
     0
 10
36.4324
 20
42.2892
 30
0.0
 11
36.4324
 21
41.2902
 31
0.0
  0
LINE
  8
0
 62
     0
 10
36.4324
 20
41.2902
 30
0.0
 11
50.4321
 21
41.2902
 31
0.0
  0
LINE
  8
0
 62
     0
 10
50.4321
 20
41.2902
 30
0.0
 11
50.4321
 21
42.2892
 31
0.0
  0
LINE
  8
0
 62
     0
 10
50.4321
 20
42.2892
 30
0.0
 11
51.2329
 21
42.2892
 31
0.0
  0
LINE
  8
0
 62
     0
 10
51.2329
 20
42.2892
 30
0.0
 11
51.2329
 21
45.3898
 31
0.0
  0
LINE
  8
0
 62
     0
 10
51.2329
 20
45.3898
 30
0.0
 11
50.4321
 21
45.3898
 31
0.0
  0
LINE
  8
0
 62
     0
 10
50.4321
 20
45.3898
 30
0.0
 11
50.4321
 21
51.1898
 31
0.0
  0
LINE
  8
0
 62
     0
 10
50.4321
 20
51.1898
 30
0.0
 11
51.2329
 21
51.1898
 31
0.0
  0
LINE
  8
0
 62
     0
 10
51.2329
 20
51.1898
 30
0.0
 11
51.2329
 21
54.2893
 31
0.0
  0
LINE
  8
0
 62
     0
 10
51.2329
 20
54.2893
 30
0.0
 11
50.4321
 21
54.2893
 31
0.0
  0
LINE
  8
0
 62
     0
 10
50.4321
 20
54.2893
 30
0.0
 11
50.4321
 21
55.2898
 31
0.0
  0
LINE
  8
0
 62
     0
 10
50.4321
 20
55.2898
 30
0.0
 11
36.4324
 21
55.2898
 31
0.0
  0
LINE
  8
0
 62
     0
 10
60.2449
 20
64.8148
 30
0.0
 11
60.2449
 21
63.8143
 31
0.0
  0
LINE
  8
0
 62
     0
 10
60.2449
 20
63.8143
 30
0.0
 11
59.4445
 21
63.8143
 31
0.0
  0
LINE
  8
0
 62
     0
 10
59.4445
 20
63.8143
 30
0.0
 11
59.4445
 21
60.7148
 31
0.0
  0
LINE
  8
0
 62
     0
 10
59.4445
 20
60.7148
 30
0.0
 11
60.2449
 21
60.7148
 31
0.0
  0
LINE
  8
0
 62
     0
 10
60.2449
 20
60.7148
 30
0.0
 11
60.2449
 21
54.9148
 31
0.0
  0
LINE
  8
0
 62
     0
 10
60.2449
 20
54.9148
 30
0.0
 11
59.4445
 21
54.9148
 31
0.0
  0
LINE
  8
0
 62
     0
 10
59.4445
 20
54.9148
 30
0.0
 11
59.4445
 21
51.8142
 31
0.0
  0
LINE
  8
0
 62
     0
 10
59.4445
 20
51.8142
 30
0.0
 11
60.2449
 21
51.8142
 31
0.0
  0
LINE
  8
0
 62
     0
 10
60.2449
 20
51.8142
 30
0.0
 11
60.2449
 21
50.8152
 31
0.0
  0
LINE
  8
0
 62
     0
 10
60.2449
 20
50.8152
 30
0.0
 11
74.246
 21
50.8152
 31
0.0
  0
LINE
  8
0
 62
     0
 10
74.246
 20
50.8152
 30
0.0
 11
74.246
 21
51.8142
 31
0.0
  0
LINE
  8
0
 62
     0
 10
74.246
 20
51.8142
 30
0.0
 11
75.0454
 21
51.8142
 31
0.0
  0
LINE
  8
0
 62
     0
 10
75.0454
 20
51.8142
 30
0.0
 11
75.0454
 21
54.9148
 31
0.0
  0
LINE
  8
0
 62
     0
 10
75.0454
 20
54.9148
 30
0.0
 11
74.246
 21
54.9148
 31
0.0
  0
LINE
  8
0
 62
     0
 10
74.246
 20
54.9148
 30
0.0
 11
74.246
 21
60.7148
 31
0.0
  0
LINE
  8
0
 62
     0
 10
74.246
 20
60.7148
 30
0.0
 11
75.0454
 21
60.7148
 31
0.0
  0
LINE
  8
0
 62
     0
 10
75.0454
 20
60.7148
 30
0.0
 11
75.0454
 21
63.8143
 31
0.0
  0
LINE
  8
0
 62
     0
 10
75.0454
 20
63.8143
 30
0.0
 11
74.246
 21
63.8143
 31
0.0
  0
LINE
  8
0
 62
     0
 10
74.246
 20
63.8143
 30
0.0
 11
74.246
 21
64.8148
 31
0.0
  0
LINE
  8
0
 62
     0
 10
74.246
 20
64.8148
 30
0.0
 11
60.2449
 21
64.8148
 31
0.0
  0
LINE
  8
0
 62
     0
 10
79.2949
 20
64.8148
 30
0.0
 11
79.2949
 21
63.8143
 31
0.0
  0
LINE
  8
0
 62
     0
 10
79.2949
 20
63.8143
 30
0.0
 11
78.4959
 21
63.8143
 31
0.0
  0
LINE
  8
0
 62
     0
 10
78.4959
 20
63.8143
 30
0.0
 11
78.4959
 21
60.7148
 31
0.0
  0
LINE
  8
0
 62
     0
 10
78.4959
 20
60.7148
 30
0.0
 11
79.2949
 21
60.7148
 31
0.0
  0
LINE
  8
0
 62
     0
 10
79.2949
 20
60.7148
 30
0.0
 11
79.2949
 21
54.9148
 31
0.0
  0
LINE
  8
0
 62
     0
 10
79.2949
 20
54.9148
 30
0.0
 11
78.4959
 21
54.9148
 31
0.0
  0
LINE
  8
0
 62
     0
 10
78.4959
 20
54.9148
 30
0.0
 11
78.4959
 21
51.8142
 31
0.0
  0
LINE
  8
0
 62
     0
 10
78.4959
 20
51.8142
 30
0.0
 11
79.2949
 21
51.8142
 31
0.0
  0
LINE
  8
0
 62
     0
 10
79.2949
 20
51.8142
 30
0.0
 11
79.2949
 21
50.8152
 31
0.0
  0
LINE
  8
0
 62
     0
 10
79.2949
 20
50.8152
 30
0.0
 11
93.296
 21
50.8152
 31
0.0
  0
LINE
  8
0
 62
     0
 10
93.296
 20
50.8152
 30
0.0
 11
93.296
 21
51.8142
 31
0.0
  0
LINE
  8
0
 62
     0
 10
93.296
 20
51.8142
 30
0.0
 11
94.0954
 21
51.8142
 31
0.0
  0
LINE
  8
0
 62
     0
 10
94.0954
 20
51.8142
 30
0.0
 11
94.0954
 21
54.9148
 31
0.0
  0
LINE
  8
0
 62
     0
 10
94.0954
 20
54.9148
 30
0.0
 11
93.296
 21
54.9148
 31
0.0
  0
LINE
  8
0
 62
     0
 10
93.296
 20
54.9148
 30
0.0
 11
93.296
 21
60.7148
 31
0.0
  0
LINE
  8
0
 62
     0
 10
93.296
 20
60.7148
 30
0.0
 11
94.0954
 21
60.7148
 31
0.0
  0
LINE
  8
0
 62
     0
 10
94.0954
 20
60.7148
 30
0.0
 11
94.0954
 21
63.8143
 31
0.0
  0
LINE
  8
0
 62
     0
 10
94.0954
 20
63.8143
 30
0.0
 11
93.296
 21
63.8143
 31
0.0
  0
LINE
  8
0
 62
     0
 10
93.296
 20
63.8143
 30
0.0
 11
93.296
 21
64.8148
 31
0.0
  0
LINE
  8
0
 62
     0
 10
93.296
 20
64.8148
 30
0.0
 11
79.2949
 21
64.8148
 31
0.0
  0
LINE
  8
0
 62
     0
 10
98.3449
 20
64.8148
 30
0.0
 11
98.3449
 21
63.8143
 31
0.0
  0
LINE
  8
0
 62
     0
 10
98.3449
 20
63.8143
 30
0.0
 11
97.5459
 21
63.8143
 31
0.0
  0
LINE
  8
0
 62
     0
 10
97.5459
 20
63.8143
 30
0.0
 11
97.5459
 21
60.7148
 31
0.0
  0
LINE
  8
0
 62
     0
 10
97.5459
 20
60.7148
 30
0.0
 11
98.3449
 21
60.7148
 31
0.0
  0
LINE
  8
0
 62
     0
 10
98.3449
 20
60.7148
 30
0.0
 11
98.3449
 21
54.9148
 31
0.0
  0
LINE
  8
0
 62
     0
 10
98.3449
 20
54.9148
 30
0.0
 11
97.5459
 21
54.9148
 31
0.0
  0
LINE
  8
0
 62
     0
 10
97.5459
 20
54.9148
 30
0.0
 11
97.5459
 21
51.8142
 31
0.0
  0
LINE
  8
0
 62
     0
 10
97.5459
 20
51.8142
 30
0.0
 11
98.3449
 21
51.8142
 31
0.0
  0
LINE
  8
0
 62
     0
 10
98.3449
 20
51.8142
 30
0.0
 11
98.3449
 21
50.8152
 31
0.0
  0
LINE
  8
0
 62
     0
 10
98.3449
 20
50.8152
 30
0.0
 11
112.346
 21
50.8152
 31
0.0
  0
LINE
  8
0
 62
     0
 10
112.346
 20
50.8152
 30
0.0
 11
112.346
 21
51.8142
 31
0.0
  0
LINE
  8
0
 62
     0
 10
112.346
 20
51.8142
 30
0.0
 11
113.145
 21
51.8142
 31
0.0
  0
LINE
  8
0
 62
     0
 10
113.145
 20
51.8142
 30
0.0
 11
113.145
 21
54.9148
 31
0.0
  0
LINE
  8
0
 62
     0
 10
113.145
 20
54.9148
 30
0.0
 11
112.346
 21
54.9148
 31
0.0
  0
LINE
  8
0
 62
     0
 10
112.346
 20
54.9148
 30
0.0
 11
112.346
 21
60.7148
 31
0.0
  0
LINE
  8
0
 62
     0
 10
112.346
 20
60.7148
 30
0.0
 11
113.145
 21
60.7148
 31
0.0
  0
LINE
  8
0
 62
     0
 10
113.145
 20
60.7148
 30
0.0
 11
113.145
 21
63.8143
 31
0.0
  0
LINE
  8
0
 62
     0
 10
113.145
 20
63.8143
 30
0.0
 11
112.346
 21
63.8143
 31
0.0
  0
LINE
  8
0
 62
     0
 10
112.346
 20
63.8143
 30
0.0
 11
112.346
 21
64.8148
 31
0.0
  0
LINE
  8
0
 62
     0
 10
112.346
 20
64.8148
 30
0.0
 11
98.3449
 21
64.8148
 31
0.0
  0
LINE
  8
0
 62
     0
 10
117.395
 20
64.8148
 30
0.0
 11
117.395
 21
63.8143
 31
0.0
  0
LINE
  8
0
 62
     0
 10
117.395
 20
63.8143
 30
0.0
 11
116.596
 21
63.8143
 31
0.0
  0
LINE
  8
0
 62
     0
 10
116.596
 20
63.8143
 30
0.0
 11
116.596
 21
60.7148
 31
0.0
  0
LINE
  8
0
 62
     0
 10
116.596
 20
60.7148
 30
0.0
 11
117.395
 21
60.7148
 31
0.0
  0
LINE
  8
0
 62
     0
 10
117.395
 20
60.7148
 30
0.0
 11
117.395
 21
54.9148
 31
0.0
  0
LINE
  8
0
 62
     0
 10
117.395
 20
54.9148
 30
0.0
 11
116.596
 21
54.9148
 31
0.0
  0
LINE
  8
0
 62
     0
 10
116.596
 20
54.9148
 30
0.0
 11
116.596
 21
51.8142
 31
0.0
  0
LINE
  8
0
 62
     0
 10
116.596
 20
51.8142
 30
0.0
 11
117.395
 21
51.8142
 31
0.0
  0
LINE
  8
0
 62
     0
 10
117.395
 20
51.8142
 30
0.0
 11
117.395
 21
50.8152
 31
0.0
  0
LINE
  8
0
 62
     0
 10
117.395
 20
50.8152
 30
0.0
 11
131.396
 21
50.8152
 31
0.0
  0
LINE
  8
0
 62
     0
 10
131.396
 20
50.8152
 30
0.0
 11
131.396
 21
51.8142
 31
0.0
  0
LINE
  8
0
 62
     0
 10
131.396
 20
51.8142
 30
0.0
 11
132.195
 21
51.8142
 31
0.0
  0
LINE
  8
0
 62
     0
 10
132.195
 20
51.8142
 30
0.0
 11
132.195
 21
54.9148
 31
0.0
  0
LINE
  8
0
 62
     0
 10
132.195
 20
54.9148
 30
0.0
 11
131.396
 21
54.9148
 31
0.0
  0
LINE
  8
0
 62
     0
 10
131.396
 20
54.9148
 30
0.0
 11
131.396
 21
60.7148
 31
0.0
  0
LINE
  8
0
 62
     0
 10
131.396
 20
60.7148
 30
0.0
 11
132.195
 21
60.7148
 31
0.0
  0
LINE
  8
0
 62
     0
 10
132.195
 20
60.7148
 30
0.0
 11
132.195
 21
63.8143
 31
0.0
  0
LINE
  8
0
 62
     0
 10
132.195
 20
63.8143
 30
0.0
 11
131.396
 21
63.8143
 31
0.0
  0
LINE
  8
0
 62
     0
 10
131.396
 20
63.8143
 30
0.0
 11
131.396
 21
64.8148
 31
0.0
  0
LINE
  8
0
 62
     0
 10
131.396
 20
64.8148
 30
0.0
 11
117.395
 21
64.8148
 31
0.0
  0
LINE
  8
0
 62
     0
 10
165.02
 20
64.8148
 30
0.0
 11
165.02
 21
63.8143
 31
0.0
  0
LINE
  8
0
 62
     0
 10
165.02
 20
63.8143
 30
0.0
 11
164.221
 21
63.8143
 31
0.0
  0
LINE
  8
0
 62
     0
 10
164.221
 20
63.8143
 30
0.0
 11
164.221
 21
60.7148
 31
0.0
  0
LINE
  8
0
 62
     0
 10
164.221
 20
60.7148
 30
0.0
 11
165.02
 21
60.7148
 31
0.0
  0
LINE
  8
0
 62
     0
 10
165.02
 20
60.7148
 30
0.0
 11
165.02
 21
54.9148
 31
0.0
  0
LINE
  8
0
 62
     0
 10
165.02
 20
54.9148
 30
0.0
 11
164.221
 21
54.9148
 31
0.0
  0
LINE
  8
0
 62
     0
 10
164.221
 20
54.9148
 30
0.0
 11
164.221
 21
51.8142
 31
0.0
  0
LINE
  8
0
 62
     0
 10
164.221
 20
51.8142
 30
0.0
 11
165.02
 21
51.8142
 31
0.0
  0
LINE
  8
0
 62
     0
 10
165.02
 20
51.8142
 30
0.0
 11
165.02
 21
50.8152
 31
0.0
  0
LINE
  8
0
 62
     0
 10
165.02
 20
50.8152
 30
0.0
 11
179.021
 21
50.8152
 31
0.0
  0
LINE
  8
0
 62
     0
 10
179.021
 20
50.8152
 30
0.0
 11
179.021
 21
51.8142
 31
0.0
  0
LINE
  8
0
 62
     0
 10
179.021
 20
51.8142
 30
0.0
 11
179.82
 21
51.8142
 31
0.0
  0
LINE
  8
0
 62
     0
 10
179.82
 20
51.8142
 30
0.0
 11
179.82
 21
54.9148
 31
0.0
  0
LINE
  8
0
 62
     0
 10
179.82
 20
54.9148
 30
0.0
 11
179.021
 21
54.9148
 31
0.0
  0
LINE
  8
0
 62
     0
 10
179.021
 20
54.9148
 30
0.0
 11
179.021
 21
60.7148
 31
0.0
  0
LINE
  8
0
 62
     0
 10
179.021
 20
60.7148
 30
0.0
 11
179.82
 21
60.7148
 31
0.0
  0
LINE
  8
0
 62
     0
 10
179.82
 20
60.7148
 30
0.0
 11
179.82
 21
63.8143
 31
0.0
  0
LINE
  8
0
 62
     0
 10
179.82
 20
63.8143
 30
0.0
 11
179.021
 21
63.8143
 31
0.0
  0
LINE
  8
0
 62
     0
 10
179.021
 20
63.8143
 30
0.0
 11
179.021
 21
64.8148
 31
0.0
  0
LINE
  8
0
 62
     0
 10
179.021
 20
64.8148
 30
0.0
 11
165.02
 21
64.8148
 31
0.0
  0
LINE
  8
0
 62
     0
 10
12.6201
 20
79.1023
 30
0.0
 11
12.6201
 21
78.1018
 31
0.0
  0
LINE
  8
0
 62
     0
 10
12.6201
 20
78.1018
 30
0.0
 11
11.8194
 21
78.1018
 31
0.0
  0
LINE
  8
0
 62
     0
 10
11.8194
 20
78.1018
 30
0.0
 11
11.8194
 21
75.0013
 31
0.0
  0
LINE
  8
0
 62
     0
 10
11.8194
 20
75.0013
 30
0.0
 11
12.6201
 21
75.0013
 31
0.0
  0
LINE
  8
0
 62
     0
 10
12.6201
 20
75.0013
 30
0.0
 11
12.6201
 21
69.2023
 31
0.0
  0
LINE
  8
0
 62
     0
 10
12.6201
 20
69.2023
 30
0.0
 11
11.8194
 21
69.2023
 31
0.0
  0
LINE
  8
0
 62
     0
 10
11.8194
 20
69.2023
 30
0.0
 11
11.8194
 21
66.1017
 31
0.0
  0
LINE
  8
0
 62
     0
 10
11.8194
 20
66.1017
 30
0.0
 11
12.6201
 21
66.1017
 31
0.0
  0
LINE
  8
0
 62
     0
 10
12.6201
 20
66.1017
 30
0.0
 11
12.6201
 21
65.1013
 31
0.0
  0
LINE
  8
0
 62
     0
 10
12.6201
 20
65.1013
 30
0.0
 11
26.6209
 21
65.1013
 31
0.0
  0
LINE
  8
0
 62
     0
 10
26.6209
 20
65.1013
 30
0.0
 11
26.6209
 21
66.1017
 31
0.0
  0
LINE
  8
0
 62
     0
 10
26.6209
 20
66.1017
 30
0.0
 11
27.4188
 21
66.1017
 31
0.0
  0
LINE
  8
0
 62
     0
 10
27.4188
 20
66.1017
 30
0.0
 11
27.4188
 21
69.2023
 31
0.0
  0
LINE
  8
0
 62
     0
 10
27.4188
 20
69.2023
 30
0.0
 11
26.6209
 21
69.2023
 31
0.0
  0
LINE
  8
0
 62
     0
 10
26.6209
 20
69.2023
 30
0.0
 11
26.6209
 21
75.0013
 31
0.0
  0
LINE
  8
0
 62
     0
 10
26.6209
 20
75.0013
 30
0.0
 11
27.4188
 21
75.0013
 31
0.0
  0
LINE
  8
0
 62
     0
 10
27.4188
 20
75.0013
 30
0.0
 11
27.4188
 21
78.1018
 31
0.0
  0
LINE
  8
0
 62
     0
 10
27.4188
 20
78.1018
 30
0.0
 11
26.6209
 21
78.1018
 31
0.0
  0
LINE
  8
0
 62
     0
 10
26.6209
 20
78.1018
 30
0.0
 11
26.6209
 21
79.1023
 31
0.0
  0
LINE
  8
0
 62
     0
 10
26.6209
 20
79.1023
 30
0.0
 11
12.6201
 21
79.1023
 31
0.0
  0
LINE
  8
0
 62
     0
 10
36.4324
 20
79.1023
 30
0.0
 11
36.4324
 21
78.1018
 31
0.0
  0
LINE
  8
0
 62
     0
 10
36.4324
 20
78.1018
 30
0.0
 11
35.632
 21
78.1018
 31
0.0
  0
LINE
  8
0
 62
     0
 10
35.632
 20
78.1018
 30
0.0
 11
35.632
 21
75.0013
 31
0.0
  0
LINE
  8
0
 62
     0
 10
35.632
 20
75.0013
 30
0.0
 11
36.4324
 21
75.0013
 31
0.0
  0
LINE
  8
0
 62
     0
 10
36.4324
 20
75.0013
 30
0.0
 11
36.4324
 21
69.2023
 31
0.0
  0
LINE
  8
0
 62
     0
 10
36.4324
 20
69.2023
 30
0.0
 11
35.632
 21
69.2023
 31
0.0
  0
LINE
  8
0
 62
     0
 10
35.632
 20
69.2023
 30
0.0
 11
35.632
 21
66.1017
 31
0.0
  0
LINE
  8
0
 62
     0
 10
35.632
 20
66.1017
 30
0.0
 11
36.4324
 21
66.1017
 31
0.0
  0
LINE
  8
0
 62
     0
 10
36.4324
 20
66.1017
 30
0.0
 11
36.4324
 21
65.1013
 31
0.0
  0
LINE
  8
0
 62
     0
 10
36.4324
 20
65.1013
 30
0.0
 11
50.4321
 21
65.1013
 31
0.0
  0
LINE
  8
0
 62
     0
 10
50.4321
 20
65.1013
 30
0.0
 11
50.4321
 21
66.1017
 31
0.0
  0
LINE
  8
0
 62
     0
 10
50.4321
 20
66.1017
 30
0.0
 11
51.2329
 21
66.1017
 31
0.0
  0
LINE
  8
0
 62
     0
 10
51.2329
 20
66.1017
 30
0.0
 11
51.2329
 21
69.2023
 31
0.0
  0
LINE
  8
0
 62
     0
 10
51.2329
 20
69.2023
 30
0.0
 11
50.4321
 21
69.2023
 31
0.0
  0
LINE
  8
0
 62
     0
 10
50.4321
 20
69.2023
 30
0.0
 11
50.4321
 21
75.0013
 31
0.0
  0
LINE
  8
0
 62
     0
 10
50.4321
 20
75.0013
 30
0.0
 11
51.2329
 21
75.0013
 31
0.0
  0
LINE
  8
0
 62
     0
 10
51.2329
 20
75.0013
 30
0.0
 11
51.2329
 21
78.1018
 31
0.0
  0
LINE
  8
0
 62
     0
 10
51.2329
 20
78.1018
 30
0.0
 11
50.4321
 21
78.1018
 31
0.0
  0
LINE
  8
0
 62
     0
 10
50.4321
 20
78.1018
 30
0.0
 11
50.4321
 21
79.1023
 31
0.0
  0
LINE
  8
0
 62
     0
 10
50.4321
 20
79.1023
 30
0.0
 11
36.4324
 21
79.1023
 31
0.0
  0
LINE
  8
0
 62
     0
 10
60.2449
 20
83.8648
 30
0.0
 11
60.2449
 21
82.8643
 31
0.0
  0
LINE
  8
0
 62
     0
 10
60.2449
 20
82.8643
 30
0.0
 11
59.4445
 21
82.8643
 31
0.0
  0
LINE
  8
0
 62
     0
 10
59.4445
 20
82.8643
 30
0.0
 11
59.4445
 21
79.7648
 31
0.0
  0
LINE
  8
0
 62
     0
 10
59.4445
 20
79.7648
 30
0.0
 11
60.2449
 21
79.7648
 31
0.0
  0
LINE
  8
0
 62
     0
 10
60.2449
 20
79.7648
 30
0.0
 11
60.2449
 21
73.9648
 31
0.0
  0
LINE
  8
0
 62
     0
 10
60.2449
 20
73.9648
 30
0.0
 11
59.4445
 21
73.9648
 31
0.0
  0
LINE
  8
0
 62
     0
 10
59.4445
 20
73.9648
 30
0.0
 11
59.4445
 21
70.8642
 31
0.0
  0
LINE
  8
0
 62
     0
 10
59.4445
 20
70.8642
 30
0.0
 11
60.2449
 21
70.8642
 31
0.0
  0
LINE
  8
0
 62
     0
 10
60.2449
 20
70.8642
 30
0.0
 11
60.2449
 21
69.8652
 31
0.0
  0
LINE
  8
0
 62
     0
 10
60.2449
 20
69.8652
 30
0.0
 11
74.246
 21
69.8652
 31
0.0
  0
LINE
  8
0
 62
     0
 10
74.246
 20
69.8652
 30
0.0
 11
74.246
 21
70.8642
 31
0.0
  0
LINE
  8
0
 62
     0
 10
74.246
 20
70.8642
 30
0.0
 11
75.0454
 21
70.8642
 31
0.0
  0
LINE
  8
0
 62
     0
 10
75.0454
 20
70.8642
 30
0.0
 11
75.0454
 21
73.9648
 31
0.0
  0
LINE
  8
0
 62
     0
 10
75.0454
 20
73.9648
 30
0.0
 11
74.246
 21
73.9648
 31
0.0
  0
LINE
  8
0
 62
     0
 10
74.246
 20
73.9648
 30
0.0
 11
74.246
 21
79.7648
 31
0.0
  0
LINE
  8
0
 62
     0
 10
74.246
 20
79.7648
 30
0.0
 11
75.0454
 21
79.7648
 31
0.0
  0
LINE
  8
0
 62
     0
 10
75.0454
 20
79.7648
 30
0.0
 11
75.0454
 21
82.8643
 31
0.0
  0
LINE
  8
0
 62
     0
 10
75.0454
 20
82.8643
 30
0.0
 11
74.246
 21
82.8643
 31
0.0
  0
LINE
  8
0
 62
     0
 10
74.246
 20
82.8643
 30
0.0
 11
74.246
 21
83.8648
 31
0.0
  0
LINE
  8
0
 62
     0
 10
74.246
 20
83.8648
 30
0.0
 11
60.2449
 21
83.8648
 31
0.0
  0
LINE
  8
0
 62
     0
 10
79.2949
 20
83.8648
 30
0.0
 11
79.2949
 21
82.8643
 31
0.0
  0
LINE
  8
0
 62
     0
 10
79.2949
 20
82.8643
 30
0.0
 11
78.4959
 21
82.8643
 31
0.0
  0
LINE
  8
0
 62
     0
 10
78.4959
 20
82.8643
 30
0.0
 11
78.4959
 21
79.7648
 31
0.0
  0
LINE
  8
0
 62
     0
 10
78.4959
 20
79.7648
 30
0.0
 11
79.2949
 21
79.7648
 31
0.0
  0
LINE
  8
0
 62
     0
 10
79.2949
 20
79.7648
 30
0.0
 11
79.2949
 21
73.9648
 31
0.0
  0
LINE
  8
0
 62
     0
 10
79.2949
 20
73.9648
 30
0.0
 11
78.4959
 21
73.9648
 31
0.0
  0
LINE
  8
0
 62
     0
 10
78.4959
 20
73.9648
 30
0.0
 11
78.4959
 21
70.8642
 31
0.0
  0
LINE
  8
0
 62
     0
 10
78.4959
 20
70.8642
 30
0.0
 11
79.2949
 21
70.8642
 31
0.0
  0
LINE
  8
0
 62
     0
 10
79.2949
 20
70.8642
 30
0.0
 11
79.2949
 21
69.8652
 31
0.0
  0
LINE
  8
0
 62
     0
 10
79.2949
 20
69.8652
 30
0.0
 11
93.296
 21
69.8652
 31
0.0
  0
LINE
  8
0
 62
     0
 10
93.296
 20
69.8652
 30
0.0
 11
93.296
 21
70.8642
 31
0.0
  0
LINE
  8
0
 62
     0
 10
93.296
 20
70.8642
 30
0.0
 11
94.0954
 21
70.8642
 31
0.0
  0
LINE
  8
0
 62
     0
 10
94.0954
 20
70.8642
 30
0.0
 11
94.0954
 21
73.9648
 31
0.0
  0
LINE
  8
0
 62
     0
 10
94.0954
 20
73.9648
 30
0.0
 11
93.296
 21
73.9648
 31
0.0
  0
LINE
  8
0
 62
     0
 10
93.296
 20
73.9648
 30
0.0
 11
93.296
 21
79.7648
 31
0.0
  0
LINE
  8
0
 62
     0
 10
93.296
 20
79.7648
 30
0.0
 11
94.0954
 21
79.7648
 31
0.0
  0
LINE
  8
0
 62
     0
 10
94.0954
 20
79.7648
 30
0.0
 11
94.0954
 21
82.8643
 31
0.0
  0
LINE
  8
0
 62
     0
 10
94.0954
 20
82.8643
 30
0.0
 11
93.296
 21
82.8643
 31
0.0
  0
LINE
  8
0
 62
     0
 10
93.296
 20
82.8643
 30
0.0
 11
93.296
 21
83.8648
 31
0.0
  0
LINE
  8
0
 62
     0
 10
93.296
 20
83.8648
 30
0.0
 11
79.2949
 21
83.8648
 31
0.0
  0
LINE
  8
0
 62
     0
 10
98.3449
 20
83.8648
 30
0.0
 11
98.3449
 21
82.8643
 31
0.0
  0
LINE
  8
0
 62
     0
 10
98.3449
 20
82.8643
 30
0.0
 11
97.5459
 21
82.8643
 31
0.0
  0
LINE
  8
0
 62
     0
 10
97.5459
 20
82.8643
 30
0.0
 11
97.5459
 21
79.7648
 31
0.0
  0
LINE
  8
0
 62
     0
 10
97.5459
 20
79.7648
 30
0.0
 11
98.3449
 21
79.7648
 31
0.0
  0
LINE
  8
0
 62
     0
 10
98.3449
 20
79.7648
 30
0.0
 11
98.3449
 21
73.9648
 31
0.0
  0
LINE
  8
0
 62
     0
 10
98.3449
 20
73.9648
 30
0.0
 11
97.5459
 21
73.9648
 31
0.0
  0
LINE
  8
0
 62
     0
 10
97.5459
 20
73.9648
 30
0.0
 11
97.5459
 21
70.8642
 31
0.0
  0
LINE
  8
0
 62
     0
 10
97.5459
 20
70.8642
 30
0.0
 11
98.3449
 21
70.8642
 31
0.0
  0
LINE
  8
0
 62
     0
 10
98.3449
 20
70.8642
 30
0.0
 11
98.3449
 21
69.8652
 31
0.0
  0
LINE
  8
0
 62
     0
 10
98.3449
 20
69.8652
 30
0.0
 11
112.346
 21
69.8652
 31
0.0
  0
LINE
  8
0
 62
     0
 10
112.346
 20
69.8652
 30
0.0
 11
112.346
 21
70.8642
 31
0.0
  0
LINE
  8
0
 62
     0
 10
112.346
 20
70.8642
 30
0.0
 11
113.145
 21
70.8642
 31
0.0
  0
LINE
  8
0
 62
     0
 10
113.145
 20
70.8642
 30
0.0
 11
113.145
 21
73.9648
 31
0.0
  0
LINE
  8
0
 62
     0
 10
113.145
 20
73.9648
 30
0.0
 11
112.346
 21
73.9648
 31
0.0
  0
LINE
  8
0
 62
     0
 10
112.346
 20
73.9648
 30
0.0
 11
112.346
 21
79.7648
 31
0.0
  0
LINE
  8
0
 62
     0
 10
112.346
 20
79.7648
 30
0.0
 11
113.145
 21
79.7648
 31
0.0
  0
LINE
  8
0
 62
     0
 10
113.145
 20
79.7648
 30
0.0
 11
113.145
 21
82.8643
 31
0.0
  0
LINE
  8
0
 62
     0
 10
113.145
 20
82.8643
 30
0.0
 11
112.346
 21
82.8643
 31
0.0
  0
LINE
  8
0
 62
     0
 10
112.346
 20
82.8643
 30
0.0
 11
112.346
 21
83.8648
 31
0.0
  0
LINE
  8
0
 62
     0
 10
112.346
 20
83.8648
 30
0.0
 11
98.3449
 21
83.8648
 31
0.0
  0
LINE
  8
0
 62
     0
 10
117.395
 20
83.8648
 30
0.0
 11
117.395
 21
82.8643
 31
0.0
  0
LINE
  8
0
 62
     0
 10
117.395
 20
82.8643
 30
0.0
 11
116.596
 21
82.8643
 31
0.0
  0
LINE
  8
0
 62
     0
 10
116.596
 20
82.8643
 30
0.0
 11
116.596
 21
79.7648
 31
0.0
  0
LINE
  8
0
 62
     0
 10
116.596
 20
79.7648
 30
0.0
 11
117.395
 21
79.7648
 31
0.0
  0
LINE
  8
0
 62
     0
 10
117.395
 20
79.7648
 30
0.0
 11
117.395
 21
73.9648
 31
0.0
  0
LINE
  8
0
 62
     0
 10
117.395
 20
73.9648
 30
0.0
 11
116.596
 21
73.9648
 31
0.0
  0
LINE
  8
0
 62
     0
 10
116.596
 20
73.9648
 30
0.0
 11
116.596
 21
70.8642
 31
0.0
  0
LINE
  8
0
 62
     0
 10
116.596
 20
70.8642
 30
0.0
 11
117.395
 21
70.8642
 31
0.0
  0
LINE
  8
0
 62
     0
 10
117.395
 20
70.8642
 30
0.0
 11
117.395
 21
69.8652
 31
0.0
  0
LINE
  8
0
 62
     0
 10
117.395
 20
69.8652
 30
0.0
 11
131.396
 21
69.8652
 31
0.0
  0
LINE
  8
0
 62
     0
 10
131.396
 20
69.8652
 30
0.0
 11
131.396
 21
70.8642
 31
0.0
  0
LINE
  8
0
 62
     0
 10
131.396
 20
70.8642
 30
0.0
 11
132.195
 21
70.8642
 31
0.0
  0
LINE
  8
0
 62
     0
 10
132.195
 20
70.8642
 30
0.0
 11
132.195
 21
73.9648
 31
0.0
  0
LINE
  8
0
 62
     0
 10
132.195
 20
73.9648
 30
0.0
 11
131.396
 21
73.9648
 31
0.0
  0
LINE
  8
0
 62
     0
 10
131.396
 20
73.9648
 30
0.0
 11
131.396
 21
79.7648
 31
0.0
  0
LINE
  8
0
 62
     0
 10
131.396
 20
79.7648
 30
0.0
 11
132.195
 21
79.7648
 31
0.0
  0
LINE
  8
0
 62
     0
 10
132.195
 20
79.7648
 30
0.0
 11
132.195
 21
82.8643
 31
0.0
  0
LINE
  8
0
 62
     0
 10
132.195
 20
82.8643
 30
0.0
 11
131.396
 21
82.8643
 31
0.0
  0
LINE
  8
0
 62
     0
 10
131.396
 20
82.8643
 30
0.0
 11
131.396
 21
83.8648
 31
0.0
  0
LINE
  8
0
 62
     0
 10
131.396
 20
83.8648
 30
0.0
 11
117.395
 21
83.8648
 31
0.0
  0
LINE
  8
0
 62
     0
 10
12.6201
 20
102.915
 30
0.0
 11
12.6201
 21
101.914
 31
0.0
  0
LINE
  8
0
 62
     0
 10
12.6201
 20
101.914
 30
0.0
 11
11.8194
 21
101.914
 31
0.0
  0
LINE
  8
0
 62
     0
 10
11.8194
 20
101.914
 30
0.0
 11
11.8194
 21
98.8148
 31
0.0
  0
LINE
  8
0
 62
     0
 10
11.8194
 20
98.8148
 30
0.0
 11
12.6201
 21
98.8148
 31
0.0
  0
LINE
  8
0
 62
     0
 10
12.6201
 20
98.8148
 30
0.0
 11
12.6201
 21
93.0148
 31
0.0
  0
LINE
  8
0
 62
     0
 10
12.6201
 20
93.0148
 30
0.0
 11
11.8194
 21
93.0148
 31
0.0
  0
LINE
  8
0
 62
     0
 10
11.8194
 20
93.0148
 30
0.0
 11
11.8194
 21
89.9142
 31
0.0
  0
LINE
  8
0
 62
     0
 10
11.8194
 20
89.9142
 30
0.0
 11
12.6201
 21
89.9142
 31
0.0
  0
LINE
  8
0
 62
     0
 10
12.6201
 20
89.9142
 30
0.0
 11
12.6201
 21
88.9152
 31
0.0
  0
LINE
  8
0
 62
     0
 10
12.6201
 20
88.9152
 30
0.0
 11
26.6209
 21
88.9152
 31
0.0
  0
LINE
  8
0
 62
     0
 10
26.6209
 20
88.9152
 30
0.0
 11
26.6209
 21
89.9142
 31
0.0
  0
LINE
  8
0
 62
     0
 10
26.6209
 20
89.9142
 30
0.0
 11
27.4188
 21
89.9142
 31
0.0
  0
LINE
  8
0
 62
     0
 10
27.4188
 20
89.9142
 30
0.0
 11
27.4188
 21
93.0148
 31
0.0
  0
LINE
  8
0
 62
     0
 10
27.4188
 20
93.0148
 30
0.0
 11
26.6209
 21
93.0148
 31
0.0
  0
LINE
  8
0
 62
     0
 10
26.6209
 20
93.0148
 30
0.0
 11
26.6209
 21
98.8148
 31
0.0
  0
LINE
  8
0
 62
     0
 10
26.6209
 20
98.8148
 30
0.0
 11
27.4188
 21
98.8148
 31
0.0
  0
LINE
  8
0
 62
     0
 10
27.4188
 20
98.8148
 30
0.0
 11
27.4188
 21
101.914
 31
0.0
  0
LINE
  8
0
 62
     0
 10
27.4188
 20
101.914
 30
0.0
 11
26.6209
 21
101.914
 31
0.0
  0
LINE
  8
0
 62
     0
 10
26.6209
 20
101.914
 30
0.0
 11
26.6209
 21
102.915
 31
0.0
  0
LINE
  8
0
 62
     0
 10
26.6209
 20
102.915
 30
0.0
 11
12.6201
 21
102.915
 31
0.0
  0
LINE
  8
0
 62
     0
 10
36.4324
 20
102.915
 30
0.0
 11
36.4324
 21
101.914
 31
0.0
  0
LINE
  8
0
 62
     0
 10
36.4324
 20
101.914
 30
0.0
 11
35.632
 21
101.914
 31
0.0
  0
LINE
  8
0
 62
     0
 10
35.632
 20
101.914
 30
0.0
 11
35.632
 21
98.8148
 31
0.0
  0
LINE
  8
0
 62
     0
 10
35.632
 20
98.8148
 30
0.0
 11
36.4324
 21
98.8148
 31
0.0
  0
LINE
  8
0
 62
     0
 10
36.4324
 20
98.8148
 30
0.0
 11
36.4324
 21
93.0148
 31
0.0
  0
LINE
  8
0
 62
     0
 10
36.4324
 20
93.0148
 30
0.0
 11
35.632
 21
93.0148
 31
0.0
  0
LINE
  8
0
 62
     0
 10
35.632
 20
93.0148
 30
0.0
 11
35.632
 21
89.9142
 31
0.0
  0
LINE
  8
0
 62
     0
 10
35.632
 20
89.9142
 30
0.0
 11
36.4324
 21
89.9142
 31
0.0
  0
LINE
  8
0
 62
     0
 10
36.4324
 20
89.9142
 30
0.0
 11
36.4324
 21
88.9152
 31
0.0
  0
LINE
  8
0
 62
     0
 10
36.4324
 20
88.9152
 30
0.0
 11
50.4321
 21
88.9152
 31
0.0
  0
LINE
  8
0
 62
     0
 10
50.4321
 20
88.9152
 30
0.0
 11
50.4321
 21
89.9142
 31
0.0
  0
LINE
  8
0
 62
     0
 10
50.4321
 20
89.9142
 30
0.0
 11
51.2329
 21
89.9142
 31
0.0
  0
LINE
  8
0
 62
     0
 10
51.2329
 20
89.9142
 30
0.0
 11
51.2329
 21
93.0148
 31
0.0
  0
LINE
  8
0
 62
     0
 10
51.2329
 20
93.0148
 30
0.0
 11
50.4321
 21
93.0148
 31
0.0
  0
LINE
  8
0
 62
     0
 10
50.4321
 20
93.0148
 30
0.0
 11
50.4321
 21
98.8148
 31
0.0
  0
LINE
  8
0
 62
     0
 10
50.4321
 20
98.8148
 30
0.0
 11
51.2329
 21
98.8148
 31
0.0
  0
LINE
  8
0
 62
     0
 10
51.2329
 20
98.8148
 30
0.0
 11
51.2329
 21
101.914
 31
0.0
  0
LINE
  8
0
 62
     0
 10
51.2329
 20
101.914
 30
0.0
 11
50.4321
 21
101.914
 31
0.0
  0
LINE
  8
0
 62
     0
 10
50.4321
 20
101.914
 30
0.0
 11
50.4321
 21
102.915
 31
0.0
  0
LINE
  8
0
 62
     0
 10
50.4321
 20
102.915
 30
0.0
 11
36.4324
 21
102.915
 31
0.0
  0
LINE
  8
0
 62
     0
 10
60.2449
 20
102.915
 30
0.0
 11
60.2449
 21
101.914
 31
0.0
  0
LINE
  8
0
 62
     0
 10
60.2449
 20
101.914
 30
0.0
 11
59.4445
 21
101.914
 31
0.0
  0
LINE
  8
0
 62
     0
 10
59.4445
 20
101.914
 30
0.0
 11
59.4445
 21
98.8148
 31
0.0
  0
LINE
  8
0
 62
     0
 10
59.4445
 20
98.8148
 30
0.0
 11
60.2449
 21
98.8148
 31
0.0
  0
LINE
  8
0
 62
     0
 10
60.2449
 20
98.8148
 30
0.0
 11
60.2449
 21
93.0148
 31
0.0
  0
LINE
  8
0
 62
     0
 10
60.2449
 20
93.0148
 30
0.0
 11
59.4445
 21
93.0148
 31
0.0
  0
LINE
  8
0
 62
     0
 10
59.4445
 20
93.0148
 30
0.0
 11
59.4445
 21
89.9142
 31
0.0
  0
LINE
  8
0
 62
     0
 10
59.4445
 20
89.9142
 30
0.0
 11
60.2449
 21
89.9142
 31
0.0
  0
LINE
  8
0
 62
     0
 10
60.2449
 20
89.9142
 30
0.0
 11
60.2449
 21
88.9152
 31
0.0
  0
LINE
  8
0
 62
     0
 10
60.2449
 20
88.9152
 30
0.0
 11
74.246
 21
88.9152
 31
0.0
  0
LINE
  8
0
 62
     0
 10
74.246
 20
88.9152
 30
0.0
 11
74.246
 21
89.9142
 31
0.0
  0
LINE
  8
0
 62
     0
 10
74.246
 20
89.9142
 30
0.0
 11
75.0454
 21
89.9142
 31
0.0
  0
LINE
  8
0
 62
     0
 10
75.0454
 20
89.9142
 30
0.0
 11
75.0454
 21
93.0148
 31
0.0
  0
LINE
  8
0
 62
     0
 10
75.0454
 20
93.0148
 30
0.0
 11
74.246
 21
93.0148
 31
0.0
  0
LINE
  8
0
 62
     0
 10
74.246
 20
93.0148
 30
0.0
 11
74.246
 21
98.8148
 31
0.0
  0
LINE
  8
0
 62
     0
 10
74.246
 20
98.8148
 30
0.0
 11
75.0454
 21
98.8148
 31
0.0
  0
LINE
  8
0
 62
     0
 10
75.0454
 20
98.8148
 30
0.0
 11
75.0454
 21
101.914
 31
0.0
  0
LINE
  8
0
 62
     0
 10
75.0454
 20
101.914
 30
0.0
 11
74.246
 21
101.914
 31
0.0
  0
LINE
  8
0
 62
     0
 10
74.246
 20
101.914
 30
0.0
 11
74.246
 21
102.915
 31
0.0
  0
LINE
  8
0
 62
     0
 10
74.246
 20
102.915
 30
0.0
 11
60.2449
 21
102.915
 31
0.0
  0
LINE
  8
0
 62
     0
 10
79.2949
 20
102.915
 30
0.0
 11
79.2949
 21
101.914
 31
0.0
  0
LINE
  8
0
 62
     0
 10
79.2949
 20
101.914
 30
0.0
 11
78.4959
 21
101.914
 31
0.0
  0
LINE
  8
0
 62
     0
 10
78.4959
 20
101.914
 30
0.0
 11
78.4959
 21
98.8148
 31
0.0
  0
LINE
  8
0
 62
     0
 10
78.4959
 20
98.8148
 30
0.0
 11
79.2949
 21
98.8148
 31
0.0
  0
LINE
  8
0
 62
     0
 10
79.2949
 20
98.8148
 30
0.0
 11
79.2949
 21
93.0148
 31
0.0
  0
LINE
  8
0
 62
     0
 10
79.2949
 20
93.0148
 30
0.0
 11
78.4959
 21
93.0148
 31
0.0
  0
LINE
  8
0
 62
     0
 10
78.4959
 20
93.0148
 30
0.0
 11
78.4959
 21
89.9142
 31
0.0
  0
LINE
  8
0
 62
     0
 10
78.4959
 20
89.9142
 30
0.0
 11
79.2949
 21
89.9142
 31
0.0
  0
LINE
  8
0
 62
     0
 10
79.2949
 20
89.9142
 30
0.0
 11
79.2949
 21
88.9152
 31
0.0
  0
LINE
  8
0
 62
     0
 10
79.2949
 20
88.9152
 30
0.0
 11
93.296
 21
88.9152
 31
0.0
  0
LINE
  8
0
 62
     0
 10
93.296
 20
88.9152
 30
0.0
 11
93.296
 21
89.9142
 31
0.0
  0
LINE
  8
0
 62
     0
 10
93.296
 20
89.9142
 30
0.0
 11
94.0954
 21
89.9142
 31
0.0
  0
LINE
  8
0
 62
     0
 10
94.0954
 20
89.9142
 30
0.0
 11
94.0954
 21
93.0148
 31
0.0
  0
LINE
  8
0
 62
     0
 10
94.0954
 20
93.0148
 30
0.0
 11
93.296
 21
93.0148
 31
0.0
  0
LINE
  8
0
 62
     0
 10
93.296
 20
93.0148
 30
0.0
 11
93.296
 21
98.8148
 31
0.0
  0
LINE
  8
0
 62
     0
 10
93.296
 20
98.8148
 30
0.0
 11
94.0954
 21
98.8148
 31
0.0
  0
LINE
  8
0
 62
     0
 10
94.0954
 20
98.8148
 30
0.0
 11
94.0954
 21
101.914
 31
0.0
  0
LINE
  8
0
 62
     0
 10
94.0954
 20
101.914
 30
0.0
 11
93.296
 21
101.914
 31
0.0
  0
LINE
  8
0
 62
     0
 10
93.296
 20
101.914
 30
0.0
 11
93.296
 21
102.915
 31
0.0
  0
LINE
  8
0
 62
     0
 10
93.296
 20
102.915
 30
0.0
 11
79.2949
 21
102.915
 31
0.0
  0
LINE
  8
0
 62
     0
 10
98.3449
 20
102.915
 30
0.0
 11
98.3449
 21
101.914
 31
0.0
  0
LINE
  8
0
 62
     0
 10
98.3449
 20
101.914
 30
0.0
 11
97.5459
 21
101.914
 31
0.0
  0
LINE
  8
0
 62
     0
 10
97.5459
 20
101.914
 30
0.0
 11
97.5459
 21
98.8148
 31
0.0
  0
LINE
  8
0
 62
     0
 10
97.5459
 20
98.8148
 30
0.0
 11
98.3449
 21
98.8148
 31
0.0
  0
LINE
  8
0
 62
     0
 10
98.3449
 20
98.8148
 30
0.0
 11
98.3449
 21
93.0148
 31
0.0
  0
LINE
  8
0
 62
     0
 10
98.3449
 20
93.0148
 30
0.0
 11
97.5459
 21
93.0148
 31
0.0
  0
LINE
  8
0
 62
     0
 10
97.5459
 20
93.0148
 30
0.0
 11
97.5459
 21
89.9142
 31
0.0
  0
LINE
  8
0
 62
     0
 10
97.5459
 20
89.9142
 30
0.0
 11
98.3449
 21
89.9142
 31
0.0
  0
LINE
  8
0
 62
     0
 10
98.3449
 20
89.9142
 30
0.0
 11
98.3449
 21
88.9152
 31
0.0
  0
LINE
  8
0
 62
     0
 10
98.3449
 20
88.9152
 30
0.0
 11
112.346
 21
88.9152
 31
0.0
  0
LINE
  8
0
 62
     0
 10
112.346
 20
88.9152
 30
0.0
 11
112.346
 21
89.9142
 31
0.0
  0
LINE
  8
0
 62
     0
 10
112.346
 20
89.9142
 30
0.0
 11
113.145
 21
89.9142
 31
0.0
  0
LINE
  8
0
 62
     0
 10
113.145
 20
89.9142
 30
0.0
 11
113.145
 21
93.0148
 31
0.0
  0
LINE
  8
0
 62
     0
 10
113.145
 20
93.0148
 30
0.0
 11
112.346
 21
93.0148
 31
0.0
  0
LINE
  8
0
 62
     0
 10
112.346
 20
93.0148
 30
0.0
 11
112.346
 21
98.8148
 31
0.0
  0
LINE
  8
0
 62
     0
 10
112.346
 20
98.8148
 30
0.0
 11
113.145
 21
98.8148
 31
0.0
  0
LINE
  8
0
 62
     0
 10
113.145
 20
98.8148
 30
0.0
 11
113.145
 21
101.914
 31
0.0
  0
LINE
  8
0
 62
     0
 10
113.145
 20
101.914
 30
0.0
 11
112.346
 21
101.914
 31
0.0
  0
LINE
  8
0
 62
     0
 10
112.346
 20
101.914
 30
0.0
 11
112.346
 21
102.915
 31
0.0
  0
LINE
  8
0
 62
     0
 10
112.346
 20
102.915
 30
0.0
 11
98.3449
 21
102.915
 31
0.0
  0
LINE
  8
0
 62
     0
 10
117.395
 20
102.915
 30
0.0
 11
117.395
 21
101.914
 31
0.0
  0
LINE
  8
0
 62
     0
 10
117.395
 20
101.914
 30
0.0
 11
116.596
 21
101.914
 31
0.0
  0
LINE
  8
0
 62
     0
 10
116.596
 20
101.914
 30
0.0
 11
116.596
 21
98.8148
 31
0.0
  0
LINE
  8
0
 62
     0
 10
116.596
 20
98.8148
 30
0.0
 11
117.395
 21
98.8148
 31
0.0
  0
LINE
  8
0
 62
     0
 10
117.395
 20
98.8148
 30
0.0
 11
117.395
 21
93.0148
 31
0.0
  0
LINE
  8
0
 62
     0
 10
117.395
 20
93.0148
 30
0.0
 11
116.596
 21
93.0148
 31
0.0
  0
LINE
  8
0
 62
     0
 10
116.596
 20
93.0148
 30
0.0
 11
116.596
 21
89.9142
 31
0.0
  0
LINE
  8
0
 62
     0
 10
116.596
 20
89.9142
 30
0.0
 11
117.395
 21
89.9142
 31
0.0
  0
LINE
  8
0
 62
     0
 10
117.395
 20
89.9142
 30
0.0
 11
117.395
 21
88.9152
 31
0.0
  0
LINE
  8
0
 62
     0
 10
117.395
 20
88.9152
 30
0.0
 11
131.396
 21
88.9152
 31
0.0
  0
LINE
  8
0
 62
     0
 10
131.396
 20
88.9152
 30
0.0
 11
131.396
 21
89.9142
 31
0.0
  0
LINE
  8
0
 62
     0
 10
131.396
 20
89.9142
 30
0.0
 11
132.195
 21
89.9142
 31
0.0
  0
LINE
  8
0
 62
     0
 10
132.195
 20
89.9142
 30
0.0
 11
132.195
 21
93.0148
 31
0.0
  0
LINE
  8
0
 62
     0
 10
132.195
 20
93.0148
 30
0.0
 11
131.396
 21
93.0148
 31
0.0
  0
LINE
  8
0
 62
     0
 10
131.396
 20
93.0148
 30
0.0
 11
131.396
 21
98.8148
 31
0.0
  0
LINE
  8
0
 62
     0
 10
131.396
 20
98.8148
 30
0.0
 11
132.195
 21
98.8148
 31
0.0
  0
LINE
  8
0
 62
     0
 10
132.195
 20
98.8148
 30
0.0
 11
132.195
 21
101.914
 31
0.0
  0
LINE
  8
0
 62
     0
 10
132.195
 20
101.914
 30
0.0
 11
131.396
 21
101.914
 31
0.0
  0
LINE
  8
0
 62
     0
 10
131.396
 20
101.914
 30
0.0
 11
131.396
 21
102.915
 31
0.0
  0
LINE
  8
0
 62
     0
 10
131.396
 20
102.915
 30
0.0
 11
117.395
 21
102.915
 31
0.0
  0
LINE
  8
0
 62
     0
 10
145.97
 20
102.915
 30
0.0
 11
145.97
 21
101.914
 31
0.0
  0
LINE
  8
0
 62
     0
 10
145.97
 20
101.914
 30
0.0
 11
145.171
 21
101.914
 31
0.0
  0
LINE
  8
0
 62
     0
 10
145.171
 20
101.914
 30
0.0
 11
145.171
 21
98.8148
 31
0.0
  0
LINE
  8
0
 62
     0
 10
145.171
 20
98.8148
 30
0.0
 11
145.97
 21
98.8148
 31
0.0
  0
LINE
  8
0
 62
     0
 10
145.97
 20
98.8148
 30
0.0
 11
145.97
 21
93.0148
 31
0.0
  0
LINE
  8
0
 62
     0
 10
145.97
 20
93.0148
 30
0.0
 11
145.171
 21
93.0148
 31
0.0
  0
LINE
  8
0
 62
     0
 10
145.171
 20
93.0148
 30
0.0
 11
145.171
 21
89.9142
 31
0.0
  0
LINE
  8
0
 62
     0
 10
145.171
 20
89.9142
 30
0.0
 11
145.97
 21
89.9142
 31
0.0
  0
LINE
  8
0
 62
     0
 10
145.97
 20
89.9142
 30
0.0
 11
145.97
 21
88.9152
 31
0.0
  0
LINE
  8
0
 62
     0
 10
145.97
 20
88.9152
 30
0.0
 11
159.971
 21
88.9152
 31
0.0
  0
LINE
  8
0
 62
     0
 10
159.971
 20
88.9152
 30
0.0
 11
159.971
 21
89.9142
 31
0.0
  0
LINE
  8
0
 62
     0
 10
159.971
 20
89.9142
 30
0.0
 11
160.77
 21
89.9142
 31
0.0
  0
LINE
  8
0
 62
     0
 10
160.77
 20
89.9142
 30
0.0
 11
160.77
 21
93.0148
 31
0.0
  0
LINE
  8
0
 62
     0
 10
160.77
 20
93.0148
 30
0.0
 11
159.971
 21
93.0148
 31
0.0
  0
LINE
  8
0
 62
     0
 10
159.971
 20
93.0148
 30
0.0
 11
159.971
 21
98.8148
 31
0.0
  0
LINE
  8
0
 62
     0
 10
159.971
 20
98.8148
 30
0.0
 11
160.77
 21
98.8148
 31
0.0
  0
LINE
  8
0
 62
     0
 10
160.77
 20
98.8148
 30
0.0
 11
160.77
 21
101.914
 31
0.0
  0
LINE
  8
0
 62
     0
 10
160.77
 20
101.914
 30
0.0
 11
159.971
 21
101.914
 31
0.0
  0
LINE
  8
0
 62
     0
 10
159.971
 20
101.914
 30
0.0
 11
159.971
 21
102.915
 31
0.0
  0
LINE
  8
0
 62
     0
 10
159.971
 20
102.915
 30
0.0
 11
145.97
 21
102.915
 31
0.0
  0
LINE
  8
0
 62
     0
 10
165.02
 20
102.915
 30
0.0
 11
165.02
 21
101.914
 31
0.0
  0
LINE
  8
0
 62
     0
 10
165.02
 20
101.914
 30
0.0
 11
164.221
 21
101.914
 31
0.0
  0
LINE
  8
0
 62
     0
 10
164.221
 20
101.914
 30
0.0
 11
164.221
 21
98.8148
 31
0.0
  0
LINE
  8
0
 62
     0
 10
164.221
 20
98.8148
 30
0.0
 11
165.02
 21
98.8148
 31
0.0
  0
LINE
  8
0
 62
     0
 10
165.02
 20
98.8148
 30
0.0
 11
165.02
 21
93.0148
 31
0.0
  0
LINE
  8
0
 62
     0
 10
165.02
 20
93.0148
 30
0.0
 11
164.221
 21
93.0148
 31
0.0
  0
LINE
  8
0
 62
     0
 10
164.221
 20
93.0148
 30
0.0
 11
164.221
 21
89.9142
 31
0.0
  0
LINE
  8
0
 62
     0
 10
164.221
 20
89.9142
 30
0.0
 11
165.02
 21
89.9142
 31
0.0
  0
LINE
  8
0
 62
     0
 10
165.02
 20
89.9142
 30
0.0
 11
165.02
 21
88.9152
 31
0.0
  0
LINE
  8
0
 62
     0
 10
165.02
 20
88.9152
 30
0.0
 11
179.021
 21
88.9152
 31
0.0
  0
LINE
  8
0
 62
     0
 10
179.021
 20
88.9152
 30
0.0
 11
179.021
 21
89.9142
 31
0.0
  0
LINE
  8
0
 62
     0
 10
179.021
 20
89.9142
 30
0.0
 11
179.82
 21
89.9142
 31
0.0
  0
LINE
  8
0
 62
     0
 10
179.82
 20
89.9142
 30
0.0
 11
179.82
 21
93.0148
 31
0.0
  0
LINE
  8
0
 62
     0
 10
179.82
 20
93.0148
 30
0.0
 11
179.021
 21
93.0148
 31
0.0
  0
LINE
  8
0
 62
     0
 10
179.021
 20
93.0148
 30
0.0
 11
179.021
 21
98.8148
 31
0.0
  0
LINE
  8
0
 62
     0
 10
179.021
 20
98.8148
 30
0.0
 11
179.82
 21
98.8148
 31
0.0
  0
LINE
  8
0
 62
     0
 10
179.82
 20
98.8148
 30
0.0
 11
179.82
 21
101.914
 31
0.0
  0
LINE
  8
0
 62
     0
 10
179.82
 20
101.914
 30
0.0
 11
179.021
 21
101.914
 31
0.0
  0
LINE
  8
0
 62
     0
 10
179.021
 20
101.914
 30
0.0
 11
179.021
 21
102.915
 31
0.0
  0
LINE
  8
0
 62
     0
 10
179.021
 20
102.915
 30
0.0
 11
165.02
 21
102.915
 31
0.0
  0
LINE
  8
0
 62
     0
 10
184.07
 20
102.915
 30
0.0
 11
184.07
 21
101.914
 31
0.0
  0
LINE
  8
0
 62
     0
 10
184.07
 20
101.914
 30
0.0
 11
183.271
 21
101.914
 31
0.0
  0
LINE
  8
0
 62
     0
 10
183.271
 20
101.914
 30
0.0
 11
183.271
 21
98.8148
 31
0.0
  0
LINE
  8
0
 62
     0
 10
183.271
 20
98.8148
 30
0.0
 11
184.07
 21
98.8148
 31
0.0
  0
LINE
  8
0
 62
     0
 10
184.07
 20
98.8148
 30
0.0
 11
184.07
 21
93.0148
 31
0.0
  0
LINE
  8
0
 62
     0
 10
184.07
 20
93.0148
 30
0.0
 11
183.271
 21
93.0148
 31
0.0
  0
LINE
  8
0
 62
     0
 10
183.271
 20
93.0148
 30
0.0
 11
183.271
 21
89.9142
 31
0.0
  0
LINE
  8
0
 62
     0
 10
183.271
 20
89.9142
 30
0.0
 11
184.07
 21
89.9142
 31
0.0
  0
LINE
  8
0
 62
     0
 10
184.07
 20
89.9142
 30
0.0
 11
184.07
 21
88.9152
 31
0.0
  0
LINE
  8
0
 62
     0
 10
184.07
 20
88.9152
 30
0.0
 11
198.071
 21
88.9152
 31
0.0
  0
LINE
  8
0
 62
     0
 10
198.071
 20
88.9152
 30
0.0
 11
198.071
 21
89.9142
 31
0.0
  0
LINE
  8
0
 62
     0
 10
198.071
 20
89.9142
 30
0.0
 11
198.87
 21
89.9142
 31
0.0
  0
LINE
  8
0
 62
     0
 10
198.87
 20
89.9142
 30
0.0
 11
198.87
 21
93.0148
 31
0.0
  0
LINE
  8
0
 62
     0
 10
198.87
 20
93.0148
 30
0.0
 11
198.071
 21
93.0148
 31
0.0
  0
LINE
  8
0
 62
     0
 10
198.071
 20
93.0148
 30
0.0
 11
198.071
 21
98.8148
 31
0.0
  0
LINE
  8
0
 62
     0
 10
198.071
 20
98.8148
 30
0.0
 11
198.87
 21
98.8148
 31
0.0
  0
LINE
  8
0
 62
     0
 10
198.87
 20
98.8148
 30
0.0
 11
198.87
 21
101.914
 31
0.0
  0
LINE
  8
0
 62
     0
 10
198.87
 20
101.914
 30
0.0
 11
198.071
 21
101.914
 31
0.0
  0
LINE
  8
0
 62
     0
 10
198.071
 20
101.914
 30
0.0
 11
198.071
 21
102.915
 31
0.0
  0
LINE
  8
0
 62
     0
 10
198.071
 20
102.915
 30
0.0
 11
184.07
 21
102.915
 31
0.0
  0
LINE
  8
0
 62
     0
 10
12.6201
 20
136.252
 30
0.0
 11
12.6201
 21
135.252
 31
0.0
  0
LINE
  8
0
 62
     0
 10
12.6201
 20
135.252
 30
0.0
 11
11.8194
 21
135.252
 31
0.0
  0
LINE
  8
0
 62
     0
 10
11.8194
 20
135.252
 30
0.0
 11
11.8194
 21
132.151
 31
0.0
  0
LINE
  8
0
 62
     0
 10
11.8194
 20
132.151
 30
0.0
 11
12.6201
 21
132.151
 31
0.0
  0
LINE
  8
0
 62
     0
 10
12.6201
 20
132.151
 30
0.0
 11
12.6201
 21
126.352
 31
0.0
  0
LINE
  8
0
 62
     0
 10
12.6201
 20
126.352
 30
0.0
 11
11.8194
 21
126.352
 31
0.0
  0
LINE
  8
0
 62
     0
 10
11.8194
 20
126.352
 30
0.0
 11
11.8194
 21
123.252
 31
0.0
  0
LINE
  8
0
 62
     0
 10
11.8194
 20
123.252
 30
0.0
 11
12.6201
 21
123.252
 31
0.0
  0
LINE
  8
0
 62
     0
 10
12.6201
 20
123.252
 30
0.0
 11
12.6201
 21
122.251
 31
0.0
  0
LINE
  8
0
 62
     0
 10
12.6201
 20
122.251
 30
0.0
 11
26.6209
 21
122.251
 31
0.0
  0
LINE
  8
0
 62
     0
 10
26.6209
 20
122.251
 30
0.0
 11
26.6209
 21
123.252
 31
0.0
  0
LINE
  8
0
 62
     0
 10
26.6209
 20
123.252
 30
0.0
 11
27.4188
 21
123.252
 31
0.0
  0
LINE
  8
0
 62
     0
 10
27.4188
 20
123.252
 30
0.0
 11
27.4188
 21
126.352
 31
0.0
  0
LINE
  8
0
 62
     0
 10
27.4188
 20
126.352
 30
0.0
 11
26.6209
 21
126.352
 31
0.0
  0
LINE
  8
0
 62
     0
 10
26.6209
 20
126.352
 30
0.0
 11
26.6209
 21
132.151
 31
0.0
  0
LINE
  8
0
 62
     0
 10
26.6209
 20
132.151
 30
0.0
 11
27.4188
 21
132.151
 31
0.0
  0
LINE
  8
0
 62
     0
 10
27.4188
 20
132.151
 30
0.0
 11
27.4188
 21
135.252
 31
0.0
  0
LINE
  8
0
 62
     0
 10
27.4188
 20
135.252
 30
0.0
 11
26.6209
 21
135.252
 31
0.0
  0
LINE
  8
0
 62
     0
 10
26.6209
 20
135.252
 30
0.0
 11
26.6209
 21
136.252
 31
0.0
  0
LINE
  8
0
 62
     0
 10
26.6209
 20
136.252
 30
0.0
 11
12.6201
 21
136.252
 31
0.0
  0
LINE
  8
0
 62
     0
 10
31.6701
 20
136.252
 30
0.0
 11
31.6701
 21
135.252
 31
0.0
  0
LINE
  8
0
 62
     0
 10
31.6701
 20
135.252
 30
0.0
 11
30.8708
 21
135.252
 31
0.0
  0
LINE
  8
0
 62
     0
 10
30.8708
 20
135.252
 30
0.0
 11
30.8708
 21
132.151
 31
0.0
  0
LINE
  8
0
 62
     0
 10
30.8708
 20
132.151
 30
0.0
 11
31.6701
 21
132.151
 31
0.0
  0
LINE
  8
0
 62
     0
 10
31.6701
 20
132.151
 30
0.0
 11
31.6701
 21
126.352
 31
0.0
  0
LINE
  8
0
 62
     0
 10
31.6701
 20
126.352
 30
0.0
 11
30.8708
 21
126.352
 31
0.0
  0
LINE
  8
0
 62
     0
 10
30.8708
 20
126.352
 30
0.0
 11
30.8708
 21
123.252
 31
0.0
  0
LINE
  8
0
 62
     0
 10
30.8708
 20
123.252
 30
0.0
 11
31.6701
 21
123.252
 31
0.0
  0
LINE
  8
0
 62
     0
 10
31.6701
 20
123.252
 30
0.0
 11
31.6701
 21
122.251
 31
0.0
  0
LINE
  8
0
 62
     0
 10
31.6701
 20
122.251
 30
0.0
 11
45.671
 21
122.251
 31
0.0
  0
LINE
  8
0
 62
     0
 10
45.671
 20
122.251
 30
0.0
 11
45.671
 21
123.252
 31
0.0
  0
LINE
  8
0
 62
     0
 10
45.671
 20
123.252
 30
0.0
 11
46.4704
 21
123.252
 31
0.0
  0
LINE
  8
0
 62
     0
 10
46.4704
 20
123.252
 30
0.0
 11
46.4704
 21
126.352
 31
0.0
  0
LINE
  8
0
 62
     0
 10
46.4704
 20
126.352
 30
0.0
 11
45.671
 21
126.352
 31
0.0
  0
LINE
  8
0
 62
     0
 10
45.671
 20
126.352
 30
0.0
 11
45.671
 21
132.151
 31
0.0
  0
LINE
  8
0
 62
     0
 10
45.671
 20
132.151
 30
0.0
 11
46.4704
 21
132.151
 31
0.0
  0
LINE
  8
0
 62
     0
 10
46.4704
 20
132.151
 30
0.0
 11
46.4704
 21
135.252
 31
0.0
  0
LINE
  8
0
 62
     0
 10
46.4704
 20
135.252
 30
0.0
 11
45.671
 21
135.252
 31
0.0
  0
LINE
  8
0
 62
     0
 10
45.671
 20
135.252
 30
0.0
 11
45.671
 21
136.252
 31
0.0
  0
LINE
  8
0
 62
     0
 10
45.671
 20
136.252
 30
0.0
 11
31.6701
 21
136.252
 31
0.0
  0
LINE
  8
0
 62
     0
 10
50.7199
 20
136.252
 30
0.0
 11
50.7199
 21
135.252
 31
0.0
  0
LINE
  8
0
 62
     0
 10
50.7199
 20
135.252
 30
0.0
 11
49.9209
 21
135.252
 31
0.0
  0
LINE
  8
0
 62
     0
 10
49.9209
 20
135.252
 30
0.0
 11
49.9209
 21
132.151
 31
0.0
  0
LINE
  8
0
 62
     0
 10
49.9209
 20
132.151
 30
0.0
 11
50.7199
 21
132.151
 31
0.0
  0
LINE
  8
0
 62
     0
 10
50.7199
 20
132.151
 30
0.0
 11
50.7199
 21
126.352
 31
0.0
  0
LINE
  8
0
 62
     0
 10
50.7199
 20
126.352
 30
0.0
 11
49.9209
 21
126.352
 31
0.0
  0
LINE
  8
0
 62
     0
 10
49.9209
 20
126.352
 30
0.0
 11
49.9209
 21
123.252
 31
0.0
  0
LINE
  8
0
 62
     0
 10
49.9209
 20
123.252
 30
0.0
 11
50.7199
 21
123.252
 31
0.0
  0
LINE
  8
0
 62
     0
 10
50.7199
 20
123.252
 30
0.0
 11
50.7199
 21
122.251
 31
0.0
  0
LINE
  8
0
 62
     0
 10
50.7199
 20
122.251
 30
0.0
 11
64.721
 21
122.251
 31
0.0
  0
LINE
  8
0
 62
     0
 10
64.721
 20
122.251
 30
0.0
 11
64.721
 21
123.252
 31
0.0
  0
LINE
  8
0
 62
     0
 10
64.721
 20
123.252
 30
0.0
 11
65.5204
 21
123.252
 31
0.0
  0
LINE
  8
0
 62
     0
 10
65.5204
 20
123.252
 30
0.0
 11
65.5204
 21
126.352
 31
0.0
  0
LINE
  8
0
 62
     0
 10
65.5204
 20
126.352
 30
0.0
 11
64.721
 21
126.352
 31
0.0
  0
LINE
  8
0
 62
     0
 10
64.721
 20
126.352
 30
0.0
 11
64.721
 21
132.151
 31
0.0
  0
LINE
  8
0
 62
     0
 10
64.721
 20
132.151
 30
0.0
 11
65.5204
 21
132.151
 31
0.0
  0
LINE
  8
0
 62
     0
 10
65.5204
 20
132.151
 30
0.0
 11
65.5204
 21
135.252
 31
0.0
  0
LINE
  8
0
 62
     0
 10
65.5204
 20
135.252
 30
0.0
 11
64.721
 21
135.252
 31
0.0
  0
LINE
  8
0
 62
     0
 10
64.721
 20
135.252
 30
0.0
 11
64.721
 21
136.252
 31
0.0
  0
LINE
  8
0
 62
     0
 10
64.721
 20
136.252
 30
0.0
 11
50.7199
 21
136.252
 31
0.0
  0
LINE
  8
0
 62
     0
 10
79.2949
 20
136.252
 30
0.0
 11
79.2949
 21
135.252
 31
0.0
  0
LINE
  8
0
 62
     0
 10
79.2949
 20
135.252
 30
0.0
 11
78.4959
 21
135.252
 31
0.0
  0
LINE
  8
0
 62
     0
 10
78.4959
 20
135.252
 30
0.0
 11
78.4959
 21
132.151
 31
0.0
  0
LINE
  8
0
 62
     0
 10
78.4959
 20
132.151
 30
0.0
 11
79.2949
 21
132.151
 31
0.0
  0
LINE
  8
0
 62
     0
 10
79.2949
 20
132.151
 30
0.0
 11
79.2949
 21
126.352
 31
0.0
  0
LINE
  8
0
 62
     0
 10
79.2949
 20
126.352
 30
0.0
 11
78.4959
 21
126.352
 31
0.0
  0
LINE
  8
0
 62
     0
 10
78.4959
 20
126.352
 30
0.0
 11
78.4959
 21
123.252
 31
0.0
  0
LINE
  8
0
 62
     0
 10
78.4959
 20
123.252
 30
0.0
 11
79.2949
 21
123.252
 31
0.0
  0
LINE
  8
0
 62
     0
 10
79.2949
 20
123.252
 30
0.0
 11
79.2949
 21
122.251
 31
0.0
  0
LINE
  8
0
 62
     0
 10
79.2949
 20
122.251
 30
0.0
 11
93.296
 21
122.251
 31
0.0
  0
LINE
  8
0
 62
     0
 10
93.296
 20
122.251
 30
0.0
 11
93.296
 21
123.252
 31
0.0
  0
LINE
  8
0
 62
     0
 10
93.296
 20
123.252
 30
0.0
 11
94.0954
 21
123.252
 31
0.0
  0
LINE
  8
0
 62
     0
 10
94.0954
 20
123.252
 30
0.0
 11
94.0954
 21
126.352
 31
0.0
  0
LINE
  8
0
 62
     0
 10
94.0954
 20
126.352
 30
0.0
 11
93.296
 21
126.352
 31
0.0
  0
LINE
  8
0
 62
     0
 10
93.296
 20
126.352
 30
0.0
 11
93.296
 21
132.151
 31
0.0
  0
LINE
  8
0
 62
     0
 10
93.296
 20
132.151
 30
0.0
 11
94.0954
 21
132.151
 31
0.0
  0
LINE
  8
0
 62
     0
 10
94.0954
 20
132.151
 30
0.0
 11
94.0954
 21
135.252
 31
0.0
  0
LINE
  8
0
 62
     0
 10
94.0954
 20
135.252
 30
0.0
 11
93.296
 21
135.252
 31
0.0
  0
LINE
  8
0
 62
     0
 10
93.296
 20
135.252
 30
0.0
 11
93.296
 21
136.252
 31
0.0
  0
LINE
  8
0
 62
     0
 10
93.296
 20
136.252
 30
0.0
 11
79.2949
 21
136.252
 31
0.0
  0
LINE
  8
0
 62
     0
 10
98.3449
 20
136.252
 30
0.0
 11
98.3449
 21
135.252
 31
0.0
  0
LINE
  8
0
 62
     0
 10
98.3449
 20
135.252
 30
0.0
 11
97.5459
 21
135.252
 31
0.0
  0
LINE
  8
0
 62
     0
 10
97.5459
 20
135.252
 30
0.0
 11
97.5459
 21
132.151
 31
0.0
  0
LINE
  8
0
 62
     0
 10
97.5459
 20
132.151
 30
0.0
 11
98.3449
 21
132.151
 31
0.0
  0
LINE
  8
0
 62
     0
 10
98.3449
 20
132.151
 30
0.0
 11
98.3449
 21
126.352
 31
0.0
  0
LINE
  8
0
 62
     0
 10
98.3449
 20
126.352
 30
0.0
 11
97.5459
 21
126.352
 31
0.0
  0
LINE
  8
0
 62
     0
 10
97.5459
 20
126.352
 30
0.0
 11
97.5459
 21
123.252
 31
0.0
  0
LINE
  8
0
 62
     0
 10
97.5459
 20
123.252
 30
0.0
 11
98.3449
 21
123.252
 31
0.0
  0
LINE
  8
0
 62
     0
 10
98.3449
 20
123.252
 30
0.0
 11
98.3449
 21
122.251
 31
0.0
  0
LINE
  8
0
 62
     0
 10
98.3449
 20
122.251
 30
0.0
 11
112.346
 21
122.251
 31
0.0
  0
LINE
  8
0
 62
     0
 10
112.346
 20
122.251
 30
0.0
 11
112.346
 21
123.252
 31
0.0
  0
LINE
  8
0
 62
     0
 10
112.346
 20
123.252
 30
0.0
 11
113.145
 21
123.252
 31
0.0
  0
LINE
  8
0
 62
     0
 10
113.145
 20
123.252
 30
0.0
 11
113.145
 21
126.352
 31
0.0
  0
LINE
  8
0
 62
     0
 10
113.145
 20
126.352
 30
0.0
 11
112.346
 21
126.352
 31
0.0
  0
LINE
  8
0
 62
     0
 10
112.346
 20
126.352
 30
0.0
 11
112.346
 21
132.151
 31
0.0
  0
LINE
  8
0
 62
     0
 10
112.346
 20
132.151
 30
0.0
 11
113.145
 21
132.151
 31
0.0
  0
LINE
  8
0
 62
     0
 10
113.145
 20
132.151
 30
0.0
 11
113.145
 21
135.252
 31
0.0
  0
LINE
  8
0
 62
     0
 10
113.145
 20
135.252
 30
0.0
 11
112.346
 21
135.252
 31
0.0
  0
LINE
  8
0
 62
     0
 10
112.346
 20
135.252
 30
0.0
 11
112.346
 21
136.252
 31
0.0
  0
LINE
  8
0
 62
     0
 10
112.346
 20
136.252
 30
0.0
 11
98.3449
 21
136.252
 31
0.0
  0
LINE
  8
0
 62
     0
 10
117.395
 20
136.252
 30
0.0
 11
117.395
 21
135.252
 31
0.0
  0
LINE
  8
0
 62
     0
 10
117.395
 20
135.252
 30
0.0
 11
116.596
 21
135.252
 31
0.0
  0
LINE
  8
0
 62
     0
 10
116.596
 20
135.252
 30
0.0
 11
116.596
 21
132.151
 31
0.0
  0
LINE
  8
0
 62
     0
 10
116.596
 20
132.151
 30
0.0
 11
117.395
 21
132.151
 31
0.0
  0
LINE
  8
0
 62
     0
 10
117.395
 20
132.151
 30
0.0
 11
117.395
 21
126.352
 31
0.0
  0
LINE
  8
0
 62
     0
 10
117.395
 20
126.352
 30
0.0
 11
116.596
 21
126.352
 31
0.0
  0
LINE
  8
0
 62
     0
 10
116.596
 20
126.352
 30
0.0
 11
116.596
 21
123.252
 31
0.0
  0
LINE
  8
0
 62
     0
 10
116.596
 20
123.252
 30
0.0
 11
117.395
 21
123.252
 31
0.0
  0
LINE
  8
0
 62
     0
 10
117.395
 20
123.252
 30
0.0
 11
117.395
 21
122.251
 31
0.0
  0
LINE
  8
0
 62
     0
 10
117.395
 20
122.251
 30
0.0
 11
131.396
 21
122.251
 31
0.0
  0
LINE
  8
0
 62
     0
 10
131.396
 20
122.251
 30
0.0
 11
131.396
 21
123.252
 31
0.0
  0
LINE
  8
0
 62
     0
 10
131.396
 20
123.252
 30
0.0
 11
132.195
 21
123.252
 31
0.0
  0
LINE
  8
0
 62
     0
 10
132.195
 20
123.252
 30
0.0
 11
132.195
 21
126.352
 31
0.0
  0
LINE
  8
0
 62
     0
 10
132.195
 20
126.352
 30
0.0
 11
131.396
 21
126.352
 31
0.0
  0
LINE
  8
0
 62
     0
 10
131.396
 20
126.352
 30
0.0
 11
131.396
 21
132.151
 31
0.0
  0
LINE
  8
0
 62
     0
 10
131.396
 20
132.151
 30
0.0
 11
132.195
 21
132.151
 31
0.0
  0
LINE
  8
0
 62
     0
 10
132.195
 20
132.151
 30
0.0
 11
132.195
 21
135.252
 31
0.0
  0
LINE
  8
0
 62
     0
 10
132.195
 20
135.252
 30
0.0
 11
131.396
 21
135.252
 31
0.0
  0
LINE
  8
0
 62
     0
 10
131.396
 20
135.252
 30
0.0
 11
131.396
 21
136.252
 31
0.0
  0
LINE
  8
0
 62
     0
 10
131.396
 20
136.252
 30
0.0
 11
117.395
 21
136.252
 31
0.0
  0
LINE
  8
0
 62
     0
 10
145.97
 20
136.252
 30
0.0
 11
145.97
 21
135.252
 31
0.0
  0
LINE
  8
0
 62
     0
 10
145.97
 20
135.252
 30
0.0
 11
145.171
 21
135.252
 31
0.0
  0
LINE
  8
0
 62
     0
 10
145.171
 20
135.252
 30
0.0
 11
145.171
 21
132.151
 31
0.0
  0
LINE
  8
0
 62
     0
 10
145.171
 20
132.151
 30
0.0
 11
145.97
 21
132.151
 31
0.0
  0
LINE
  8
0
 62
     0
 10
145.97
 20
132.151
 30
0.0
 11
145.97
 21
126.352
 31
0.0
  0
LINE
  8
0
 62
     0
 10
145.97
 20
126.352
 30
0.0
 11
145.171
 21
126.352
 31
0.0
  0
LINE
  8
0
 62
     0
 10
145.171
 20
126.352
 30
0.0
 11
145.171
 21
123.252
 31
0.0
  0
LINE
  8
0
 62
     0
 10
145.171
 20
123.252
 30
0.0
 11
145.97
 21
123.252
 31
0.0
  0
LINE
  8
0
 62
     0
 10
145.97
 20
123.252
 30
0.0
 11
145.97
 21
122.251
 31
0.0
  0
LINE
  8
0
 62
     0
 10
145.97
 20
122.251
 30
0.0
 11
159.971
 21
122.251
 31
0.0
  0
LINE
  8
0
 62
     0
 10
159.971
 20
122.251
 30
0.0
 11
159.971
 21
123.252
 31
0.0
  0
LINE
  8
0
 62
     0
 10
159.971
 20
123.252
 30
0.0
 11
160.77
 21
123.252
 31
0.0
  0
LINE
  8
0
 62
     0
 10
160.77
 20
123.252
 30
0.0
 11
160.77
 21
126.352
 31
0.0
  0
LINE
  8
0
 62
     0
 10
160.77
 20
126.352
 30
0.0
 11
159.971
 21
126.352
 31
0.0
  0
LINE
  8
0
 62
     0
 10
159.971
 20
126.352
 30
0.0
 11
159.971
 21
132.151
 31
0.0
  0
LINE
  8
0
 62
     0
 10
159.971
 20
132.151
 30
0.0
 11
160.77
 21
132.151
 31
0.0
  0
LINE
  8
0
 62
     0
 10
160.77
 20
132.151
 30
0.0
 11
160.77
 21
135.252
 31
0.0
  0
LINE
  8
0
 62
     0
 10
160.77
 20
135.252
 30
0.0
 11
159.971
 21
135.252
 31
0.0
  0
LINE
  8
0
 62
     0
 10
159.971
 20
135.252
 30
0.0
 11
159.971
 21
136.252
 31
0.0
  0
LINE
  8
0
 62
     0
 10
159.971
 20
136.252
 30
0.0
 11
145.97
 21
136.252
 31
0.0
  0
LINE
  8
0
 62
     0
 10
205.978
 20
133.535
 30
0.0
 11
205.42
 21
133.251
 31
0.0
  0
LINE
  8
0
 62
     0
 10
205.42
 20
133.251
 30
0.0
 11
204.978
 21
132.808
 31
0.0
  0
LINE
  8
0
 62
     0
 10
204.978
 20
132.808
 30
0.0
 11
204.694
 21
132.25
 31
0.0
  0
LINE
  8
0
 62
     0
 10
204.694
 20
132.25
 30
0.0
 11
204.596
 21
131.633
 31
0.0
  0
LINE
  8
0
 62
     0
 10
204.596
 20
131.633
 30
0.0
 11
204.694
 21
131.014
 31
0.0
  0
LINE
  8
0
 62
     0
 10
204.694
 20
131.014
 30
0.0
 11
204.978
 21
130.458
 31
0.0
  0
LINE
  8
0
 62
     0
 10
204.978
 20
130.458
 30
0.0
 11
205.42
 21
130.015
 31
0.0
  0
LINE
  8
0
 62
     0
 10
205.42
 20
130.015
 30
0.0
 11
205.978
 21
129.731
 31
0.0
  0
LINE
  8
0
 62
     0
 10
205.978
 20
129.731
 30
0.0
 11
206.597
 21
129.632
 31
0.0
  0
LINE
  8
0
 62
     0
 10
206.597
 20
129.632
 30
0.0
 11
207.214
 21
129.731
 31
0.0
  0
LINE
  8
0
 62
     0
 10
207.214
 20
129.731
 30
0.0
 11
207.771
 21
130.015
 31
0.0
  0
LINE
  8
0
 62
     0
 10
207.771
 20
130.015
 30
0.0
 11
208.215
 21
130.458
 31
0.0
  0
LINE
  8
0
 62
     0
 10
208.215
 20
130.458
 30
0.0
 11
208.499
 21
131.014
 31
0.0
  0
LINE
  8
0
 62
     0
 10
208.499
 20
131.014
 30
0.0
 11
208.596
 21
131.633
 31
0.0
  0
LINE
  8
0
 62
     0
 10
208.596
 20
131.633
 30
0.0
 11
208.499
 21
132.25
 31
0.0
  0
LINE
  8
0
 62
     0
 10
208.499
 20
132.25
 30
0.0
 11
208.215
 21
132.808
 31
0.0
  0
LINE
  8
0
 62
     0
 10
208.215
 20
132.808
 30
0.0
 11
207.771
 21
133.251
 31
0.0
  0
LINE
  8
0
 62
     0
 10
207.771
 20
133.251
 30
0.0
 11
207.214
 21
133.535
 31
0.0
  0
LINE
  8
0
 62
     0
 10
207.214
 20
133.535
 30
0.0
 11
206.597
 21
133.633
 31
0.0
  0
LINE
  8
0
 62
     0
 10
206.597
 20
133.633
 30
0.0
 11
205.978
 21
133.535
 31
0.0
  0
LINE
  8
0
 62
     0
 10
3.47679
 20
133.535
 30
0.0
 11
2.92006
 21
133.251
 31
0.0
  0
LINE
  8
0
 62
     0
 10
2.92006
 20
133.251
 30
0.0
 11
2.47633
 21
132.808
 31
0.0
  0
LINE
  8
0
 62
     0
 10
2.47633
 20
132.808
 30
0.0
 11
2.19246
 21
132.25
 31
0.0
  0
LINE
  8
0
 62
     0
 10
2.19246
 20
132.25
 30
0.0
 11
2.09462
 21
131.633
 31
0.0
  0
LINE
  8
0
 62
     0
 10
2.09462
 20
131.633
 30
0.0
 11
2.19246
 21
131.014
 31
0.0
  0
LINE
  8
0
 62
     0
 10
2.19246
 20
131.014
 30
0.0
 11
2.47633
 21
130.458
 31
0.0
  0
LINE
  8
0
 62
     0
 10
2.47633
 20
130.458
 30
0.0
 11
2.92006
 21
130.015
 31
0.0
  0
LINE
  8
0
 62
     0
 10
2.92006
 20
130.015
 30
0.0
 11
3.47679
 21
129.731
 31
0.0
  0
LINE
  8
0
 62
     0
 10
3.47679
 20
129.731
 30
0.0
 11
4.09554
 21
129.632
 31
0.0
  0
LINE
  8
0
 62
     0
 10
4.09554
 20
129.632
 30
0.0
 11
4.7129
 21
129.731
 31
0.0
  0
LINE
  8
0
 62
     0
 10
4.7129
 20
129.731
 30
0.0
 11
5.27099
 21
130.015
 31
0.0
  0
LINE
  8
0
 62
     0
 10
5.27099
 20
130.015
 30
0.0
 11
5.71334
 21
130.458
 31
0.0
  0
LINE
  8
0
 62
     0
 10
5.71334
 20
130.458
 30
0.0
 11
5.99722
 21
131.014
 31
0.0
  0
LINE
  8
0
 62
     0
 10
5.99722
 20
131.014
 30
0.0
 11
6.09505
 21
131.633
 31
0.0
  0
LINE
  8
0
 62
     0
 10
6.09505
 20
131.633
 30
0.0
 11
5.99722
 21
132.25
 31
0.0
  0
LINE
  8
0
 62
     0
 10
5.99722
 20
132.25
 30
0.0
 11
5.71334
 21
132.808
 31
0.0
  0
LINE
  8
0
 62
     0
 10
5.71334
 20
132.808
 30
0.0
 11
5.27099
 21
133.251
 31
0.0
  0
LINE
  8
0
 62
     0
 10
5.27099
 20
133.251
 30
0.0
 11
4.7129
 21
133.535
 31
0.0
  0
LINE
  8
0
 62
     0
 10
4.7129
 20
133.535
 30
0.0
 11
4.09554
 21
133.633
 31
0.0
  0
LINE
  8
0
 62
     0
 10
4.09554
 20
133.633
 30
0.0
 11
3.47679
 21
133.535
 31
0.0
  0
LINE
  8
0
 62
     0
 10
12.6201
 20
155.302
 30
0.0
 11
12.6201
 21
154.302
 31
0.0
  0
LINE
  8
0
 62
     0
 10
12.6201
 20
154.302
 30
0.0
 11
11.8194
 21
154.302
 31
0.0
  0
LINE
  8
0
 62
     0
 10
11.8194
 20
154.302
 30
0.0
 11
11.8194
 21
151.201
 31
0.0
  0
LINE
  8
0
 62
     0
 10
11.8194
 20
151.201
 30
0.0
 11
12.6201
 21
151.201
 31
0.0
  0
LINE
  8
0
 62
     0
 10
12.6201
 20
151.201
 30
0.0
 11
12.6201
 21
145.402
 31
0.0
  0
LINE
  8
0
 62
     0
 10
12.6201
 20
145.402
 30
0.0
 11
11.8194
 21
145.402
 31
0.0
  0
LINE
  8
0
 62
     0
 10
11.8194
 20
145.402
 30
0.0
 11
11.8194
 21
142.302
 31
0.0
  0
LINE
  8
0
 62
     0
 10
11.8194
 20
142.302
 30
0.0
 11
12.6201
 21
142.302
 31
0.0
  0
LINE
  8
0
 62
     0
 10
12.6201
 20
142.302
 30
0.0
 11
12.6201
 21
141.301
 31
0.0
  0
LINE
  8
0
 62
     0
 10
12.6201
 20
141.301
 30
0.0
 11
26.6209
 21
141.301
 31
0.0
  0
LINE
  8
0
 62
     0
 10
26.6209
 20
141.301
 30
0.0
 11
26.6209
 21
142.302
 31
0.0
  0
LINE
  8
0
 62
     0
 10
26.6209
 20
142.302
 30
0.0
 11
27.4188
 21
142.302
 31
0.0
  0
LINE
  8
0
 62
     0
 10
27.4188
 20
142.302
 30
0.0
 11
27.4188
 21
145.402
 31
0.0
  0
LINE
  8
0
 62
     0
 10
27.4188
 20
145.402
 30
0.0
 11
26.6209
 21
145.402
 31
0.0
  0
LINE
  8
0
 62
     0
 10
26.6209
 20
145.402
 30
0.0
 11
26.6209
 21
151.201
 31
0.0
  0
LINE
  8
0
 62
     0
 10
26.6209
 20
151.201
 30
0.0
 11
27.4188
 21
151.201
 31
0.0
  0
LINE
  8
0
 62
     0
 10
27.4188
 20
151.201
 30
0.0
 11
27.4188
 21
154.302
 31
0.0
  0
LINE
  8
0
 62
     0
 10
27.4188
 20
154.302
 30
0.0
 11
26.6209
 21
154.302
 31
0.0
  0
LINE
  8
0
 62
     0
 10
26.6209
 20
154.302
 30
0.0
 11
26.6209
 21
155.302
 31
0.0
  0
LINE
  8
0
 62
     0
 10
26.6209
 20
155.302
 30
0.0
 11
12.6201
 21
155.302
 31
0.0
  0
LINE
  8
0
 62
     0
 10
31.6701
 20
155.302
 30
0.0
 11
31.6701
 21
154.302
 31
0.0
  0
LINE
  8
0
 62
     0
 10
31.6701
 20
154.302
 30
0.0
 11
30.8708
 21
154.302
 31
0.0
  0
LINE
  8
0
 62
     0
 10
30.8708
 20
154.302
 30
0.0
 11
30.8708
 21
151.201
 31
0.0
  0
LINE
  8
0
 62
     0
 10
30.8708
 20
151.201
 30
0.0
 11
31.6701
 21
151.201
 31
0.0
  0
LINE
  8
0
 62
     0
 10
31.6701
 20
151.201
 30
0.0
 11
31.6701
 21
145.402
 31
0.0
  0
LINE
  8
0
 62
     0
 10
31.6701
 20
145.402
 30
0.0
 11
30.8708
 21
145.402
 31
0.0
  0
LINE
  8
0
 62
     0
 10
30.8708
 20
145.402
 30
0.0
 11
30.8708
 21
142.302
 31
0.0
  0
LINE
  8
0
 62
     0
 10
30.8708
 20
142.302
 30
0.0
 11
31.6701
 21
142.302
 31
0.0
  0
LINE
  8
0
 62
     0
 10
31.6701
 20
142.302
 30
0.0
 11
31.6701
 21
141.301
 31
0.0
  0
LINE
  8
0
 62
     0
 10
31.6701
 20
141.301
 30
0.0
 11
45.671
 21
141.301
 31
0.0
  0
LINE
  8
0
 62
     0
 10
45.671
 20
141.301
 30
0.0
 11
45.671
 21
142.302
 31
0.0
  0
LINE
  8
0
 62
     0
 10
45.671
 20
142.302
 30
0.0
 11
46.4704
 21
142.302
 31
0.0
  0
LINE
  8
0
 62
     0
 10
46.4704
 20
142.302
 30
0.0
 11
46.4704
 21
145.402
 31
0.0
  0
LINE
  8
0
 62
     0
 10
46.4704
 20
145.402
 30
0.0
 11
45.671
 21
145.402
 31
0.0
  0
LINE
  8
0
 62
     0
 10
45.671
 20
145.402
 30
0.0
 11
45.671
 21
151.201
 31
0.0
  0
LINE
  8
0
 62
     0
 10
45.671
 20
151.201
 30
0.0
 11
46.4704
 21
151.201
 31
0.0
  0
LINE
  8
0
 62
     0
 10
46.4704
 20
151.201
 30
0.0
 11
46.4704
 21
154.302
 31
0.0
  0
LINE
  8
0
 62
     0
 10
46.4704
 20
154.302
 30
0.0
 11
45.671
 21
154.302
 31
0.0
  0
LINE
  8
0
 62
     0
 10
45.671
 20
154.302
 30
0.0
 11
45.671
 21
155.302
 31
0.0
  0
LINE
  8
0
 62
     0
 10
45.671
 20
155.302
 30
0.0
 11
31.6701
 21
155.302
 31
0.0
  0
LINE
  8
0
 62
     0
 10
50.7199
 20
155.302
 30
0.0
 11
50.7199
 21
154.302
 31
0.0
  0
LINE
  8
0
 62
     0
 10
50.7199
 20
154.302
 30
0.0
 11
49.9209
 21
154.302
 31
0.0
  0
LINE
  8
0
 62
     0
 10
49.9209
 20
154.302
 30
0.0
 11
49.9209
 21
151.201
 31
0.0
  0
LINE
  8
0
 62
     0
 10
49.9209
 20
151.201
 30
0.0
 11
50.7199
 21
151.201
 31
0.0
  0
LINE
  8
0
 62
     0
 10
50.7199
 20
151.201
 30
0.0
 11
50.7199
 21
145.402
 31
0.0
  0
LINE
  8
0
 62
     0
 10
50.7199
 20
145.402
 30
0.0
 11
49.9209
 21
145.402
 31
0.0
  0
LINE
  8
0
 62
     0
 10
49.9209
 20
145.402
 30
0.0
 11
49.9209
 21
142.302
 31
0.0
  0
LINE
  8
0
 62
     0
 10
49.9209
 20
142.302
 30
0.0
 11
50.7199
 21
142.302
 31
0.0
  0
LINE
  8
0
 62
     0
 10
50.7199
 20
142.302
 30
0.0
 11
50.7199
 21
141.301
 31
0.0
  0
LINE
  8
0
 62
     0
 10
50.7199
 20
141.301
 30
0.0
 11
64.721
 21
141.301
 31
0.0
  0
LINE
  8
0
 62
     0
 10
64.721
 20
141.301
 30
0.0
 11
64.721
 21
142.302
 31
0.0
  0
LINE
  8
0
 62
     0
 10
64.721
 20
142.302
 30
0.0
 11
65.5204
 21
142.302
 31
0.0
  0
LINE
  8
0
 62
     0
 10
65.5204
 20
142.302
 30
0.0
 11
65.5204
 21
145.402
 31
0.0
  0
LINE
  8
0
 62
     0
 10
65.5204
 20
145.402
 30
0.0
 11
64.721
 21
145.402
 31
0.0
  0
LINE
  8
0
 62
     0
 10
64.721
 20
145.402
 30
0.0
 11
64.721
 21
151.201
 31
0.0
  0
LINE
  8
0
 62
     0
 10
64.721
 20
151.201
 30
0.0
 11
65.5204
 21
151.201
 31
0.0
  0
LINE
  8
0
 62
     0
 10
65.5204
 20
151.201
 30
0.0
 11
65.5204
 21
154.302
 31
0.0
  0
LINE
  8
0
 62
     0
 10
65.5204
 20
154.302
 30
0.0
 11
64.721
 21
154.302
 31
0.0
  0
LINE
  8
0
 62
     0
 10
64.721
 20
154.302
 30
0.0
 11
64.721
 21
155.302
 31
0.0
  0
LINE
  8
0
 62
     0
 10
64.721
 20
155.302
 30
0.0
 11
50.7199
 21
155.302
 31
0.0
  0
LINE
  8
0
 62
     0
 10
79.2949
 20
155.302
 30
0.0
 11
79.2949
 21
154.302
 31
0.0
  0
LINE
  8
0
 62
     0
 10
79.2949
 20
154.302
 30
0.0
 11
78.4959
 21
154.302
 31
0.0
  0
LINE
  8
0
 62
     0
 10
78.4959
 20
154.302
 30
0.0
 11
78.4959
 21
151.201
 31
0.0
  0
LINE
  8
0
 62
     0
 10
78.4959
 20
151.201
 30
0.0
 11
79.2949
 21
151.201
 31
0.0
  0
LINE
  8
0
 62
     0
 10
79.2949
 20
151.201
 30
0.0
 11
79.2949
 21
145.402
 31
0.0
  0
LINE
  8
0
 62
     0
 10
79.2949
 20
145.402
 30
0.0
 11
78.4959
 21
145.402
 31
0.0
  0
LINE
  8
0
 62
     0
 10
78.4959
 20
145.402
 30
0.0
 11
78.4959
 21
142.302
 31
0.0
  0
LINE
  8
0
 62
     0
 10
78.4959
 20
142.302
 30
0.0
 11
79.2949
 21
142.302
 31
0.0
  0
LINE
  8
0
 62
     0
 10
79.2949
 20
142.302
 30
0.0
 11
79.2949
 21
141.301
 31
0.0
  0
LINE
  8
0
 62
     0
 10
79.2949
 20
141.301
 30
0.0
 11
93.296
 21
141.301
 31
0.0
  0
LINE
  8
0
 62
     0
 10
93.296
 20
141.301
 30
0.0
 11
93.296
 21
142.302
 31
0.0
  0
LINE
  8
0
 62
     0
 10
93.296
 20
142.302
 30
0.0
 11
94.0954
 21
142.302
 31
0.0
  0
LINE
  8
0
 62
     0
 10
94.0954
 20
142.302
 30
0.0
 11
94.0954
 21
145.402
 31
0.0
  0
LINE
  8
0
 62
     0
 10
94.0954
 20
145.402
 30
0.0
 11
93.296
 21
145.402
 31
0.0
  0
LINE
  8
0
 62
     0
 10
93.296
 20
145.402
 30
0.0
 11
93.296
 21
151.201
 31
0.0
  0
LINE
  8
0
 62
     0
 10
93.296
 20
151.201
 30
0.0
 11
94.0954
 21
151.201
 31
0.0
  0
LINE
  8
0
 62
     0
 10
94.0954
 20
151.201
 30
0.0
 11
94.0954
 21
154.302
 31
0.0
  0
LINE
  8
0
 62
     0
 10
94.0954
 20
154.302
 30
0.0
 11
93.296
 21
154.302
 31
0.0
  0
LINE
  8
0
 62
     0
 10
93.296
 20
154.302
 30
0.0
 11
93.296
 21
155.302
 31
0.0
  0
LINE
  8
0
 62
     0
 10
93.296
 20
155.302
 30
0.0
 11
79.2949
 21
155.302
 31
0.0
  0
LINE
  8
0
 62
     0
 10
98.3449
 20
155.302
 30
0.0
 11
98.3449
 21
154.302
 31
0.0
  0
LINE
  8
0
 62
     0
 10
98.3449
 20
154.302
 30
0.0
 11
97.5459
 21
154.302
 31
0.0
  0
LINE
  8
0
 62
     0
 10
97.5459
 20
154.302
 30
0.0
 11
97.5459
 21
151.201
 31
0.0
  0
LINE
  8
0
 62
     0
 10
97.5459
 20
151.201
 30
0.0
 11
98.3449
 21
151.201
 31
0.0
  0
LINE
  8
0
 62
     0
 10
98.3449
 20
151.201
 30
0.0
 11
98.3449
 21
145.402
 31
0.0
  0
LINE
  8
0
 62
     0
 10
98.3449
 20
145.402
 30
0.0
 11
97.5459
 21
145.402
 31
0.0
  0
LINE
  8
0
 62
     0
 10
97.5459
 20
145.402
 30
0.0
 11
97.5459
 21
142.302
 31
0.0
  0
LINE
  8
0
 62
     0
 10
97.5459
 20
142.302
 30
0.0
 11
98.3449
 21
142.302
 31
0.0
  0
LINE
  8
0
 62
     0
 10
98.3449
 20
142.302
 30
0.0
 11
98.3449
 21
141.301
 31
0.0
  0
LINE
  8
0
 62
     0
 10
98.3449
 20
141.301
 30
0.0
 11
112.346
 21
141.301
 31
0.0
  0
LINE
  8
0
 62
     0
 10
112.346
 20
141.301
 30
0.0
 11
112.346
 21
142.302
 31
0.0
  0
LINE
  8
0
 62
     0
 10
112.346
 20
142.302
 30
0.0
 11
113.145
 21
142.302
 31
0.0
  0
LINE
  8
0
 62
     0
 10
113.145
 20
142.302
 30
0.0
 11
113.145
 21
145.402
 31
0.0
  0
LINE
  8
0
 62
     0
 10
113.145
 20
145.402
 30
0.0
 11
112.346
 21
145.402
 31
0.0
  0
LINE
  8
0
 62
     0
 10
112.346
 20
145.402
 30
0.0
 11
112.346
 21
151.201
 31
0.0
  0
LINE
  8
0
 62
     0
 10
112.346
 20
151.201
 30
0.0
 11
113.145
 21
151.201
 31
0.0
  0
LINE
  8
0
 62
     0
 10
113.145
 20
151.201
 30
0.0
 11
113.145
 21
154.302
 31
0.0
  0
LINE
  8
0
 62
     0
 10
113.145
 20
154.302
 30
0.0
 11
112.346
 21
154.302
 31
0.0
  0
LINE
  8
0
 62
     0
 10
112.346
 20
154.302
 30
0.0
 11
112.346
 21
155.302
 31
0.0
  0
LINE
  8
0
 62
     0
 10
112.346
 20
155.302
 30
0.0
 11
98.3449
 21
155.302
 31
0.0
  0
LINE
  8
0
 62
     0
 10
117.395
 20
155.302
 30
0.0
 11
117.395
 21
154.302
 31
0.0
  0
LINE
  8
0
 62
     0
 10
117.395
 20
154.302
 30
0.0
 11
116.596
 21
154.302
 31
0.0
  0
LINE
  8
0
 62
     0
 10
116.596
 20
154.302
 30
0.0
 11
116.596
 21
151.201
 31
0.0
  0
LINE
  8
0
 62
     0
 10
116.596
 20
151.201
 30
0.0
 11
117.395
 21
151.201
 31
0.0
  0
LINE
  8
0
 62
     0
 10
117.395
 20
151.201
 30
0.0
 11
117.395
 21
145.402
 31
0.0
  0
LINE
  8
0
 62
     0
 10
117.395
 20
145.402
 30
0.0
 11
116.596
 21
145.402
 31
0.0
  0
LINE
  8
0
 62
     0
 10
116.596
 20
145.402
 30
0.0
 11
116.596
 21
142.302
 31
0.0
  0
LINE
  8
0
 62
     0
 10
116.596
 20
142.302
 30
0.0
 11
117.395
 21
142.302
 31
0.0
  0
LINE
  8
0
 62
     0
 10
117.395
 20
142.302
 30
0.0
 11
117.395
 21
141.301
 31
0.0
  0
LINE
  8
0
 62
     0
 10
117.395
 20
141.301
 30
0.0
 11
131.396
 21
141.301
 31
0.0
  0
LINE
  8
0
 62
     0
 10
131.396
 20
141.301
 30
0.0
 11
131.396
 21
142.302
 31
0.0
  0
LINE
  8
0
 62
     0
 10
131.396
 20
142.302
 30
0.0
 11
132.195
 21
142.302
 31
0.0
  0
LINE
  8
0
 62
     0
 10
132.195
 20
142.302
 30
0.0
 11
132.195
 21
145.402
 31
0.0
  0
LINE
  8
0
 62
     0
 10
132.195
 20
145.402
 30
0.0
 11
131.396
 21
145.402
 31
0.0
  0
LINE
  8
0
 62
     0
 10
131.396
 20
145.402
 30
0.0
 11
131.396
 21
151.201
 31
0.0
  0
LINE
  8
0
 62
     0
 10
131.396
 20
151.201
 30
0.0
 11
132.195
 21
151.201
 31
0.0
  0
LINE
  8
0
 62
     0
 10
132.195
 20
151.201
 30
0.0
 11
132.195
 21
154.302
 31
0.0
  0
LINE
  8
0
 62
     0
 10
132.195
 20
154.302
 30
0.0
 11
131.396
 21
154.302
 31
0.0
  0
LINE
  8
0
 62
     0
 10
131.396
 20
154.302
 30
0.0
 11
131.396
 21
155.302
 31
0.0
  0
LINE
  8
0
 62
     0
 10
131.396
 20
155.302
 30
0.0
 11
117.395
 21
155.302
 31
0.0
  0
LINE
  8
0
 62
     0
 10
145.97
 20
164.827
 30
0.0
 11
145.97
 21
163.827
 31
0.0
  0
LINE
  8
0
 62
     0
 10
145.97
 20
163.827
 30
0.0
 11
145.171
 21
163.827
 31
0.0
  0
LINE
  8
0
 62
     0
 10
145.171
 20
163.827
 30
0.0
 11
145.171
 21
160.726
 31
0.0
  0
LINE
  8
0
 62
     0
 10
145.171
 20
160.726
 30
0.0
 11
145.97
 21
160.726
 31
0.0
  0
LINE
  8
0
 62
     0
 10
145.97
 20
160.726
 30
0.0
 11
145.97
 21
154.927
 31
0.0
  0
LINE
  8
0
 62
     0
 10
145.97
 20
154.927
 30
0.0
 11
145.171
 21
154.927
 31
0.0
  0
LINE
  8
0
 62
     0
 10
145.171
 20
154.927
 30
0.0
 11
145.171
 21
151.827
 31
0.0
  0
LINE
  8
0
 62
     0
 10
145.171
 20
151.827
 30
0.0
 11
145.97
 21
151.827
 31
0.0
  0
LINE
  8
0
 62
     0
 10
145.97
 20
151.827
 30
0.0
 11
145.97
 21
150.826
 31
0.0
  0
LINE
  8
0
 62
     0
 10
145.97
 20
150.826
 30
0.0
 11
159.971
 21
150.826
 31
0.0
  0
LINE
  8
0
 62
     0
 10
159.971
 20
150.826
 30
0.0
 11
159.971
 21
151.827
 31
0.0
  0
LINE
  8
0
 62
     0
 10
159.971
 20
151.827
 30
0.0
 11
160.77
 21
151.827
 31
0.0
  0
LINE
  8
0
 62
     0
 10
160.77
 20
151.827
 30
0.0
 11
160.77
 21
154.927
 31
0.0
  0
LINE
  8
0
 62
     0
 10
160.77
 20
154.927
 30
0.0
 11
159.971
 21
154.927
 31
0.0
  0
LINE
  8
0
 62
     0
 10
159.971
 20
154.927
 30
0.0
 11
159.971
 21
160.726
 31
0.0
  0
LINE
  8
0
 62
     0
 10
159.971
 20
160.726
 30
0.0
 11
160.77
 21
160.726
 31
0.0
  0
LINE
  8
0
 62
     0
 10
160.77
 20
160.726
 30
0.0
 11
160.77
 21
163.827
 31
0.0
  0
LINE
  8
0
 62
     0
 10
160.77
 20
163.827
 30
0.0
 11
159.971
 21
163.827
 31
0.0
  0
LINE
  8
0
 62
     0
 10
159.971
 20
163.827
 30
0.0
 11
159.971
 21
164.827
 31
0.0
  0
LINE
  8
0
 62
     0
 10
159.971
 20
164.827
 30
0.0
 11
145.97
 21
164.827
 31
0.0
  0
LINE
  8
0
 62
     0
 10
12.6201
 20
174.352
 30
0.0
 11
12.6201
 21
173.352
 31
0.0
  0
LINE
  8
0
 62
     0
 10
12.6201
 20
173.352
 30
0.0
 11
11.8194
 21
173.352
 31
0.0
  0
LINE
  8
0
 62
     0
 10
11.8194
 20
173.352
 30
0.0
 11
11.8194
 21
170.251
 31
0.0
  0
LINE
  8
0
 62
     0
 10
11.8194
 20
170.251
 30
0.0
 11
12.6201
 21
170.251
 31
0.0
  0
LINE
  8
0
 62
     0
 10
12.6201
 20
170.251
 30
0.0
 11
12.6201
 21
164.452
 31
0.0
  0
LINE
  8
0
 62
     0
 10
12.6201
 20
164.452
 30
0.0
 11
11.8194
 21
164.452
 31
0.0
  0
LINE
  8
0
 62
     0
 10
11.8194
 20
164.452
 30
0.0
 11
11.8194
 21
161.352
 31
0.0
  0
LINE
  8
0
 62
     0
 10
11.8194
 20
161.352
 30
0.0
 11
12.6201
 21
161.352
 31
0.0
  0
LINE
  8
0
 62
     0
 10
12.6201
 20
161.352
 30
0.0
 11
12.6201
 21
160.351
 31
0.0
  0
LINE
  8
0
 62
     0
 10
12.6201
 20
160.351
 30
0.0
 11
26.6209
 21
160.351
 31
0.0
  0
LINE
  8
0
 62
     0
 10
26.6209
 20
160.351
 30
0.0
 11
26.6209
 21
161.352
 31
0.0
  0
LINE
  8
0
 62
     0
 10
26.6209
 20
161.352
 30
0.0
 11
27.4188
 21
161.352
 31
0.0
  0
LINE
  8
0
 62
     0
 10
27.4188
 20
161.352
 30
0.0
 11
27.4188
 21
164.452
 31
0.0
  0
LINE
  8
0
 62
     0
 10
27.4188
 20
164.452
 30
0.0
 11
26.6209
 21
164.452
 31
0.0
  0
LINE
  8
0
 62
     0
 10
26.6209
 20
164.452
 30
0.0
 11
26.6209
 21
170.251
 31
0.0
  0
LINE
  8
0
 62
     0
 10
26.6209
 20
170.251
 30
0.0
 11
27.4188
 21
170.251
 31
0.0
  0
LINE
  8
0
 62
     0
 10
27.4188
 20
170.251
 30
0.0
 11
27.4188
 21
173.352
 31
0.0
  0
LINE
  8
0
 62
     0
 10
27.4188
 20
173.352
 30
0.0
 11
26.6209
 21
173.352
 31
0.0
  0
LINE
  8
0
 62
     0
 10
26.6209
 20
173.352
 30
0.0
 11
26.6209
 21
174.352
 31
0.0
  0
LINE
  8
0
 62
     0
 10
26.6209
 20
174.352
 30
0.0
 11
12.6201
 21
174.352
 31
0.0
  0
LINE
  8
0
 62
     0
 10
31.6701
 20
174.352
 30
0.0
 11
31.6701
 21
173.352
 31
0.0
  0
LINE
  8
0
 62
     0
 10
31.6701
 20
173.352
 30
0.0
 11
30.8708
 21
173.352
 31
0.0
  0
LINE
  8
0
 62
     0
 10
30.8708
 20
173.352
 30
0.0
 11
30.8708
 21
170.251
 31
0.0
  0
LINE
  8
0
 62
     0
 10
30.8708
 20
170.251
 30
0.0
 11
31.6701
 21
170.251
 31
0.0
  0
LINE
  8
0
 62
     0
 10
31.6701
 20
170.251
 30
0.0
 11
31.6701
 21
164.452
 31
0.0
  0
LINE
  8
0
 62
     0
 10
31.6701
 20
164.452
 30
0.0
 11
30.8708
 21
164.452
 31
0.0
  0
LINE
  8
0
 62
     0
 10
30.8708
 20
164.452
 30
0.0
 11
30.8708
 21
161.352
 31
0.0
  0
LINE
  8
0
 62
     0
 10
30.8708
 20
161.352
 30
0.0
 11
31.6701
 21
161.352
 31
0.0
  0
LINE
  8
0
 62
     0
 10
31.6701
 20
161.352
 30
0.0
 11
31.6701
 21
160.351
 31
0.0
  0
LINE
  8
0
 62
     0
 10
31.6701
 20
160.351
 30
0.0
 11
45.671
 21
160.351
 31
0.0
  0
LINE
  8
0
 62
     0
 10
45.671
 20
160.351
 30
0.0
 11
45.671
 21
161.352
 31
0.0
  0
LINE
  8
0
 62
     0
 10
45.671
 20
161.352
 30
0.0
 11
46.4704
 21
161.352
 31
0.0
  0
LINE
  8
0
 62
     0
 10
46.4704
 20
161.352
 30
0.0
 11
46.4704
 21
164.452
 31
0.0
  0
LINE
  8
0
 62
     0
 10
46.4704
 20
164.452
 30
0.0
 11
45.671
 21
164.452
 31
0.0
  0
LINE
  8
0
 62
     0
 10
45.671
 20
164.452
 30
0.0
 11
45.671
 21
170.251
 31
0.0
  0
LINE
  8
0
 62
     0
 10
45.671
 20
170.251
 30
0.0
 11
46.4704
 21
170.251
 31
0.0
  0
LINE
  8
0
 62
     0
 10
46.4704
 20
170.251
 30
0.0
 11
46.4704
 21
173.352
 31
0.0
  0
LINE
  8
0
 62
     0
 10
46.4704
 20
173.352
 30
0.0
 11
45.671
 21
173.352
 31
0.0
  0
LINE
  8
0
 62
     0
 10
45.671
 20
173.352
 30
0.0
 11
45.671
 21
174.352
 31
0.0
  0
LINE
  8
0
 62
     0
 10
45.671
 20
174.352
 30
0.0
 11
31.6701
 21
174.352
 31
0.0
  0
LINE
  8
0
 62
     0
 10
50.7199
 20
174.352
 30
0.0
 11
50.7199
 21
173.352
 31
0.0
  0
LINE
  8
0
 62
     0
 10
50.7199
 20
173.352
 30
0.0
 11
49.9209
 21
173.352
 31
0.0
  0
LINE
  8
0
 62
     0
 10
49.9209
 20
173.352
 30
0.0
 11
49.9209
 21
170.251
 31
0.0
  0
LINE
  8
0
 62
     0
 10
49.9209
 20
170.251
 30
0.0
 11
50.7199
 21
170.251
 31
0.0
  0
LINE
  8
0
 62
     0
 10
50.7199
 20
170.251
 30
0.0
 11
50.7199
 21
164.452
 31
0.0
  0
LINE
  8
0
 62
     0
 10
50.7199
 20
164.452
 30
0.0
 11
49.9209
 21
164.452
 31
0.0
  0
LINE
  8
0
 62
     0
 10
49.9209
 20
164.452
 30
0.0
 11
49.9209
 21
161.352
 31
0.0
  0
LINE
  8
0
 62
     0
 10
49.9209
 20
161.352
 30
0.0
 11
50.7199
 21
161.352
 31
0.0
  0
LINE
  8
0
 62
     0
 10
50.7199
 20
161.352
 30
0.0
 11
50.7199
 21
160.351
 31
0.0
  0
LINE
  8
0
 62
     0
 10
50.7199
 20
160.351
 30
0.0
 11
64.721
 21
160.351
 31
0.0
  0
LINE
  8
0
 62
     0
 10
64.721
 20
160.351
 30
0.0
 11
64.721
 21
161.352
 31
0.0
  0
LINE
  8
0
 62
     0
 10
64.721
 20
161.352
 30
0.0
 11
65.5204
 21
161.352
 31
0.0
  0
LINE
  8
0
 62
     0
 10
65.5204
 20
161.352
 30
0.0
 11
65.5204
 21
164.452
 31
0.0
  0
LINE
  8
0
 62
     0
 10
65.5204
 20
164.452
 30
0.0
 11
64.721
 21
164.452
 31
0.0
  0
LINE
  8
0
 62
     0
 10
64.721
 20
164.452
 30
0.0
 11
64.721
 21
170.251
 31
0.0
  0
LINE
  8
0
 62
     0
 10
64.721
 20
170.251
 30
0.0
 11
65.5204
 21
170.251
 31
0.0
  0
LINE
  8
0
 62
     0
 10
65.5204
 20
170.251
 30
0.0
 11
65.5204
 21
173.352
 31
0.0
  0
LINE
  8
0
 62
     0
 10
65.5204
 20
173.352
 30
0.0
 11
64.721
 21
173.352
 31
0.0
  0
LINE
  8
0
 62
     0
 10
64.721
 20
173.352
 30
0.0
 11
64.721
 21
174.352
 31
0.0
  0
LINE
  8
0
 62
     0
 10
64.721
 20
174.352
 30
0.0
 11
50.7199
 21
174.352
 31
0.0
  0
LINE
  8
0
 62
     0
 10
79.2949
 20
174.352
 30
0.0
 11
79.2949
 21
173.352
 31
0.0
  0
LINE
  8
0
 62
     0
 10
79.2949
 20
173.352
 30
0.0
 11
78.4959
 21
173.352
 31
0.0
  0
LINE
  8
0
 62
     0
 10
78.4959
 20
173.352
 30
0.0
 11
78.4959
 21
170.251
 31
0.0
  0
LINE
  8
0
 62
     0
 10
78.4959
 20
170.251
 30
0.0
 11
79.2949
 21
170.251
 31
0.0
  0
LINE
  8
0
 62
     0
 10
79.2949
 20
170.251
 30
0.0
 11
79.2949
 21
164.452
 31
0.0
  0
LINE
  8
0
 62
     0
 10
79.2949
 20
164.452
 30
0.0
 11
78.4959
 21
164.452
 31
0.0
  0
LINE
  8
0
 62
     0
 10
78.4959
 20
164.452
 30
0.0
 11
78.4959
 21
161.352
 31
0.0
  0
LINE
  8
0
 62
     0
 10
78.4959
 20
161.352
 30
0.0
 11
79.2949
 21
161.352
 31
0.0
  0
LINE
  8
0
 62
     0
 10
79.2949
 20
161.352
 30
0.0
 11
79.2949
 21
160.351
 31
0.0
  0
LINE
  8
0
 62
     0
 10
79.2949
 20
160.351
 30
0.0
 11
93.296
 21
160.351
 31
0.0
  0
LINE
  8
0
 62
     0
 10
93.296
 20
160.351
 30
0.0
 11
93.296
 21
161.352
 31
0.0
  0
LINE
  8
0
 62
     0
 10
93.296
 20
161.352
 30
0.0
 11
94.0954
 21
161.352
 31
0.0
  0
LINE
  8
0
 62
     0
 10
94.0954
 20
161.352
 30
0.0
 11
94.0954
 21
164.452
 31
0.0
  0
LINE
  8
0
 62
     0
 10
94.0954
 20
164.452
 30
0.0
 11
93.296
 21
164.452
 31
0.0
  0
LINE
  8
0
 62
     0
 10
93.296
 20
164.452
 30
0.0
 11
93.296
 21
170.251
 31
0.0
  0
LINE
  8
0
 62
     0
 10
93.296
 20
170.251
 30
0.0
 11
94.0954
 21
170.251
 31
0.0
  0
LINE
  8
0
 62
     0
 10
94.0954
 20
170.251
 30
0.0
 11
94.0954
 21
173.352
 31
0.0
  0
LINE
  8
0
 62
     0
 10
94.0954
 20
173.352
 30
0.0
 11
93.296
 21
173.352
 31
0.0
  0
LINE
  8
0
 62
     0
 10
93.296
 20
173.352
 30
0.0
 11
93.296
 21
174.352
 31
0.0
  0
LINE
  8
0
 62
     0
 10
93.296
 20
174.352
 30
0.0
 11
79.2949
 21
174.352
 31
0.0
  0
LINE
  8
0
 62
     0
 10
98.3449
 20
174.352
 30
0.0
 11
98.3449
 21
173.352
 31
0.0
  0
LINE
  8
0
 62
     0
 10
98.3449
 20
173.352
 30
0.0
 11
97.5459
 21
173.352
 31
0.0
  0
LINE
  8
0
 62
     0
 10
97.5459
 20
173.352
 30
0.0
 11
97.5459
 21
170.251
 31
0.0
  0
LINE
  8
0
 62
     0
 10
97.5459
 20
170.251
 30
0.0
 11
98.3449
 21
170.251
 31
0.0
  0
LINE
  8
0
 62
     0
 10
98.3449
 20
170.251
 30
0.0
 11
98.3449
 21
164.452
 31
0.0
  0
LINE
  8
0
 62
     0
 10
98.3449
 20
164.452
 30
0.0
 11
97.5459
 21
164.452
 31
0.0
  0
LINE
  8
0
 62
     0
 10
97.5459
 20
164.452
 30
0.0
 11
97.5459
 21
161.352
 31
0.0
  0
LINE
  8
0
 62
     0
 10
97.5459
 20
161.352
 30
0.0
 11
98.3449
 21
161.352
 31
0.0
  0
LINE
  8
0
 62
     0
 10
98.3449
 20
161.352
 30
0.0
 11
98.3449
 21
160.351
 31
0.0
  0
LINE
  8
0
 62
     0
 10
98.3449
 20
160.351
 30
0.0
 11
112.346
 21
160.351
 31
0.0
  0
LINE
  8
0
 62
     0
 10
112.346
 20
160.351
 30
0.0
 11
112.346
 21
161.352
 31
0.0
  0
LINE
  8
0
 62
     0
 10
112.346
 20
161.352
 30
0.0
 11
113.145
 21
161.352
 31
0.0
  0
LINE
  8
0
 62
     0
 10
113.145
 20
161.352
 30
0.0
 11
113.145
 21
164.452
 31
0.0
  0
LINE
  8
0
 62
     0
 10
113.145
 20
164.452
 30
0.0
 11
112.346
 21
164.452
 31
0.0
  0
LINE
  8
0
 62
     0
 10
112.346
 20
164.452
 30
0.0
 11
112.346
 21
170.251
 31
0.0
  0
LINE
  8
0
 62
     0
 10
112.346
 20
170.251
 30
0.0
 11
113.145
 21
170.251
 31
0.0
  0
LINE
  8
0
 62
     0
 10
113.145
 20
170.251
 30
0.0
 11
113.145
 21
173.352
 31
0.0
  0
LINE
  8
0
 62
     0
 10
113.145
 20
173.352
 30
0.0
 11
112.346
 21
173.352
 31
0.0
  0
LINE
  8
0
 62
     0
 10
112.346
 20
173.352
 30
0.0
 11
112.346
 21
174.352
 31
0.0
  0
LINE
  8
0
 62
     0
 10
112.346
 20
174.352
 30
0.0
 11
98.3449
 21
174.352
 31
0.0
  0
LINE
  8
0
 62
     0
 10
117.395
 20
174.352
 30
0.0
 11
117.395
 21
173.352
 31
0.0
  0
LINE
  8
0
 62
     0
 10
117.395
 20
173.352
 30
0.0
 11
116.596
 21
173.352
 31
0.0
  0
LINE
  8
0
 62
     0
 10
116.596
 20
173.352
 30
0.0
 11
116.596
 21
170.251
 31
0.0
  0
LINE
  8
0
 62
     0
 10
116.596
 20
170.251
 30
0.0
 11
117.395
 21
170.251
 31
0.0
  0
LINE
  8
0
 62
     0
 10
117.395
 20
170.251
 30
0.0
 11
117.395
 21
164.452
 31
0.0
  0
LINE
  8
0
 62
     0
 10
117.395
 20
164.452
 30
0.0
 11
116.596
 21
164.452
 31
0.0
  0
LINE
  8
0
 62
     0
 10
116.596
 20
164.452
 30
0.0
 11
116.596
 21
161.352
 31
0.0
  0
LINE
  8
0
 62
     0
 10
116.596
 20
161.352
 30
0.0
 11
117.395
 21
161.352
 31
0.0
  0
LINE
  8
0
 62
     0
 10
117.395
 20
161.352
 30
0.0
 11
117.395
 21
160.351
 31
0.0
  0
LINE
  8
0
 62
     0
 10
117.395
 20
160.351
 30
0.0
 11
131.396
 21
160.351
 31
0.0
  0
LINE
  8
0
 62
     0
 10
131.396
 20
160.351
 30
0.0
 11
131.396
 21
161.352
 31
0.0
  0
LINE
  8
0
 62
     0
 10
131.396
 20
161.352
 30
0.0
 11
132.195
 21
161.352
 31
0.0
  0
LINE
  8
0
 62
     0
 10
132.195
 20
161.352
 30
0.0
 11
132.195
 21
164.452
 31
0.0
  0
LINE
  8
0
 62
     0
 10
132.195
 20
164.452
 30
0.0
 11
131.396
 21
164.452
 31
0.0
  0
LINE
  8
0
 62
     0
 10
131.396
 20
164.452
 30
0.0
 11
131.396
 21
170.251
 31
0.0
  0
LINE
  8
0
 62
     0
 10
131.396
 20
170.251
 30
0.0
 11
132.195
 21
170.251
 31
0.0
  0
LINE
  8
0
 62
     0
 10
132.195
 20
170.251
 30
0.0
 11
132.195
 21
173.352
 31
0.0
  0
LINE
  8
0
 62
     0
 10
132.195
 20
173.352
 30
0.0
 11
131.396
 21
173.352
 31
0.0
  0
LINE
  8
0
 62
     0
 10
131.396
 20
173.352
 30
0.0
 11
131.396
 21
174.352
 31
0.0
  0
LINE
  8
0
 62
     0
 10
131.396
 20
174.352
 30
0.0
 11
117.395
 21
174.352
 31
0.0
  0
LINE
  8
0
 62
     0
 10
12.6201
 20
193.402
 30
0.0
 11
12.6201
 21
192.402
 31
0.0
  0
LINE
  8
0
 62
     0
 10
12.6201
 20
192.402
 30
0.0
 11
11.8194
 21
192.402
 31
0.0
  0
LINE
  8
0
 62
     0
 10
11.8194
 20
192.402
 30
0.0
 11
11.8194
 21
189.301
 31
0.0
  0
LINE
  8
0
 62
     0
 10
11.8194
 20
189.301
 30
0.0
 11
12.6201
 21
189.301
 31
0.0
  0
LINE
  8
0
 62
     0
 10
12.6201
 20
189.301
 30
0.0
 11
12.6201
 21
183.502
 31
0.0
  0
LINE
  8
0
 62
     0
 10
12.6201
 20
183.502
 30
0.0
 11
11.8194
 21
183.502
 31
0.0
  0
LINE
  8
0
 62
     0
 10
11.8194
 20
183.502
 30
0.0
 11
11.8194
 21
180.402
 31
0.0
  0
LINE
  8
0
 62
     0
 10
11.8194
 20
180.402
 30
0.0
 11
12.6201
 21
180.402
 31
0.0
  0
LINE
  8
0
 62
     0
 10
12.6201
 20
180.402
 30
0.0
 11
12.6201
 21
179.401
 31
0.0
  0
LINE
  8
0
 62
     0
 10
12.6201
 20
179.401
 30
0.0
 11
26.6209
 21
179.401
 31
0.0
  0
LINE
  8
0
 62
     0
 10
26.6209
 20
179.401
 30
0.0
 11
26.6209
 21
180.402
 31
0.0
  0
LINE
  8
0
 62
     0
 10
26.6209
 20
180.402
 30
0.0
 11
27.4188
 21
180.402
 31
0.0
  0
LINE
  8
0
 62
     0
 10
27.4188
 20
180.402
 30
0.0
 11
27.4188
 21
183.502
 31
0.0
  0
LINE
  8
0
 62
     0
 10
27.4188
 20
183.502
 30
0.0
 11
26.6209
 21
183.502
 31
0.0
  0
LINE
  8
0
 62
     0
 10
26.6209
 20
183.502
 30
0.0
 11
26.6209
 21
189.301
 31
0.0
  0
LINE
  8
0
 62
     0
 10
26.6209
 20
189.301
 30
0.0
 11
27.4188
 21
189.301
 31
0.0
  0
LINE
  8
0
 62
     0
 10
27.4188
 20
189.301
 30
0.0
 11
27.4188
 21
192.402
 31
0.0
  0
LINE
  8
0
 62
     0
 10
27.4188
 20
192.402
 30
0.0
 11
26.6209
 21
192.402
 31
0.0
  0
LINE
  8
0
 62
     0
 10
26.6209
 20
192.402
 30
0.0
 11
26.6209
 21
193.402
 31
0.0
  0
LINE
  8
0
 62
     0
 10
26.6209
 20
193.402
 30
0.0
 11
12.6201
 21
193.402
 31
0.0
  0
LINE
  8
0
 62
     0
 10
31.6701
 20
193.402
 30
0.0
 11
31.6701
 21
192.402
 31
0.0
  0
LINE
  8
0
 62
     0
 10
31.6701
 20
192.402
 30
0.0
 11
30.8708
 21
192.402
 31
0.0
  0
LINE
  8
0
 62
     0
 10
30.8708
 20
192.402
 30
0.0
 11
30.8708
 21
189.301
 31
0.0
  0
LINE
  8
0
 62
     0
 10
30.8708
 20
189.301
 30
0.0
 11
31.6701
 21
189.301
 31
0.0
  0
LINE
  8
0
 62
     0
 10
31.6701
 20
189.301
 30
0.0
 11
31.6701
 21
183.502
 31
0.0
  0
LINE
  8
0
 62
     0
 10
31.6701
 20
183.502
 30
0.0
 11
30.8708
 21
183.502
 31
0.0
  0
LINE
  8
0
 62
     0
 10
30.8708
 20
183.502
 30
0.0
 11
30.8708
 21
180.402
 31
0.0
  0
LINE
  8
0
 62
     0
 10
30.8708
 20
180.402
 30
0.0
 11
31.6701
 21
180.402
 31
0.0
  0
LINE
  8
0
 62
     0
 10
31.6701
 20
180.402
 30
0.0
 11
31.6701
 21
179.401
 31
0.0
  0
LINE
  8
0
 62
     0
 10
31.6701
 20
179.401
 30
0.0
 11
45.671
 21
179.401
 31
0.0
  0
LINE
  8
0
 62
     0
 10
45.671
 20
179.401
 30
0.0
 11
45.671
 21
180.402
 31
0.0
  0
LINE
  8
0
 62
     0
 10
45.671
 20
180.402
 30
0.0
 11
46.4704
 21
180.402
 31
0.0
  0
LINE
  8
0
 62
     0
 10
46.4704
 20
180.402
 30
0.0
 11
46.4704
 21
183.502
 31
0.0
  0
LINE
  8
0
 62
     0
 10
46.4704
 20
183.502
 30
0.0
 11
45.671
 21
183.502
 31
0.0
  0
LINE
  8
0
 62
     0
 10
45.671
 20
183.502
 30
0.0
 11
45.671
 21
189.301
 31
0.0
  0
LINE
  8
0
 62
     0
 10
45.671
 20
189.301
 30
0.0
 11
46.4704
 21
189.301
 31
0.0
  0
LINE
  8
0
 62
     0
 10
46.4704
 20
189.301
 30
0.0
 11
46.4704
 21
192.402
 31
0.0
  0
LINE
  8
0
 62
     0
 10
46.4704
 20
192.402
 30
0.0
 11
45.671
 21
192.402
 31
0.0
  0
LINE
  8
0
 62
     0
 10
45.671
 20
192.402
 30
0.0
 11
45.671
 21
193.402
 31
0.0
  0
LINE
  8
0
 62
     0
 10
45.671
 20
193.402
 30
0.0
 11
31.6701
 21
193.402
 31
0.0
  0
LINE
  8
0
 62
     0
 10
50.7199
 20
193.402
 30
0.0
 11
50.7199
 21
192.402
 31
0.0
  0
LINE
  8
0
 62
     0
 10
50.7199
 20
192.402
 30
0.0
 11
49.9209
 21
192.402
 31
0.0
  0
LINE
  8
0
 62
     0
 10
49.9209
 20
192.402
 30
0.0
 11
49.9209
 21
189.301
 31
0.0
  0
LINE
  8
0
 62
     0
 10
49.9209
 20
189.301
 30
0.0
 11
50.7199
 21
189.301
 31
0.0
  0
LINE
  8
0
 62
     0
 10
50.7199
 20
189.301
 30
0.0
 11
50.7199
 21
183.502
 31
0.0
  0
LINE
  8
0
 62
     0
 10
50.7199
 20
183.502
 30
0.0
 11
49.9209
 21
183.502
 31
0.0
  0
LINE
  8
0
 62
     0
 10
49.9209
 20
183.502
 30
0.0
 11
49.9209
 21
180.402
 31
0.0
  0
LINE
  8
0
 62
     0
 10
49.9209
 20
180.402
 30
0.0
 11
50.7199
 21
180.402
 31
0.0
  0
LINE
  8
0
 62
     0
 10
50.7199
 20
180.402
 30
0.0
 11
50.7199
 21
179.401
 31
0.0
  0
LINE
  8
0
 62
     0
 10
50.7199
 20
179.401
 30
0.0
 11
64.721
 21
179.401
 31
0.0
  0
LINE
  8
0
 62
     0
 10
64.721
 20
179.401
 30
0.0
 11
64.721
 21
180.402
 31
0.0
  0
LINE
  8
0
 62
     0
 10
64.721
 20
180.402
 30
0.0
 11
65.5204
 21
180.402
 31
0.0
  0
LINE
  8
0
 62
     0
 10
65.5204
 20
180.402
 30
0.0
 11
65.5204
 21
183.502
 31
0.0
  0
LINE
  8
0
 62
     0
 10
65.5204
 20
183.502
 30
0.0
 11
64.721
 21
183.502
 31
0.0
  0
LINE
  8
0
 62
     0
 10
64.721
 20
183.502
 30
0.0
 11
64.721
 21
189.301
 31
0.0
  0
LINE
  8
0
 62
     0
 10
64.721
 20
189.301
 30
0.0
 11
65.5204
 21
189.301
 31
0.0
  0
LINE
  8
0
 62
     0
 10
65.5204
 20
189.301
 30
0.0
 11
65.5204
 21
192.402
 31
0.0
  0
LINE
  8
0
 62
     0
 10
65.5204
 20
192.402
 30
0.0
 11
64.721
 21
192.402
 31
0.0
  0
LINE
  8
0
 62
     0
 10
64.721
 20
192.402
 30
0.0
 11
64.721
 21
193.402
 31
0.0
  0
LINE
  8
0
 62
     0
 10
64.721
 20
193.402
 30
0.0
 11
50.7199
 21
193.402
 31
0.0
  0
LINE
  8
0
 62
     0
 10
79.2949
 20
193.402
 30
0.0
 11
79.2949
 21
192.402
 31
0.0
  0
LINE
  8
0
 62
     0
 10
79.2949
 20
192.402
 30
0.0
 11
78.4959
 21
192.402
 31
0.0
  0
LINE
  8
0
 62
     0
 10
78.4959
 20
192.402
 30
0.0
 11
78.4959
 21
189.301
 31
0.0
  0
LINE
  8
0
 62
     0
 10
78.4959
 20
189.301
 30
0.0
 11
79.2949
 21
189.301
 31
0.0
  0
LINE
  8
0
 62
     0
 10
79.2949
 20
189.301
 30
0.0
 11
79.2949
 21
183.502
 31
0.0
  0
LINE
  8
0
 62
     0
 10
79.2949
 20
183.502
 30
0.0
 11
78.4959
 21
183.502
 31
0.0
  0
LINE
  8
0
 62
     0
 10
78.4959
 20
183.502
 30
0.0
 11
78.4959
 21
180.402
 31
0.0
  0
LINE
  8
0
 62
     0
 10
78.4959
 20
180.402
 30
0.0
 11
79.2949
 21
180.402
 31
0.0
  0
LINE
  8
0
 62
     0
 10
79.2949
 20
180.402
 30
0.0
 11
79.2949
 21
179.401
 31
0.0
  0
LINE
  8
0
 62
     0
 10
79.2949
 20
179.401
 30
0.0
 11
93.296
 21
179.401
 31
0.0
  0
LINE
  8
0
 62
     0
 10
93.296
 20
179.401
 30
0.0
 11
93.296
 21
180.402
 31
0.0
  0
LINE
  8
0
 62
     0
 10
93.296
 20
180.402
 30
0.0
 11
94.0954
 21
180.402
 31
0.0
  0
LINE
  8
0
 62
     0
 10
94.0954
 20
180.402
 30
0.0
 11
94.0954
 21
183.502
 31
0.0
  0
LINE
  8
0
 62
     0
 10
94.0954
 20
183.502
 30
0.0
 11
93.296
 21
183.502
 31
0.0
  0
LINE
  8
0
 62
     0
 10
93.296
 20
183.502
 30
0.0
 11
93.296
 21
189.301
 31
0.0
  0
LINE
  8
0
 62
     0
 10
93.296
 20
189.301
 30
0.0
 11
94.0954
 21
189.301
 31
0.0
  0
LINE
  8
0
 62
     0
 10
94.0954
 20
189.301
 30
0.0
 11
94.0954
 21
192.402
 31
0.0
  0
LINE
  8
0
 62
     0
 10
94.0954
 20
192.402
 30
0.0
 11
93.296
 21
192.402
 31
0.0
  0
LINE
  8
0
 62
     0
 10
93.296
 20
192.402
 30
0.0
 11
93.296
 21
193.402
 31
0.0
  0
LINE
  8
0
 62
     0
 10
93.296
 20
193.402
 30
0.0
 11
79.2949
 21
193.402
 31
0.0
  0
LINE
  8
0
 62
     0
 10
98.3449
 20
193.402
 30
0.0
 11
98.3449
 21
192.402
 31
0.0
  0
LINE
  8
0
 62
     0
 10
98.3449
 20
192.402
 30
0.0
 11
97.5459
 21
192.402
 31
0.0
  0
LINE
  8
0
 62
     0
 10
97.5459
 20
192.402
 30
0.0
 11
97.5459
 21
189.301
 31
0.0
  0
LINE
  8
0
 62
     0
 10
97.5459
 20
189.301
 30
0.0
 11
98.3449
 21
189.301
 31
0.0
  0
LINE
  8
0
 62
     0
 10
98.3449
 20
189.301
 30
0.0
 11
98.3449
 21
183.502
 31
0.0
  0
LINE
  8
0
 62
     0
 10
98.3449
 20
183.502
 30
0.0
 11
97.5459
 21
183.502
 31
0.0
  0
LINE
  8
0
 62
     0
 10
97.5459
 20
183.502
 30
0.0
 11
97.5459
 21
180.402
 31
0.0
  0
LINE
  8
0
 62
     0
 10
97.5459
 20
180.402
 30
0.0
 11
98.3449
 21
180.402
 31
0.0
  0
LINE
  8
0
 62
     0
 10
98.3449
 20
180.402
 30
0.0
 11
98.3449
 21
179.401
 31
0.0
  0
LINE
  8
0
 62
     0
 10
98.3449
 20
179.401
 30
0.0
 11
112.346
 21
179.401
 31
0.0
  0
LINE
  8
0
 62
     0
 10
112.346
 20
179.401
 30
0.0
 11
112.346
 21
180.402
 31
0.0
  0
LINE
  8
0
 62
     0
 10
112.346
 20
180.402
 30
0.0
 11
113.145
 21
180.402
 31
0.0
  0
LINE
  8
0
 62
     0
 10
113.145
 20
180.402
 30
0.0
 11
113.145
 21
183.502
 31
0.0
  0
LINE
  8
0
 62
     0
 10
113.145
 20
183.502
 30
0.0
 11
112.346
 21
183.502
 31
0.0
  0
LINE
  8
0
 62
     0
 10
112.346
 20
183.502
 30
0.0
 11
112.346
 21
189.301
 31
0.0
  0
LINE
  8
0
 62
     0
 10
112.346
 20
189.301
 30
0.0
 11
113.145
 21
189.301
 31
0.0
  0
LINE
  8
0
 62
     0
 10
113.145
 20
189.301
 30
0.0
 11
113.145
 21
192.402
 31
0.0
  0
LINE
  8
0
 62
     0
 10
113.145
 20
192.402
 30
0.0
 11
112.346
 21
192.402
 31
0.0
  0
LINE
  8
0
 62
     0
 10
112.346
 20
192.402
 30
0.0
 11
112.346
 21
193.402
 31
0.0
  0
LINE
  8
0
 62
     0
 10
112.346
 20
193.402
 30
0.0
 11
98.3449
 21
193.402
 31
0.0
  0
LINE
  8
0
 62
     0
 10
117.395
 20
193.402
 30
0.0
 11
117.395
 21
192.402
 31
0.0
  0
LINE
  8
0
 62
     0
 10
117.395
 20
192.402
 30
0.0
 11
116.596
 21
192.402
 31
0.0
  0
LINE
  8
0
 62
     0
 10
116.596
 20
192.402
 30
0.0
 11
116.596
 21
189.301
 31
0.0
  0
LINE
  8
0
 62
     0
 10
116.596
 20
189.301
 30
0.0
 11
117.395
 21
189.301
 31
0.0
  0
LINE
  8
0
 62
     0
 10
117.395
 20
189.301
 30
0.0
 11
117.395
 21
183.502
 31
0.0
  0
LINE
  8
0
 62
     0
 10
117.395
 20
183.502
 30
0.0
 11
116.596
 21
183.502
 31
0.0
  0
LINE
  8
0
 62
     0
 10
116.596
 20
183.502
 30
0.0
 11
116.596
 21
180.402
 31
0.0
  0
LINE
  8
0
 62
     0
 10
116.596
 20
180.402
 30
0.0
 11
117.395
 21
180.402
 31
0.0
  0
LINE
  8
0
 62
     0
 10
117.395
 20
180.402
 30
0.0
 11
117.395
 21
179.401
 31
0.0
  0
LINE
  8
0
 62
     0
 10
117.395
 20
179.401
 30
0.0
 11
131.396
 21
179.401
 31
0.0
  0
LINE
  8
0
 62
     0
 10
131.396
 20
179.401
 30
0.0
 11
131.396
 21
180.402
 31
0.0
  0
LINE
  8
0
 62
     0
 10
131.396
 20
180.402
 30
0.0
 11
132.195
 21
180.402
 31
0.0
  0
LINE
  8
0
 62
     0
 10
132.195
 20
180.402
 30
0.0
 11
132.195
 21
183.502
 31
0.0
  0
LINE
  8
0
 62
     0
 10
132.195
 20
183.502
 30
0.0
 11
131.396
 21
183.502
 31
0.0
  0
LINE
  8
0
 62
     0
 10
131.396
 20
183.502
 30
0.0
 11
131.396
 21
189.301
 31
0.0
  0
LINE
  8
0
 62
     0
 10
131.396
 20
189.301
 30
0.0
 11
132.195
 21
189.301
 31
0.0
  0
LINE
  8
0
 62
     0
 10
132.195
 20
189.301
 30
0.0
 11
132.195
 21
192.402
 31
0.0
  0
LINE
  8
0
 62
     0
 10
132.195
 20
192.402
 30
0.0
 11
131.396
 21
192.402
 31
0.0
  0
LINE
  8
0
 62
     0
 10
131.396
 20
192.402
 30
0.0
 11
131.396
 21
193.402
 31
0.0
  0
LINE
  8
0
 62
     0
 10
131.396
 20
193.402
 30
0.0
 11
117.395
 21
193.402
 31
0.0
  0
LINE
  8
0
 62
     0
 10
145.97
 20
193.402
 30
0.0
 11
145.97
 21
192.402
 31
0.0
  0
LINE
  8
0
 62
     0
 10
145.97
 20
192.402
 30
0.0
 11
145.171
 21
192.402
 31
0.0
  0
LINE
  8
0
 62
     0
 10
145.171
 20
192.402
 30
0.0
 11
145.171
 21
189.301
 31
0.0
  0
LINE
  8
0
 62
     0
 10
145.171
 20
189.301
 30
0.0
 11
145.97
 21
189.301
 31
0.0
  0
LINE
  8
0
 62
     0
 10
145.97
 20
189.301
 30
0.0
 11
145.97
 21
183.502
 31
0.0
  0
LINE
  8
0
 62
     0
 10
145.97
 20
183.502
 30
0.0
 11
145.171
 21
183.502
 31
0.0
  0
LINE
  8
0
 62
     0
 10
145.171
 20
183.502
 30
0.0
 11
145.171
 21
180.402
 31
0.0
  0
LINE
  8
0
 62
     0
 10
145.171
 20
180.402
 30
0.0
 11
145.97
 21
180.402
 31
0.0
  0
LINE
  8
0
 62
     0
 10
145.97
 20
180.402
 30
0.0
 11
145.97
 21
179.401
 31
0.0
  0
LINE
  8
0
 62
     0
 10
145.97
 20
179.401
 30
0.0
 11
159.971
 21
179.401
 31
0.0
  0
LINE
  8
0
 62
     0
 10
159.971
 20
179.401
 30
0.0
 11
159.971
 21
180.402
 31
0.0
  0
LINE
  8
0
 62
     0
 10
159.971
 20
180.402
 30
0.0
 11
160.77
 21
180.402
 31
0.0
  0
LINE
  8
0
 62
     0
 10
160.77
 20
180.402
 30
0.0
 11
160.77
 21
183.502
 31
0.0
  0
LINE
  8
0
 62
     0
 10
160.77
 20
183.502
 30
0.0
 11
159.971
 21
183.502
 31
0.0
  0
LINE
  8
0
 62
     0
 10
159.971
 20
183.502
 30
0.0
 11
159.971
 21
189.301
 31
0.0
  0
LINE
  8
0
 62
     0
 10
159.971
 20
189.301
 30
0.0
 11
160.77
 21
189.301
 31
0.0
  0
LINE
  8
0
 62
     0
 10
160.77
 20
189.301
 30
0.0
 11
160.77
 21
192.402
 31
0.0
  0
LINE
  8
0
 62
     0
 10
160.77
 20
192.402
 30
0.0
 11
159.971
 21
192.402
 31
0.0
  0
LINE
  8
0
 62
     0
 10
159.971
 20
192.402
 30
0.0
 11
159.971
 21
193.402
 31
0.0
  0
LINE
  8
0
 62
     0
 10
159.971
 20
193.402
 30
0.0
 11
145.97
 21
193.402
 31
0.0
  0
LINE
  8
0
 62
     0
 10
60.2449
 20
226.74
 30
0.0
 11
60.2449
 21
225.739
 31
0.0
  0
LINE
  8
0
 62
     0
 10
60.2449
 20
225.739
 30
0.0
 11
59.4445
 21
225.739
 31
0.0
  0
LINE
  8
0
 62
     0
 10
59.4445
 20
225.739
 30
0.0
 11
59.4445
 21
222.64
 31
0.0
  0
LINE
  8
0
 62
     0
 10
59.4445
 20
222.64
 30
0.0
 11
60.2449
 21
222.64
 31
0.0
  0
LINE
  8
0
 62
     0
 10
60.2449
 20
222.64
 30
0.0
 11
60.2449
 21
216.84
 31
0.0
  0
LINE
  8
0
 62
     0
 10
60.2449
 20
216.84
 30
0.0
 11
59.4445
 21
216.84
 31
0.0
  0
LINE
  8
0
 62
     0
 10
59.4445
 20
216.84
 30
0.0
 11
59.4445
 21
213.739
 31
0.0
  0
LINE
  8
0
 62
     0
 10
59.4445
 20
213.739
 30
0.0
 11
60.2449
 21
213.739
 31
0.0
  0
LINE
  8
0
 62
     0
 10
60.2449
 20
213.739
 30
0.0
 11
60.2449
 21
212.74
 31
0.0
  0
LINE
  8
0
 62
     0
 10
60.2449
 20
212.74
 30
0.0
 11
74.246
 21
212.74
 31
0.0
  0
LINE
  8
0
 62
     0
 10
74.246
 20
212.74
 30
0.0
 11
74.246
 21
213.739
 31
0.0
  0
LINE
  8
0
 62
     0
 10
74.246
 20
213.739
 30
0.0
 11
75.0454
 21
213.739
 31
0.0
  0
LINE
  8
0
 62
     0
 10
75.0454
 20
213.739
 30
0.0
 11
75.0454
 21
216.84
 31
0.0
  0
LINE
  8
0
 62
     0
 10
75.0454
 20
216.84
 30
0.0
 11
74.246
 21
216.84
 31
0.0
  0
LINE
  8
0
 62
     0
 10
74.246
 20
216.84
 30
0.0
 11
74.246
 21
222.64
 31
0.0
  0
LINE
  8
0
 62
     0
 10
74.246
 20
222.64
 30
0.0
 11
75.0454
 21
222.64
 31
0.0
  0
LINE
  8
0
 62
     0
 10
75.0454
 20
222.64
 30
0.0
 11
75.0454
 21
225.739
 31
0.0
  0
LINE
  8
0
 62
     0
 10
75.0454
 20
225.739
 30
0.0
 11
74.246
 21
225.739
 31
0.0
  0
LINE
  8
0
 62
     0
 10
74.246
 20
225.739
 30
0.0
 11
74.246
 21
226.74
 31
0.0
  0
LINE
  8
0
 62
     0
 10
74.246
 20
226.74
 30
0.0
 11
60.2449
 21
226.74
 31
0.0
  0
LINE
  8
0
 62
     0
 10
88.8199
 20
226.74
 30
0.0
 11
88.8199
 21
225.739
 31
0.0
  0
LINE
  8
0
 62
     0
 10
88.8199
 20
225.739
 30
0.0
 11
88.0209
 21
225.739
 31
0.0
  0
LINE
  8
0
 62
     0
 10
88.0209
 20
225.739
 30
0.0
 11
88.0209
 21
222.64
 31
0.0
  0
LINE
  8
0
 62
     0
 10
88.0209
 20
222.64
 30
0.0
 11
88.8199
 21
222.64
 31
0.0
  0
LINE
  8
0
 62
     0
 10
88.8199
 20
222.64
 30
0.0
 11
88.8199
 21
216.84
 31
0.0
  0
LINE
  8
0
 62
     0
 10
88.8199
 20
216.84
 30
0.0
 11
88.0209
 21
216.84
 31
0.0
  0
LINE
  8
0
 62
     0
 10
88.0209
 20
216.84
 30
0.0
 11
88.0209
 21
213.739
 31
0.0
  0
LINE
  8
0
 62
     0
 10
88.0209
 20
213.739
 30
0.0
 11
88.8199
 21
213.739
 31
0.0
  0
LINE
  8
0
 62
     0
 10
88.8199
 20
213.739
 30
0.0
 11
88.8199
 21
212.74
 31
0.0
  0
LINE
  8
0
 62
     0
 10
88.8199
 20
212.74
 30
0.0
 11
102.821
 21
212.74
 31
0.0
  0
LINE
  8
0
 62
     0
 10
102.821
 20
212.74
 30
0.0
 11
102.821
 21
213.739
 31
0.0
  0
LINE
  8
0
 62
     0
 10
102.821
 20
213.739
 30
0.0
 11
103.62
 21
213.739
 31
0.0
  0
LINE
  8
0
 62
     0
 10
103.62
 20
213.739
 30
0.0
 11
103.62
 21
216.84
 31
0.0
  0
LINE
  8
0
 62
     0
 10
103.62
 20
216.84
 30
0.0
 11
102.821
 21
216.84
 31
0.0
  0
LINE
  8
0
 62
     0
 10
102.821
 20
216.84
 30
0.0
 11
102.821
 21
222.64
 31
0.0
  0
LINE
  8
0
 62
     0
 10
102.821
 20
222.64
 30
0.0
 11
103.62
 21
222.64
 31
0.0
  0
LINE
  8
0
 62
     0
 10
103.62
 20
222.64
 30
0.0
 11
103.62
 21
225.739
 31
0.0
  0
LINE
  8
0
 62
     0
 10
103.62
 20
225.739
 30
0.0
 11
102.821
 21
225.739
 31
0.0
  0
LINE
  8
0
 62
     0
 10
102.821
 20
225.739
 30
0.0
 11
102.821
 21
226.74
 31
0.0
  0
LINE
  8
0
 62
     0
 10
102.821
 20
226.74
 30
0.0
 11
88.8199
 21
226.74
 31
0.0
  0
LINE
  8
0
 62
     0
 10
117.395
 20
226.74
 30
0.0
 11
117.395
 21
225.739
 31
0.0
  0
LINE
  8
0
 62
     0
 10
117.395
 20
225.739
 30
0.0
 11
116.596
 21
225.739
 31
0.0
  0
LINE
  8
0
 62
     0
 10
116.596
 20
225.739
 30
0.0
 11
116.596
 21
222.64
 31
0.0
  0
LINE
  8
0
 62
     0
 10
116.596
 20
222.64
 30
0.0
 11
117.395
 21
222.64
 31
0.0
  0
LINE
  8
0
 62
     0
 10
117.395
 20
222.64
 30
0.0
 11
117.395
 21
216.84
 31
0.0
  0
LINE
  8
0
 62
     0
 10
117.395
 20
216.84
 30
0.0
 11
116.596
 21
216.84
 31
0.0
  0
LINE
  8
0
 62
     0
 10
116.596
 20
216.84
 30
0.0
 11
116.596
 21
213.739
 31
0.0
  0
LINE
  8
0
 62
     0
 10
116.596
 20
213.739
 30
0.0
 11
117.395
 21
213.739
 31
0.0
  0
LINE
  8
0
 62
     0
 10
117.395
 20
213.739
 30
0.0
 11
117.395
 21
212.74
 31
0.0
  0
LINE
  8
0
 62
     0
 10
117.395
 20
212.74
 30
0.0
 11
131.396
 21
212.74
 31
0.0
  0
LINE
  8
0
 62
     0
 10
131.396
 20
212.74
 30
0.0
 11
131.396
 21
213.739
 31
0.0
  0
LINE
  8
0
 62
     0
 10
131.396
 20
213.739
 30
0.0
 11
132.195
 21
213.739
 31
0.0
  0
LINE
  8
0
 62
     0
 10
132.195
 20
213.739
 30
0.0
 11
132.195
 21
216.84
 31
0.0
  0
LINE
  8
0
 62
     0
 10
132.195
 20
216.84
 30
0.0
 11
131.396
 21
216.84
 31
0.0
  0
LINE
  8
0
 62
     0
 10
131.396
 20
216.84
 30
0.0
 11
131.396
 21
222.64
 31
0.0
  0
LINE
  8
0
 62
     0
 10
131.396
 20
222.64
 30
0.0
 11
132.195
 21
222.64
 31
0.0
  0
LINE
  8
0
 62
     0
 10
132.195
 20
222.64
 30
0.0
 11
132.195
 21
225.739
 31
0.0
  0
LINE
  8
0
 62
     0
 10
132.195
 20
225.739
 30
0.0
 11
131.396
 21
225.739
 31
0.0
  0
LINE
  8
0
 62
     0
 10
131.396
 20
225.739
 30
0.0
 11
131.396
 21
226.74
 31
0.0
  0
LINE
  8
0
 62
     0
 10
131.396
 20
226.74
 30
0.0
 11
117.395
 21
226.74
 31
0.0
  0
LINE
  8
0
 62
     0
 10
145.97
 20
226.74
 30
0.0
 11
145.97
 21
225.739
 31
0.0
  0
LINE
  8
0
 62
     0
 10
145.97
 20
225.739
 30
0.0
 11
145.171
 21
225.739
 31
0.0
  0
LINE
  8
0
 62
     0
 10
145.171
 20
225.739
 30
0.0
 11
145.171
 21
222.64
 31
0.0
  0
LINE
  8
0
 62
     0
 10
145.171
 20
222.64
 30
0.0
 11
145.97
 21
222.64
 31
0.0
  0
LINE
  8
0
 62
     0
 10
145.97
 20
222.64
 30
0.0
 11
145.97
 21
216.84
 31
0.0
  0
LINE
  8
0
 62
     0
 10
145.97
 20
216.84
 30
0.0
 11
145.171
 21
216.84
 31
0.0
  0
LINE
  8
0
 62
     0
 10
145.171
 20
216.84
 30
0.0
 11
145.171
 21
213.739
 31
0.0
  0
LINE
  8
0
 62
     0
 10
145.171
 20
213.739
 30
0.0
 11
145.97
 21
213.739
 31
0.0
  0
LINE
  8
0
 62
     0
 10
145.97
 20
213.739
 30
0.0
 11
145.97
 21
212.74
 31
0.0
  0
LINE
  8
0
 62
     0
 10
145.97
 20
212.74
 30
0.0
 11
159.971
 21
212.74
 31
0.0
  0
LINE
  8
0
 62
     0
 10
159.971
 20
212.74
 30
0.0
 11
159.971
 21
213.739
 31
0.0
  0
LINE
  8
0
 62
     0
 10
159.971
 20
213.739
 30
0.0
 11
160.77
 21
213.739
 31
0.0
  0
LINE
  8
0
 62
     0
 10
160.77
 20
213.739
 30
0.0
 11
160.77
 21
216.84
 31
0.0
  0
LINE
  8
0
 62
     0
 10
160.77
 20
216.84
 30
0.0
 11
159.971
 21
216.84
 31
0.0
  0
LINE
  8
0
 62
     0
 10
159.971
 20
216.84
 30
0.0
 11
159.971
 21
222.64
 31
0.0
  0
LINE
  8
0
 62
     0
 10
159.971
 20
222.64
 30
0.0
 11
160.77
 21
222.64
 31
0.0
  0
LINE
  8
0
 62
     0
 10
160.77
 20
222.64
 30
0.0
 11
160.77
 21
225.739
 31
0.0
  0
LINE
  8
0
 62
     0
 10
160.77
 20
225.739
 30
0.0
 11
159.971
 21
225.739
 31
0.0
  0
LINE
  8
0
 62
     0
 10
159.971
 20
225.739
 30
0.0
 11
159.971
 21
226.74
 31
0.0
  0
LINE
  8
0
 62
     0
 10
159.971
 20
226.74
 30
0.0
 11
145.97
 21
226.74
 31
0.0
  0
LINE
  8
0
 62
     0
 10
174.545
 20
226.74
 30
0.0
 11
174.545
 21
225.739
 31
0.0
  0
LINE
  8
0
 62
     0
 10
174.545
 20
225.739
 30
0.0
 11
173.744
 21
225.739
 31
0.0
  0
LINE
  8
0
 62
     0
 10
173.744
 20
225.739
 30
0.0
 11
173.744
 21
222.64
 31
0.0
  0
LINE
  8
0
 62
     0
 10
173.744
 20
222.64
 30
0.0
 11
174.545
 21
222.64
 31
0.0
  0
LINE
  8
0
 62
     0
 10
174.545
 20
222.64
 30
0.0
 11
174.545
 21
216.84
 31
0.0
  0
LINE
  8
0
 62
     0
 10
174.545
 20
216.84
 30
0.0
 11
173.744
 21
216.84
 31
0.0
  0
LINE
  8
0
 62
     0
 10
173.744
 20
216.84
 30
0.0
 11
173.744
 21
213.739
 31
0.0
  0
LINE
  8
0
 62
     0
 10
173.744
 20
213.739
 30
0.0
 11
174.545
 21
213.739
 31
0.0
  0
LINE
  8
0
 62
     0
 10
174.545
 20
213.739
 30
0.0
 11
174.545
 21
212.74
 31
0.0
  0
LINE
  8
0
 62
     0
 10
174.545
 20
212.74
 30
0.0
 11
188.546
 21
212.74
 31
0.0
  0
LINE
  8
0
 62
     0
 10
188.546
 20
212.74
 30
0.0
 11
188.546
 21
213.739
 31
0.0
  0
LINE
  8
0
 62
     0
 10
188.546
 20
213.739
 30
0.0
 11
189.345
 21
213.739
 31
0.0
  0
LINE
  8
0
 62
     0
 10
189.345
 20
213.739
 30
0.0
 11
189.345
 21
216.84
 31
0.0
  0
LINE
  8
0
 62
     0
 10
189.345
 20
216.84
 30
0.0
 11
188.546
 21
216.84
 31
0.0
  0
LINE
  8
0
 62
     0
 10
188.546
 20
216.84
 30
0.0
 11
188.546
 21
222.64
 31
0.0
  0
LINE
  8
0
 62
     0
 10
188.546
 20
222.64
 30
0.0
 11
189.345
 21
222.64
 31
0.0
  0
LINE
  8
0
 62
     0
 10
189.345
 20
222.64
 30
0.0
 11
189.345
 21
225.739
 31
0.0
  0
LINE
  8
0
 62
     0
 10
189.345
 20
225.739
 30
0.0
 11
188.546
 21
225.739
 31
0.0
  0
LINE
  8
0
 62
     0
 10
188.546
 20
225.739
 30
0.0
 11
188.546
 21
226.74
 31
0.0
  0
LINE
  8
0
 62
     0
 10
188.546
 20
226.74
 30
0.0
 11
174.545
 21
226.74
 31
0.0
  0
LINE
  8
0
 62
     0
 10
12.6201
 20
250.552
 30
0.0
 11
12.6201
 21
249.552
 31
0.0
  0
LINE
  8
0
 62
     0
 10
12.6201
 20
249.552
 30
0.0
 11
11.8194
 21
249.552
 31
0.0
  0
LINE
  8
0
 62
     0
 10
11.8194
 20
249.552
 30
0.0
 11
11.8194
 21
246.451
 31
0.0
  0
LINE
  8
0
 62
     0
 10
11.8194
 20
246.451
 30
0.0
 11
12.6201
 21
246.451
 31
0.0
  0
LINE
  8
0
 62
     0
 10
12.6201
 20
246.451
 30
0.0
 11
12.6201
 21
240.652
 31
0.0
  0
LINE
  8
0
 62
     0
 10
12.6201
 20
240.652
 30
0.0
 11
11.8194
 21
240.652
 31
0.0
  0
LINE
  8
0
 62
     0
 10
11.8194
 20
240.652
 30
0.0
 11
11.8194
 21
237.552
 31
0.0
  0
LINE
  8
0
 62
     0
 10
11.8194
 20
237.552
 30
0.0
 11
12.6201
 21
237.552
 31
0.0
  0
LINE
  8
0
 62
     0
 10
12.6201
 20
237.552
 30
0.0
 11
12.6201
 21
236.551
 31
0.0
  0
LINE
  8
0
 62
     0
 10
12.6201
 20
236.551
 30
0.0
 11
26.6209
 21
236.551
 31
0.0
  0
LINE
  8
0
 62
     0
 10
26.6209
 20
236.551
 30
0.0
 11
26.6209
 21
237.552
 31
0.0
  0
LINE
  8
0
 62
     0
 10
26.6209
 20
237.552
 30
0.0
 11
27.4188
 21
237.552
 31
0.0
  0
LINE
  8
0
 62
     0
 10
27.4188
 20
237.552
 30
0.0
 11
27.4188
 21
240.652
 31
0.0
  0
LINE
  8
0
 62
     0
 10
27.4188
 20
240.652
 30
0.0
 11
26.6209
 21
240.652
 31
0.0
  0
LINE
  8
0
 62
     0
 10
26.6209
 20
240.652
 30
0.0
 11
26.6209
 21
246.451
 31
0.0
  0
LINE
  8
0
 62
     0
 10
26.6209
 20
246.451
 30
0.0
 11
27.4188
 21
246.451
 31
0.0
  0
LINE
  8
0
 62
     0
 10
27.4188
 20
246.451
 30
0.0
 11
27.4188
 21
249.552
 31
0.0
  0
LINE
  8
0
 62
     0
 10
27.4188
 20
249.552
 30
0.0
 11
26.6209
 21
249.552
 31
0.0
  0
LINE
  8
0
 62
     0
 10
26.6209
 20
249.552
 30
0.0
 11
26.6209
 21
250.552
 31
0.0
  0
LINE
  8
0
 62
     0
 10
26.6209
 20
250.552
 30
0.0
 11
12.6201
 21
250.552
 31
0.0
  0
LINE
  8
0
 62
     0
 10
88.8199
 20
250.552
 30
0.0
 11
88.8199
 21
249.552
 31
0.0
  0
LINE
  8
0
 62
     0
 10
88.8199
 20
249.552
 30
0.0
 11
88.0209
 21
249.552
 31
0.0
  0
LINE
  8
0
 62
     0
 10
88.0209
 20
249.552
 30
0.0
 11
88.0209
 21
246.451
 31
0.0
  0
LINE
  8
0
 62
     0
 10
88.0209
 20
246.451
 30
0.0
 11
88.8199
 21
246.451
 31
0.0
  0
LINE
  8
0
 62
     0
 10
88.8199
 20
246.451
 30
0.0
 11
88.8199
 21
240.652
 31
0.0
  0
LINE
  8
0
 62
     0
 10
88.8199
 20
240.652
 30
0.0
 11
88.0209
 21
240.652
 31
0.0
  0
LINE
  8
0
 62
     0
 10
88.0209
 20
240.652
 30
0.0
 11
88.0209
 21
237.552
 31
0.0
  0
LINE
  8
0
 62
     0
 10
88.0209
 20
237.552
 30
0.0
 11
88.8199
 21
237.552
 31
0.0
  0
LINE
  8
0
 62
     0
 10
88.8199
 20
237.552
 30
0.0
 11
88.8199
 21
236.551
 31
0.0
  0
LINE
  8
0
 62
     0
 10
88.8199
 20
236.551
 30
0.0
 11
102.821
 21
236.551
 31
0.0
  0
LINE
  8
0
 62
     0
 10
102.821
 20
236.551
 30
0.0
 11
102.821
 21
237.552
 31
0.0
  0
LINE
  8
0
 62
     0
 10
102.821
 20
237.552
 30
0.0
 11
103.62
 21
237.552
 31
0.0
  0
LINE
  8
0
 62
     0
 10
103.62
 20
237.552
 30
0.0
 11
103.62
 21
240.652
 31
0.0
  0
LINE
  8
0
 62
     0
 10
103.62
 20
240.652
 30
0.0
 11
102.821
 21
240.652
 31
0.0
  0
LINE
  8
0
 62
     0
 10
102.821
 20
240.652
 30
0.0
 11
102.821
 21
246.451
 31
0.0
  0
LINE
  8
0
 62
     0
 10
102.821
 20
246.451
 30
0.0
 11
103.62
 21
246.451
 31
0.0
  0
LINE
  8
0
 62
     0
 10
103.62
 20
246.451
 30
0.0
 11
103.62
 21
249.552
 31
0.0
  0
LINE
  8
0
 62
     0
 10
103.62
 20
249.552
 30
0.0
 11
102.821
 21
249.552
 31
0.0
  0
LINE
  8
0
 62
     0
 10
102.821
 20
249.552
 30
0.0
 11
102.821
 21
250.552
 31
0.0
  0
LINE
  8
0
 62
     0
 10
102.821
 20
250.552
 30
0.0
 11
88.8199
 21
250.552
 31
0.0
  0
LINE
  8
0
 62
     0
 10
117.395
 20
250.552
 30
0.0
 11
117.395
 21
249.552
 31
0.0
  0
LINE
  8
0
 62
     0
 10
117.395
 20
249.552
 30
0.0
 11
116.596
 21
249.552
 31
0.0
  0
LINE
  8
0
 62
     0
 10
116.596
 20
249.552
 30
0.0
 11
116.596
 21
246.451
 31
0.0
  0
LINE
  8
0
 62
     0
 10
116.596
 20
246.451
 30
0.0
 11
117.395
 21
246.451
 31
0.0
  0
LINE
  8
0
 62
     0
 10
117.395
 20
246.451
 30
0.0
 11
117.395
 21
240.652
 31
0.0
  0
LINE
  8
0
 62
     0
 10
117.395
 20
240.652
 30
0.0
 11
116.596
 21
240.652
 31
0.0
  0
LINE
  8
0
 62
     0
 10
116.596
 20
240.652
 30
0.0
 11
116.596
 21
237.552
 31
0.0
  0
LINE
  8
0
 62
     0
 10
116.596
 20
237.552
 30
0.0
 11
117.395
 21
237.552
 31
0.0
  0
LINE
  8
0
 62
     0
 10
117.395
 20
237.552
 30
0.0
 11
117.395
 21
236.551
 31
0.0
  0
LINE
  8
0
 62
     0
 10
117.395
 20
236.551
 30
0.0
 11
131.396
 21
236.551
 31
0.0
  0
LINE
  8
0
 62
     0
 10
131.396
 20
236.551
 30
0.0
 11
131.396
 21
237.552
 31
0.0
  0
LINE
  8
0
 62
     0
 10
131.396
 20
237.552
 30
0.0
 11
132.195
 21
237.552
 31
0.0
  0
LINE
  8
0
 62
     0
 10
132.195
 20
237.552
 30
0.0
 11
132.195
 21
240.652
 31
0.0
  0
LINE
  8
0
 62
     0
 10
132.195
 20
240.652
 30
0.0
 11
131.396
 21
240.652
 31
0.0
  0
LINE
  8
0
 62
     0
 10
131.396
 20
240.652
 30
0.0
 11
131.396
 21
246.451
 31
0.0
  0
LINE
  8
0
 62
     0
 10
131.396
 20
246.451
 30
0.0
 11
132.195
 21
246.451
 31
0.0
  0
LINE
  8
0
 62
     0
 10
132.195
 20
246.451
 30
0.0
 11
132.195
 21
249.552
 31
0.0
  0
LINE
  8
0
 62
     0
 10
132.195
 20
249.552
 30
0.0
 11
131.396
 21
249.552
 31
0.0
  0
LINE
  8
0
 62
     0
 10
131.396
 20
249.552
 30
0.0
 11
131.396
 21
250.552
 31
0.0
  0
LINE
  8
0
 62
     0
 10
131.396
 20
250.552
 30
0.0
 11
117.395
 21
250.552
 31
0.0
  0
LINE
  8
0
 62
     0
 10
145.97
 20
250.552
 30
0.0
 11
145.97
 21
249.552
 31
0.0
  0
LINE
  8
0
 62
     0
 10
145.97
 20
249.552
 30
0.0
 11
145.171
 21
249.552
 31
0.0
  0
LINE
  8
0
 62
     0
 10
145.171
 20
249.552
 30
0.0
 11
145.171
 21
246.451
 31
0.0
  0
LINE
  8
0
 62
     0
 10
145.171
 20
246.451
 30
0.0
 11
145.97
 21
246.451
 31
0.0
  0
LINE
  8
0
 62
     0
 10
145.97
 20
246.451
 30
0.0
 11
145.97
 21
240.652
 31
0.0
  0
LINE
  8
0
 62
     0
 10
145.97
 20
240.652
 30
0.0
 11
145.171
 21
240.652
 31
0.0
  0
LINE
  8
0
 62
     0
 10
145.171
 20
240.652
 30
0.0
 11
145.171
 21
237.552
 31
0.0
  0
LINE
  8
0
 62
     0
 10
145.171
 20
237.552
 30
0.0
 11
145.97
 21
237.552
 31
0.0
  0
LINE
  8
0
 62
     0
 10
145.97
 20
237.552
 30
0.0
 11
145.97
 21
236.551
 31
0.0
  0
LINE
  8
0
 62
     0
 10
145.97
 20
236.551
 30
0.0
 11
159.971
 21
236.551
 31
0.0
  0
LINE
  8
0
 62
     0
 10
159.971
 20
236.551
 30
0.0
 11
159.971
 21
237.552
 31
0.0
  0
LINE
  8
0
 62
     0
 10
159.971
 20
237.552
 30
0.0
 11
160.77
 21
237.552
 31
0.0
  0
LINE
  8
0
 62
     0
 10
160.77
 20
237.552
 30
0.0
 11
160.77
 21
240.652
 31
0.0
  0
LINE
  8
0
 62
     0
 10
160.77
 20
240.652
 30
0.0
 11
159.971
 21
240.652
 31
0.0
  0
LINE
  8
0
 62
     0
 10
159.971
 20
240.652
 30
0.0
 11
159.971
 21
246.451
 31
0.0
  0
LINE
  8
0
 62
     0
 10
159.971
 20
246.451
 30
0.0
 11
160.77
 21
246.451
 31
0.0
  0
LINE
  8
0
 62
     0
 10
160.77
 20
246.451
 30
0.0
 11
160.77
 21
249.552
 31
0.0
  0
LINE
  8
0
 62
     0
 10
160.77
 20
249.552
 30
0.0
 11
159.971
 21
249.552
 31
0.0
  0
LINE
  8
0
 62
     0
 10
159.971
 20
249.552
 30
0.0
 11
159.971
 21
250.552
 31
0.0
  0
LINE
  8
0
 62
     0
 10
159.971
 20
250.552
 30
0.0
 11
145.97
 21
250.552
 31
0.0
  0
LINE
  8
0
 62
     0
 10
174.545
 20
250.552
 30
0.0
 11
174.545
 21
249.552
 31
0.0
  0
LINE
  8
0
 62
     0
 10
174.545
 20
249.552
 30
0.0
 11
173.744
 21
249.552
 31
0.0
  0
LINE
  8
0
 62
     0
 10
173.744
 20
249.552
 30
0.0
 11
173.744
 21
246.451
 31
0.0
  0
LINE
  8
0
 62
     0
 10
173.744
 20
246.451
 30
0.0
 11
174.545
 21
246.451
 31
0.0
  0
LINE
  8
0
 62
     0
 10
174.545
 20
246.451
 30
0.0
 11
174.545
 21
240.652
 31
0.0
  0
LINE
  8
0
 62
     0
 10
174.545
 20
240.652
 30
0.0
 11
173.744
 21
240.652
 31
0.0
  0
LINE
  8
0
 62
     0
 10
173.744
 20
240.652
 30
0.0
 11
173.744
 21
237.552
 31
0.0
  0
LINE
  8
0
 62
     0
 10
173.744
 20
237.552
 30
0.0
 11
174.545
 21
237.552
 31
0.0
  0
LINE
  8
0
 62
     0
 10
174.545
 20
237.552
 30
0.0
 11
174.545
 21
236.551
 31
0.0
  0
LINE
  8
0
 62
     0
 10
174.545
 20
236.551
 30
0.0
 11
188.546
 21
236.551
 31
0.0
  0
LINE
  8
0
 62
     0
 10
188.546
 20
236.551
 30
0.0
 11
188.546
 21
237.552
 31
0.0
  0
LINE
  8
0
 62
     0
 10
188.546
 20
237.552
 30
0.0
 11
189.345
 21
237.552
 31
0.0
  0
LINE
  8
0
 62
     0
 10
189.345
 20
237.552
 30
0.0
 11
189.345
 21
240.652
 31
0.0
  0
LINE
  8
0
 62
     0
 10
189.345
 20
240.652
 30
0.0
 11
188.546
 21
240.652
 31
0.0
  0
LINE
  8
0
 62
     0
 10
188.546
 20
240.652
 30
0.0
 11
188.546
 21
246.451
 31
0.0
  0
LINE
  8
0
 62
     0
 10
188.546
 20
246.451
 30
0.0
 11
189.345
 21
246.451
 31
0.0
  0
LINE
  8
0
 62
     0
 10
189.345
 20
246.451
 30
0.0
 11
189.345
 21
249.552
 31
0.0
  0
LINE
  8
0
 62
     0
 10
189.345
 20
249.552
 30
0.0
 11
188.546
 21
249.552
 31
0.0
  0
LINE
  8
0
 62
     0
 10
188.546
 20
249.552
 30
0.0
 11
188.546
 21
250.552
 31
0.0
  0
LINE
  8
0
 62
     0
 10
188.546
 20
250.552
 30
0.0
 11
174.545
 21
250.552
 31
0.0
  0
LINE
  8
0
 62
     0
 10
205.978
 20
260.98
 30
0.0
 11
205.42
 21
260.696
 31
0.0
  0
LINE
  8
0
 62
     0
 10
205.42
 20
260.696
 30
0.0
 11
204.978
 21
260.252
 31
0.0
  0
LINE
  8
0
 62
     0
 10
204.978
 20
260.252
 30
0.0
 11
204.694
 21
259.696
 31
0.0
  0
LINE
  8
0
 62
     0
 10
204.694
 20
259.696
 30
0.0
 11
204.596
 21
259.077
 31
0.0
  0
LINE
  8
0
 62
     0
 10
204.596
 20
259.077
 30
0.0
 11
204.694
 21
258.459
 31
0.0
  0
LINE
  8
0
 62
     0
 10
204.694
 20
258.459
 30
0.0
 11
204.978
 21
257.901
 31
0.0
  0
LINE
  8
0
 62
     0
 10
204.978
 20
257.901
 30
0.0
 11
205.42
 21
257.459
 31
0.0
  0
LINE
  8
0
 62
     0
 10
205.42
 20
257.459
 30
0.0
 11
205.978
 21
257.175
 31
0.0
  0
LINE
  8
0
 62
     0
 10
205.978
 20
257.175
 30
0.0
 11
206.597
 21
257.077
 31
0.0
  0
LINE
  8
0
 62
     0
 10
206.597
 20
257.077
 30
0.0
 11
207.214
 21
257.175
 31
0.0
  0
LINE
  8
0
 62
     0
 10
207.214
 20
257.175
 30
0.0
 11
207.771
 21
257.459
 31
0.0
  0
LINE
  8
0
 62
     0
 10
207.771
 20
257.459
 30
0.0
 11
208.215
 21
257.901
 31
0.0
  0
LINE
  8
0
 62
     0
 10
208.215
 20
257.901
 30
0.0
 11
208.499
 21
258.459
 31
0.0
  0
LINE
  8
0
 62
     0
 10
208.499
 20
258.459
 30
0.0
 11
208.596
 21
259.077
 31
0.0
  0
LINE
  8
0
 62
     0
 10
208.596
 20
259.077
 30
0.0
 11
208.499
 21
259.696
 31
0.0
  0
LINE
  8
0
 62
     0
 10
208.499
 20
259.696
 30
0.0
 11
208.215
 21
260.252
 31
0.0
  0
LINE
  8
0
 62
     0
 10
208.215
 20
260.252
 30
0.0
 11
207.771
 21
260.696
 31
0.0
  0
LINE
  8
0
 62
     0
 10
207.771
 20
260.696
 30
0.0
 11
207.214
 21
260.98
 31
0.0
  0
LINE
  8
0
 62
     0
 10
207.214
 20
260.98
 30
0.0
 11
206.597
 21
261.076
 31
0.0
  0
LINE
  8
0
 62
     0
 10
206.597
 20
261.076
 30
0.0
 11
205.978
 21
260.98
 31
0.0
  0
LINE
  8
0
 62
     0
 10
3.47679
 20
260.98
 30
0.0
 11
2.92006
 21
260.696
 31
0.0
  0
LINE
  8
0
 62
     0
 10
2.92006
 20
260.696
 30
0.0
 11
2.47633
 21
260.252
 31
0.0
  0
LINE
  8
0
 62
     0
 10
2.47633
 20
260.252
 30
0.0
 11
2.19246
 21
259.696
 31
0.0
  0
LINE
  8
0
 62
     0
 10
2.19246
 20
259.696
 30
0.0
 11
2.09462
 21
259.077
 31
0.0
  0
LINE
  8
0
 62
     0
 10
2.09462
 20
259.077
 30
0.0
 11
2.19246
 21
258.459
 31
0.0
  0
LINE
  8
0
 62
     0
 10
2.19246
 20
258.459
 30
0.0
 11
2.47633
 21
257.901
 31
0.0
  0
LINE
  8
0
 62
     0
 10
2.47633
 20
257.901
 30
0.0
 11
2.92006
 21
257.459
 31
0.0
  0
LINE
  8
0
 62
     0
 10
2.92006
 20
257.459
 30
0.0
 11
3.47679
 21
257.175
 31
0.0
  0
LINE
  8
0
 62
     0
 10
3.47679
 20
257.175
 30
0.0
 11
4.09554
 21
257.077
 31
0.0
  0
LINE
  8
0
 62
     0
 10
4.09554
 20
257.077
 30
0.0
 11
4.7129
 21
257.175
 31
0.0
  0
LINE
  8
0
 62
     0
 10
4.7129
 20
257.175
 30
0.0
 11
5.27099
 21
257.459
 31
0.0
  0
LINE
  8
0
 62
     0
 10
5.27099
 20
257.459
 30
0.0
 11
5.71334
 21
257.901
 31
0.0
  0
LINE
  8
0
 62
     0
 10
5.71334
 20
257.901
 30
0.0
 11
5.99722
 21
258.459
 31
0.0
  0
LINE
  8
0
 62
     0
 10
5.99722
 20
258.459
 30
0.0
 11
6.09505
 21
259.077
 31
0.0
  0
LINE
  8
0
 62
     0
 10
6.09505
 20
259.077
 30
0.0
 11
5.99722
 21
259.696
 31
0.0
  0
LINE
  8
0
 62
     0
 10
5.99722
 20
259.696
 30
0.0
 11
5.71334
 21
260.252
 31
0.0
  0
LINE
  8
0
 62
     0
 10
5.71334
 20
260.252
 30
0.0
 11
5.27099
 21
260.696
 31
0.0
  0
LINE
  8
0
 62
     0
 10
5.27099
 20
260.696
 30
0.0
 11
4.7129
 21
260.98
 31
0.0
  0
LINE
  8
0
 62
     0
 10
4.7129
 20
260.98
 30
0.0
 11
4.09554
 21
261.076
 31
0.0
  0
LINE
  8
0
 62
     0
 10
4.09554
 20
261.076
 30
0.0
 11
3.47679
 21
260.98
 31
0.0
  0
ENDSEC
  0
EOF
